<?xml version="1.0" standalone="no"?>
<!DOCTYPE svg PUBLIC "-//W3C//DTD SVG 1.1//EN" "http://www.w3.org/Graphics/SVG/1.1/DTD/svg11.dtd" >
<svg xmlns="http://www.w3.org/2000/svg">
<metadata></metadata>
<defs>
<font id="bitterregular" horiz-adv-x="1259" >
<font-face units-per-em="2048" ascent="1577" descent="-471" />
<missing-glyph horiz-adv-x="471" />
<glyph unicode="fi" horiz-adv-x="1413" d="M276 1075v103q0 210 114.5 314.5t357.5 104.5q96 0 198 -17.5t156 -34.5l55 -17v-248h-164l-30 147q-92 17 -205 17q-277 0 -277 -225v-144l707 10v-921l153 -51v-113h-512v113l154 51v758h-502v-758l168 -51v-113h-547v113l174 51v758h-184v133z" />
<glyph unicode="fl" horiz-adv-x="1386" d="M276 1075v123q0 190 115 294.5t316 104.5q87 0 208 -5t199 -10l78 -5v-1413l184 -51v-113h-547v113l154 51v1259q-143 21 -256 21q-108 0 -177 -56.5t-69 -148.5v-164h271l-7 -153h-264v-758l168 -51v-113h-547v113l174 51v758h-184v133z" />
<glyph unicode="&#xd;" horiz-adv-x="471" />
<glyph unicode=" "  horiz-adv-x="471" />
<glyph unicode="&#x09;" horiz-adv-x="471" />
<glyph unicode="&#xa0;" horiz-adv-x="471" />
<glyph unicode="!" horiz-adv-x="655" d="M246 502l-31 1034h236l-31 -1024zM195 123q0 67 38.5 105t94.5 38q62 0 97.5 -37.5t35.5 -105.5q0 -67 -38.5 -105t-94.5 -38q-62 0 -97.5 37.5t-35.5 105.5z" />
<glyph unicode="&#x22;" horiz-adv-x="794" d="M133 1065v512h195l-41 -512h-154zM485 1065v512h197l-43 -512h-154z" />
<glyph unicode="#" horiz-adv-x="1413" d="M428 911l43 318h164l-43 -318h297l43 318h164l-43 -318h227v-133h-246l-39 -297h234v-133h-252l-45 -348h-164l45 348h-297l-45 -348h-164l45 348h-219v133h238l39 297h-226v133h244zM831 481l39 297h-297l-38 -297h296z" />
<glyph unicode="$" horiz-adv-x="1116" d="M492 -287v267q-87 2 -176.5 19.5t-135.5 34.5l-47 17v328h143l41 -189q8 -4 24 -11t66.5 -18t104.5 -11q75 0 138.5 19t107 63t43.5 106q0 57 -36.5 99t-94.5 68t-128 49.5t-140 53.5t-128 69.5t-94.5 107t-36.5 157.5q0 155 97.5 244.5t251.5 111.5v238h153v-231 q75 -5 157 -24t126 -35l45 -17l-10 -307h-123l-52 184q-92 41 -194 41q-117 0 -181.5 -50.5t-64.5 -123.5q0 -45 22.5 -80.5t60.5 -60t87 -45.5t103.5 -40.5t109 -41t103.5 -50.5t87 -65.5t60.5 -90t22.5 -120.5q0 -162 -99 -259.5t-260 -127.5v-279h-153z" />
<glyph unicode="%" horiz-adv-x="1669" d="M92 1085q0 173 94 271t244 98q144 0 231 -88.5t87 -259.5q0 -179 -93 -274t-245 -95q-146 0 -232 85.5t-86 262.5zM246 1096q0 -226 174 -226t174 226q0 105 -42.5 165t-131.5 60t-131.5 -60t-42.5 -165zM901 328q0 173 94 270.5t244 97.5q144 0 230.5 -88.5t86.5 -259.5 q0 -179 -92.5 -273.5t-244.5 -94.5q-146 0 -232 85.5t-86 262.5zM1055 338q0 -225 174 -225t174 225q0 105 -42.5 165t-131.5 60t-131.5 -60t-42.5 -165zM1331 1434l-829 -1434h-185l830 1434h184z" />
<glyph unicode="&#x26;" horiz-adv-x="1372" d="M1126 676v-246q0 -213 -134 -331.5t-367 -118.5q-244 0 -363 112.5t-119 306.5q0 69 28.5 133.5t69.5 107t81.5 75.5t69.5 48l28 15q-10 3 -26 8.5t-58 29.5t-74 55.5t-58 88.5t-26 125q0 185 126 277t351 92q80 0 177.5 -20.5t154.5 -41.5l57 -20l-10 -287h-131l-43 164 q-82 31 -225 31q-120 0 -183 -55t-63 -150q0 -104 77.5 -169.5t188.5 -65.5h635v-123zM922 676h-277q-118 0 -202.5 -76t-84.5 -190q0 -127 76.5 -191.5t210.5 -64.5q132 0 204.5 68.5t72.5 197.5v256z" />
<glyph unicode="'" horiz-adv-x="419" d="M113 1065v512h194l-41 -512h-153z" />
<glyph unicode="(" horiz-adv-x="675" d="M492 1577h184q-149 -226 -234.5 -488.5t-85.5 -504.5q0 -268 84.5 -556.5t233.5 -498.5h-182q-179 248 -259.5 493.5t-80.5 550.5q0 196 39.5 366.5t111 318t189.5 319.5z" />
<glyph unicode=")" horiz-adv-x="675" d="M-2 1577h184q118 -172 189.5 -319.5t111 -318t39.5 -366.5q0 -305 -80.5 -550.5t-259.5 -493.5h-182q149 210 233 498.5t84 556.5q0 243 -85.5 505t-233.5 488z" />
<glyph unicode="*" horiz-adv-x="825" d="M401 1200l-53 47l-26 254l149 4l-14 -260zM428 1182l29 63l235 101l51 -144l-256 -59zM375 1182l-62 -35l-262 51l49 143l248 -94zM385 1151l14 -70l-133 -231l-123 86l170 211zM487 1143l172 -203l-118 -90l-142 231l19 70z" />
<glyph unicode="+" horiz-adv-x="1269" d="M549 625v460h174v-460h444v-164h-444v-461h-174v461h-447v164h447z" />
<glyph unicode="," horiz-adv-x="542" d="M174 -315l-92 77q12 16 30 42t48 84.5t30 91.5q0 17 -23.5 63t-23.5 86q0 59 37 98t96 39q60 0 97 -35.5t37 -115.5q0 -85 -63.5 -198.5t-172.5 -231.5z" />
<glyph unicode="-" horiz-adv-x="768" d="M655 645v-174h-532v174h532z" />
<glyph unicode="." horiz-adv-x="532" d="M133 123q0 67 38.5 105t94.5 38q62 0 97.5 -37.5t35.5 -105.5q0 -67 -38.5 -105t-94.5 -38q-62 0 -97.5 37.5t-35.5 105.5z" />
<glyph unicode="/" horiz-adv-x="1036" d="M975 1434l-678 -1434h-215l678 1434h215z" />
<glyph unicode="0" horiz-adv-x="1320" d="M686 1454q116 0 203 -31t145.5 -88.5t95 -146.5t52.5 -199t16 -252q0 -757 -532 -757q-270 0 -396.5 185.5t-126.5 541.5q0 747 543 747zM676 1280q-165 0 -236 -136t-71 -427q0 -282 74 -422.5t233 -140.5q158 0 227.5 141t69.5 432q0 287 -66.5 420t-230.5 133z" />
<glyph unicode="1" horiz-adv-x="1048" d="M160 0v174h315v1024l-348 -225l-86 147l477 314h172v-1260h307v-174h-837z" />
<glyph unicode="2" horiz-adv-x="1167" d="M92 0v174q118 106 191.5 173t157.5 147t132.5 133.5t97.5 114t73.5 108t39.5 97t15 97.5q0 108 -74 172t-203 64q-50 0 -104 -10t-82 -20l-29 -11l-20 -195h-164l-10 328q25 9 67.5 22.5t153.5 36.5t198 23q241 0 366.5 -91t125.5 -298q0 -99 -37 -195t-122 -206 t-198 -222.5t-288 -267.5h686v-174h-973z" />
<glyph unicode="3" horiz-adv-x="1126" d="M287 829h164q142 0 224.5 63t82.5 183q0 93 -72 149t-194 56q-55 0 -111.5 -10t-85.5 -20l-29 -11l-20 -184h-164l-10 317q25 9 68 22.5t157 36.5t205 23q106 0 190.5 -20.5t148 -62.5t98 -111.5t34.5 -163.5q0 -133 -67 -221t-199 -121q138 -28 217.5 -120t79.5 -204 q0 -98 -33 -176.5t-87 -128.5t-126 -83.5t-145.5 -47.5t-151.5 -14q-74 0 -145 10.5t-118.5 25.5t-84.5 30t-55 26l-17 10l61 164q20 -10 54 -25.5t131 -41t184 -25.5q141 0 224 69t83 197q0 115 -91.5 180.5t-246.5 65.5h-153v163z" />
<glyph unicode="4" horiz-adv-x="1249" d="M932 1434v-922h235v-174h-235v-338h-211v338h-660l-20 154l655 972zM721 512v676l-455 -676h455z" />
<glyph unicode="5" horiz-adv-x="1085" d="M342 1260l-18 -390h65q276 0 435 -117.5t159 -312.5q0 -89 -29.5 -165.5t-79.5 -129.5t-116.5 -91t-139 -56t-147.5 -18q-74 0 -146 10.5t-121 25.5t-87.5 30t-56.5 26l-19 10l61 164q18 -10 51 -25.5t127 -41t181 -25.5q124 0 210.5 72.5t86.5 203.5q0 135 -112 206 t-308 71h-215l27 727h776l-6 -174h-578z" />
<glyph unicode="6" horiz-adv-x="1228" d="M1024 1434l-10 -164q-62 10 -154 10q-77 0 -144 -17t-115 -46t-87.5 -67t-65 -79.5t-45 -83t-29.5 -79.5t-16.5 -67t-7.5 -46l-2 -17q6 4 17 11t46.5 25t73.5 31.5t96 24.5t115 11q120 0 219 -49t160.5 -148.5t61.5 -232.5q0 -139 -67.5 -248t-179 -166t-245.5 -57 q-131 0 -232 47t-164 131.5t-94.5 197t-31.5 248.5q0 187 47 341t138 268t234.5 177.5t327.5 63.5q45 0 83.5 -5t54.5 -10zM338 614v-61q0 -104 24.5 -183t68 -125t97 -68.5t117.5 -22.5q125 0 201 73.5t76 202.5q0 137 -74 207t-213 70q-73 0 -147 -23.5t-112 -46.5z" />
<glyph unicode="7" horiz-adv-x="1028" d="M993 1280l-547 -1280h-235l543 1249h-549l-41 -194h-154v379h983v-154z" />
<glyph unicode="8" horiz-adv-x="1208" d="M1085 1085q0 -58 -20.5 -109.5t-49 -85.5t-67.5 -62t-68.5 -42.5t-58.5 -25.5q63 -26 109.5 -54.5t89 -70t64.5 -98.5t22 -127q0 -189 -140.5 -309.5t-381.5 -120.5q-231 0 -356.5 113t-125.5 296q0 64 25 122.5t57.5 96t78 71.5t71 47.5t51.5 25.5q-115 57 -178.5 130.5 t-63.5 192.5q0 187 131.5 283t360.5 96q217 0 333.5 -101t116.5 -268zM358 1075q0 -43 17.5 -78.5t41.5 -59.5t67.5 -47.5t77 -37t89.5 -33.5q24 9 49 21.5t57 35.5t56 49.5t40.5 66t16.5 83.5q0 94 -67.5 149.5t-188.5 55.5t-188.5 -55.5t-67.5 -149.5zM881 399 q0 32 -10 61t-23 50t-41 43t-48 35.5t-61.5 32.5t-63.5 28.5t-71 28.5q-22 -11 -30.5 -14.5t-38.5 -21t-46.5 -30.5t-42.5 -37.5t-40.5 -48.5t-25.5 -57.5t-11 -69.5q0 -115 72.5 -179t203.5 -64t204 64t73 179z" />
<glyph unicode="9" horiz-adv-x="1228" d="M205 0l10 164q72 -10 164 -10q79 0 146.5 17.5t115.5 47t87 68t63 81t42.5 85t27 81t13.5 68t6 46.5l1 18q-6 -4 -17 -11t-47 -25t-74 -31.5t-96 -24.5t-115 -11q-121 0 -219 46.5t-159.5 143.5t-61.5 230q0 108 39.5 198t107 149t156.5 91.5t189 32.5q131 0 232 -47 t164 -131.5t94.5 -197.5t31.5 -249q0 -187 -45.5 -340.5t-134.5 -268t-231 -177.5t-326 -63q-45 0 -86 5t-59 10zM891 829v62q0 195 -87 292t-220 97q-125 0 -201 -73.5t-76 -202.5q0 -267 287 -267q73 0 147 23t112 46z" />
<glyph unicode=":" horiz-adv-x="573" d="M154 788q0 67 38.5 105.5t94.5 38.5q62 0 97.5 -38t35.5 -106q0 -66 -38 -104.5t-95 -38.5q-62 0 -97.5 37.5t-35.5 105.5zM154 123q0 67 38 105t95 38q62 0 97.5 -37.5t35.5 -105.5q0 -67 -38 -105t-95 -38q-62 0 -97.5 37.5t-35.5 105.5z" />
<glyph unicode=";" horiz-adv-x="573" d="M152 788q0 67 38.5 105.5t94.5 38.5q62 0 97.5 -38t35.5 -106q0 -66 -38 -104.5t-95 -38.5q-62 0 -97.5 37.5t-35.5 105.5zM92 -238l92 -77q109 118 172.5 231.5t63.5 198.5q0 151 -133 151q-59 0 -96 -39t-37 -98q0 -40 23.5 -86t23.5 -63q0 -33 -27.5 -87.5 t-54.5 -92.5z" />
<glyph unicode="&#x3c;" horiz-adv-x="1249" d="M1147 -10l-1045 481v143l1045 471v-174l-819 -368l819 -379v-174z" />
<glyph unicode="=" horiz-adv-x="1228" d="M1116 840v-164h-1003v164h1003zM1116 440v-164h-1003v164h1003z" />
<glyph unicode="&#x3e;" horiz-adv-x="1249" d="M102 911v174l1045 -471v-143l-1045 -481v174l820 379z" />
<glyph unicode="?" horiz-adv-x="985" d="M477 479l-184 -12q-19 140 -19 201q0 49 37.5 99.5t90.5 96t106.5 93.5t91 108t37.5 123q0 84 -53.5 124t-161.5 40q-45 0 -99 -7t-85 -13l-31 -7l-33 154q135 47 258 47q68 0 126.5 -9t114 -32t94 -58.5t62 -91.5t23.5 -127q0 -72 -28 -138.5t-70 -114t-91.5 -95.5 t-91.5 -85.5t-70 -82t-28 -86.5zM268 123q0 67 38 105t95 38q62 0 98 -37.5t36 -105.5q0 -66 -38.5 -104.5t-95.5 -38.5q-62 0 -97.5 37.5t-35.5 105.5z" />
<glyph unicode="@" horiz-adv-x="1679" d="M612 952l-37 117q17 7 46.5 17.5t105.5 28.5t135 18q133 0 197.5 -58t64.5 -178v-367q0 -42 26 -66t71 -24q80 0 126 77t46 210q0 264 -147 418.5t-396 154.5q-257 0 -405 -156t-148 -427q0 -277 134.5 -430.5t377.5 -153.5q59 0 120.5 12.5t93.5 25.5l32 13l82 -123 q-5 -3 -14.5 -8.5t-43 -19.5t-70 -24.5t-93.5 -19.5t-117 -9q-322 0 -494 187.5t-172 539.5q0 338 199 542.5t528 204.5q321 0 508.5 -193t187.5 -524q0 -194 -93 -307t-253 -113q-52 0 -94 14t-65 34t-38.5 40t-20.5 34l-5 14l-13.5 -13.5t-35 -30.5t-53.5 -39t-65.5 -30.5 t-74.5 -13.5q-111 0 -169 58.5t-58 170.5q0 115 81.5 171t250.5 56h111v99q0 112 -140 112q-35 0 -87 -10.5t-87 -20.5zM961 672h-99q-100 0 -142 -27t-42 -90q0 -43 28.5 -68.5t77.5 -25.5q43 0 87 23t67 46l23 23v119z" />
<glyph unicode="A" horiz-adv-x="1484" d="M178 162l467 1261l205 11l455 -1272l170 -39v-123h-594v123l190 39l-78 227h-532l-80 -227l192 -39v-123h-563v123zM938 553l-207 616l-215 -616h422z" />
<glyph unicode="B" horiz-adv-x="1290" d="M256 164v1106l-174 41v112l379 11h235q201 0 321 -90.5t120 -268.5q0 -265 -267 -332q159 -36 238.5 -122t79.5 -211q0 -211 -131.5 -310.5t-390.5 -99.5h-584v123zM461 819h153q144 0 226 58.5t82 177.5q0 103 -66 159t-170 56h-225v-451zM461 164h215q146 0 221.5 59.5 t75.5 175.5q0 147 -90 207t-269 60h-153v-502z" />
<glyph unicode="C" horiz-adv-x="1361" d="M1106 1004l-55 235q-109 41 -263 41q-208 0 -319 -150.5t-111 -433.5q0 -266 119.5 -399t321.5 -133q60 0 124.5 17t113 41t88.5 48t61 41l22 17l82 -133q-8 -9 -24 -23.5t-68 -51.5t-107.5 -65.5t-141 -51.5t-171.5 -23q-311 0 -483 182t-172 524q0 353 185.5 560.5 t500.5 207.5q100 0 215 -25.5t180 -50.5l66 -26l-10 -348h-154z" />
<glyph unicode="D" horiz-adv-x="1495" d="M266 164v1106l-174 41v112l389 11h256q303 0 474 -181t171 -516q0 -338 -183.5 -537.5t-491.5 -199.5h-615v123zM481 164h236q200 0 315 140.5t115 422.5q0 276 -110.5 409.5t-309.5 133.5h-246v-1106z" />
<glyph unicode="E" d="M492 829h471v-163h-471v-502h471l41 205h133v-369h-1035v123l174 41v1106l-174 41v112l390 11h624v-349h-133l-51 185h-440v-441z" />
<glyph unicode="F" horiz-adv-x="1167" d="M471 809h471v-164h-471v-481l205 -41v-123h-594v123l174 41v1106l-174 41v112l389 11h625v-338h-133l-52 174h-440v-461z" />
<glyph unicode="G" horiz-adv-x="1536" d="M1300 541v-439q-9 -5 -25.5 -13t-70.5 -29t-111 -37.5t-143.5 -29.5t-171.5 -13q-311 0 -483 182t-172 524q0 353 185.5 560.5t500.5 207.5q100 0 215 -25.5t180 -50.5l66 -26l-10 -338h-134l-61 225q-123 41 -277 41q-208 0 -319 -150.5t-111 -433.5q0 -268 122 -405 t329 -137q64 0 135.5 13t111.5 25l40 13v336l-174 41v112l532 11v-123z" />
<glyph unicode="H" horiz-adv-x="1628" d="M82 0v123l174 41v1106l-174 41v112l584 11v-123l-195 -41v-451h686v451l-194 41v112l583 11v-123l-174 -41v-1106l174 -41v-123h-583v123l194 41v491h-686v-491l195 -41v-123h-584z" />
<glyph unicode="I" horiz-adv-x="747" d="M92 0v123l174 41v1106l-174 41v112l563 11v-123l-174 -41v-1106l174 -41v-123h-563z" />
<glyph unicode="J" horiz-adv-x="735" d="M653 1311l-174 -41v-1178q0 -186 -103 -292.5t-286 -106.5q-23 0 -55.5 2.5t-54.5 4.5l-21 3l18 154h103q97 0 140.5 49t43.5 145v1219l-174 41v112l563 11v-123z" />
<glyph unicode="K" horiz-adv-x="1413" d="M92 0v123l174 41v1106l-174 41v112l584 11v-123l-195 -41v-451h189l354 604l338 11v-123l-203 -41l-311 -518l422 -588l174 -41v-123h-584v123l174 41l-352 491h-201v-491l195 -41v-123h-584z" />
<glyph unicode="L" horiz-adv-x="1085" d="M881 164l41 235h143v-399h-993v123l174 41v1106l-174 41v112l563 11v-123l-174 -41v-1106h420z" />
<glyph unicode="M" horiz-adv-x="1812" d="M1352 164v1024l-62 -154l-317 -645l-164 -10l-317 665l-52 144v-1024l195 -41v-123h-553v123l174 41v1106l-174 41v112l461 11l370 -820l387 809l431 11v-123l-175 -41v-1106l175 -41v-123h-574v123z" />
<glyph unicode="N" horiz-adv-x="1617" d="M440 164l195 -41v-123h-553v123l174 41v1106l-174 41v112l430 11l676 -1145v981l-174 41v112l532 11v-123l-174 -41v-1270h-256l-676 1128v-964z" />
<glyph unicode="O" horiz-adv-x="1546" d="M788 1454q298 0 466.5 -192.5t168.5 -524.5q0 -167 -49.5 -308t-138 -240t-214 -154t-273.5 -55q-300 0 -462.5 187.5t-162.5 539.5q0 340 179.5 543.5t485.5 203.5zM778 1280q-204 0 -312 -138.5t-108 -424.5q0 -278 100.5 -420.5t299.5 -142.5q204 0 317 144t113 429 q0 275 -104.5 414t-305.5 139z" />
<glyph unicode="P" horiz-adv-x="1208" d="M256 164v1106l-174 41v112l389 11h215q227 0 349 -112.5t122 -307.5q0 -235 -144.5 -358.5t-408.5 -123.5h-133v-368l174 -41v-123h-563v123zM471 696h133q167 0 252.5 74t85.5 213q0 127 -69.5 207t-196.5 80h-205v-574z" />
<glyph unicode="Q" horiz-adv-x="1515" d="M1608 -133l82 -123q-23 -14 -60 -34.5t-122.5 -54.5t-135.5 -34q-38 0 -92 21.5t-82 37.5t-92 54l-408 250q-277 20 -426 206t-149 517q0 337 189 542t497 205q304 0 469.5 -191.5t165.5 -525.5q0 -276 -125 -469t-342 -258l221 -133q140 -82 215 -82q32 0 80.5 18 t81.5 36zM799 1280q-218 0 -334.5 -141.5t-116.5 -421.5q0 -272 108.5 -417.5t321.5 -145.5q216 0 328.5 145t112.5 428q0 553 -420 553z" />
<glyph unicode="R" horiz-adv-x="1331" d="M256 164v1106l-174 41v112l389 11h225q216 0 338.5 -98.5t122.5 -270.5q0 -299 -266 -399q49 -43 123 -185l162 -325l145 -33v-123h-307l-174 379q-72 154 -124 200t-153 46h-92v-461l174 -41v-123h-563v123zM471 778h154q151 0 234 67t83 189q0 103 -72 169.5t-184 66.5 h-215v-492z" />
<glyph unicode="S" horiz-adv-x="1222" d="M307 420l41 -215q10 -6 29 -14.5t78 -22.5t118 -14q78 0 148 23.5t118 75t48 120.5q0 50 -25.5 89.5t-68 66.5t-98 50t-117 44t-123 45t-117 57.5t-98 75.5t-68 105t-25.5 141q0 104 39.5 184t108 127.5t154 71.5t184.5 24q87 0 195 -20.5t172 -41.5l65 -20l-10 -348 h-133l-70 219q-104 37 -217 37q-131 0 -202 -58t-71 -141q0 -50 25 -89t68 -66t98.5 -50t116.5 -44t122 -44t116.5 -55t98.5 -72t68 -99.5t25 -133.5q0 -112 -43 -199t-117.5 -140.5t-169.5 -81t-205 -27.5q-96 0 -201.5 20t-163.5 40l-57 21v359h164z" />
<glyph unicode="T" horiz-adv-x="1157" d="M266 0v123l205 41v1106h-266l-51 -205h-134v369h1117v-369h-133l-52 205h-266v-1106l205 -41v-123h-625z" />
<glyph unicode="U" horiz-adv-x="1617" d="M1362 1270v-686q0 -148 -28 -255.5t-92 -188t-174.5 -120.5t-268.5 -40q-292 0 -417.5 140t-125.5 433v717l-174 41v112l584 11v-123l-195 -41v-717q0 -153 36.5 -240.5t108 -123t193.5 -35.5q191 0 264.5 95.5t73.5 334.5v686l-195 41v112l584 11v-123z" />
<glyph unicode="V" horiz-adv-x="1433" d="M10 1311v112l574 11v-123l-187 -39l322 -996l342 994l-191 41v112l553 11v-123l-159 -41l-455 -1270h-205l-436 1270z" />
<glyph unicode="W" horiz-adv-x="2119" d="M10 1311v112l574 11v-123l-178 -41l219 -928l338 1081l194 11l332 -1115l254 951l-187 41v112l553 11v-123l-161 -41l-361 -1270h-225l-246 942l-59 221l-64 -231l-276 -932h-205l-342 1270z" />
<glyph unicode="X" horiz-adv-x="1433" d="M154 154l430 573l-379 543l-154 41v112l543 11v-123l-133 -41l266 -389l266 389l-143 41v112l543 11v-123l-185 -41l-368 -533l399 -573l174 -41v-123h-553v123l123 31l-287 419l-307 -409l174 -41v-123h-543v123z" />
<glyph unicode="Y" horiz-adv-x="1320" d="M553 164v366l-395 742l-138 39v112l512 11v-123l-139 -41l273 -574l301 574l-158 41v112l491 11v-123l-126 -37l-406 -739v-371l174 -41v-123h-563v123z" />
<glyph unicode="Z" d="M1178 1290l-820 -1126h635l41 205h133v-369h-1085v143l819 1127h-573l-52 -205h-133v369h1035v-144z" />
<glyph unicode="[" horiz-adv-x="706" d="M184 -471v2048l441 -10v-133l-246 -23v-1716l246 -23v-133z" />
<glyph unicode="\" horiz-adv-x="1036" d="M739 0l-678 1434h215l678 -1434h-215z" />
<glyph unicode="]" horiz-adv-x="706" d="M82 -328l246 23v1716l-246 23v133l440 10v-2048l-440 10v133z" />
<glyph unicode="^" horiz-adv-x="1167" d="M123 655l389 779h143l389 -779h-178l-288 574l-281 -574h-174z" />
<glyph unicode="_" horiz-adv-x="1024" d="M1028 -164v-143h-1032v143h1032z" />
<glyph unicode="`" horiz-adv-x="501" d="M102 1638l400 -317l-72 -102l-430 266z" />
<glyph unicode="a" horiz-adv-x="1157" d="M164 768l-10 256q25 9 67.5 22.5t148.5 36.5t183 23q187 0 283 -74t96 -244v-624l164 -41v-113l-318 -10l-43 143q-66 -66 -153 -114.5t-183 -48.5q-146 0 -226.5 80.5t-80.5 226.5q0 169 121.5 243t349.5 74h164v164q0 91 -50.5 137.5t-144.5 46.5q-55 0 -106.5 -7.5 t-75.5 -14.5l-24 -8l-29 -154h-133zM727 471h-143q-153 0 -218 -40.5t-65 -133.5q0 -69 40.5 -111.5t109.5 -42.5q43 0 87.5 17t77 41t58.5 48t40 41l13 17v164z" />
<glyph unicode="b" horiz-adv-x="1208" d="M379 1577v-590q153 119 307 119q215 0 322.5 -142.5t107.5 -390.5q0 -176 -63 -308.5t-191.5 -208.5t-308.5 -76q-100 0 -194.5 12.5t-139.5 25.5l-45 13v1382l-164 41v113zM379 809v-645q53 -21 205 -21q86 0 149.5 32t99 89.5t52 129t16.5 159.5q0 179 -62 284 t-194 105q-52 0 -98 -13.5t-75.5 -33t-51.5 -39.5t-32 -34z" />
<glyph unicode="c" horiz-adv-x="1044" d="M819 748l-31 174q-82 20 -184 20q-149 0 -228 -95t-79 -284q0 -204 84 -312t233 -108q55 0 107.5 12.5t89 30.5t65 36.5t42.5 31.5l14 12l72 -123q-8 -7 -21.5 -18t-57.5 -39t-89.5 -49.5t-112 -39t-129.5 -17.5q-250 0 -381 149t-131 414q0 249 144.5 406t387.5 157 q82 0 169 -20.5t133 -41.5l47 -20l-11 -276h-133z" />
<glyph unicode="d" d="M1208 123v-113l-348 -10l-16 117q-137 -137 -322 -137q-215 0 -322.5 142.5t-107.5 389.5q0 132 33.5 240t99 187.5t170 123t240.5 43.5q97 0 194 -33v340l-174 41v113l379 10v-1413zM829 297v604q-8 5 -24 11.5t-71.5 18t-119.5 11.5q-307 0 -307 -410q0 -179 62 -284 t194 -105q49 0 94 16t75 38.5t53 45t33 38.5z" />
<glyph unicode="e" horiz-adv-x="1105" d="M1004 512h-707q0 -168 82 -268.5t215 -100.5q91 0 177 28.5t127 56.5l40 28l72 -106q-8 -7 -22 -18.5t-60.5 -40.5t-94.5 -51.5t-119.5 -41t-140.5 -18.5q-241 0 -366 146.5t-125 405.5q0 163 63 293.5t178 205.5t261 75q430 0 430 -481q0 -23 -2.5 -50t-5.5 -45z M305 666h492q0 126 -54 203t-170 77q-118 0 -188.5 -79t-79.5 -201z" />
<glyph unicode="f" horiz-adv-x="849" d="M276 1075v123q0 187 98.5 293t280.5 106q55 0 106.5 -7.5t86.5 -17.5t62 -20.5t40 -17.5l13 -8v-256h-144l-31 164q-50 10 -122 10q-102 0 -143.5 -53t-41.5 -152v-164h271l-7 -153h-264v-758l205 -51v-113h-584v113l174 51v758h-184v133z" />
<glyph unicode="g" horiz-adv-x="1198" d="M1147 963l-199 -29q6 -8 15.5 -24t25 -70t15.5 -113q0 -200 -121.5 -299.5t-329.5 -99.5q-41 0 -79.5 4.5t-56.5 9.5l-18 4l-10 -192h318q200 0 304.5 -75.5t104.5 -221.5q0 -173 -135 -271t-397 -98q-89 0 -161.5 9t-135 30.5t-105 55.5t-66.5 85t-24 117q0 52 22 97 t54 73t63.5 48.5t53.5 28.5l22 9q-5 0 -13.5 1.5t-29.5 9t-37 19t-29.5 34.5t-13.5 53t26.5 88t53.5 100l27 43q-6 3 -17 9.5t-38 32t-48 58t-38 91t-17 127.5q0 194 122.5 296.5t328.5 102.5q59 0 110 -10t72 -20l22 -9l359 8v-112zM573 963q-122 0 -178.5 -61t-56.5 -185 q0 -112 57 -179t168 -67q124 0 180 58t56 188q0 118 -56.5 182t-169.5 64zM655 0h-225q-5 -2 -14 -7t-32 -22.5t-40.5 -37t-32 -51.5t-14.5 -66q0 -52 21 -87t65 -53.5t98.5 -26t132.5 -7.5q155 0 231.5 47.5t76.5 146.5q0 94 -66.5 129t-200.5 35z" />
<glyph unicode="h" horiz-adv-x="1331" d="M430 1577v-619q65 55 161 101.5t197 46.5q164 0 246 -97.5t82 -271.5v-573l154 -51v-113h-492v113l133 49v555q0 111 -40.5 163t-137.5 52q-49 0 -98 -17t-84.5 -41t-63.5 -48t-43 -41l-14 -17v-604l133 -51v-113h-512v113l174 51v1249l-174 41v113z" />
<glyph unicode="i" horiz-adv-x="686" d="M215 1423q0 67 38.5 105.5t94.5 38.5q133 0 133 -144q0 -65 -41.5 -104t-91.5 -39q-62 0 -97.5 37.5t-35.5 105.5zM614 113v-113h-532v113l174 51v758l-174 41v112l379 10v-921z" />
<glyph unicode="j" horiz-adv-x="591" d="M172 1423q0 67 38.5 105.5t94.5 38.5q133 0 133 -144q0 -65 -41.5 -104t-91.5 -39q-62 0 -97.5 37.5t-35.5 105.5zM428 1085v-1177q0 -187 -98.5 -293.5t-280.5 -106.5q-23 0 -55.5 3t-53.5 5l-22 3l19 143h102q101 0 142.5 52.5t41.5 152.5v1055l-174 41v112z" />
<glyph unicode="k" horiz-adv-x="1187" d="M604 676l154 258l-92 29v112l450 10v-122l-145 -25h-2l-211 -313l264 -461h2l154 -51v-113h-277l-293 522h-178v-358l133 -51v-113h-512v113l174 51v1249l-174 41v113l379 10v-901h174z" />
<glyph unicode="l" horiz-adv-x="628" d="M618 113v-113h-567v113l174 51v1249l-174 41v113l383 10v-1413z" />
<glyph unicode="m" horiz-adv-x="2007" d="M420 1085l18 -145q22 21 55.5 45.5t83 53.5t111.5 48t121 19q207 0 285 -176q17 17 46.5 40t81.5 57t120 56.5t133 22.5q163 0 240 -96.5t77 -272.5v-573l154 -51v-113h-492v113l133 51v553q0 112 -38.5 163.5t-135.5 51.5q-49 0 -96.5 -17t-80.5 -41t-59 -48t-39 -41 l-12 -17v-604l134 -51v-113h-472v113l134 51v553q0 112 -38.5 163.5t-135.5 51.5q-49 0 -96.5 -17t-80.5 -41t-59 -48t-38 -41l-13 -17v-604l133 -51v-113h-512v113l174 51v758l-174 41v112z" />
<glyph unicode="n" horiz-adv-x="1361" d="M420 1085l18 -145q24 21 58 45t85.5 53.5t115 48.5t122.5 19q164 0 246 -97.5t82 -271.5v-573l153 -51v-113h-491v113l133 51v553q0 110 -43 162.5t-141 52.5q-49 0 -97.5 -17t-83 -41t-62 -48t-41.5 -41l-13 -17v-604l133 -51v-113h-512v113l174 51v758l-174 41v112z " />
<glyph unicode="o" horiz-adv-x="1167" d="M604 1106q227 0 354 -147t127 -396q0 -261 -141 -422t-371 -161q-234 0 -362.5 140t-128.5 412q0 259 145 416.5t377 157.5zM594 942q-152 0 -224.5 -99t-72.5 -300q0 -400 287 -400q150 0 218 102.5t68 307.5q0 389 -276 389z" />
<glyph unicode="p" d="M399 1085l17 -114q144 135 311 135q216 0 328 -143.5t112 -389.5q0 -132 -33.5 -239.5t-100.5 -187t-173.5 -123t-245.5 -43.5q-88 0 -184 28v-325l215 -41v-113h-584v113l164 41v1239l-174 41v112zM430 799v-615q7 -5 21.5 -11.5t70 -18t123.5 -11.5q307 0 307 410 q0 177 -66.5 283t-199.5 106q-52 0 -97 -14.5t-73 -36t-48.5 -42.5t-29.5 -35z" />
<glyph unicode="q" horiz-adv-x="1187" d="M829 -317v415q-151 -118 -307 -118q-430 0 -430 532q0 176 63 308.5t191.5 209t308.5 76.5q100 0 194.5 -10t139.5 -20l45 -11v-1382l164 -41v-113h-573v113zM829 276v646q-61 20 -204 20q-86 0 -149.5 -32t-99.5 -89.5t-52.5 -129t-16.5 -159.5q0 -179 62 -284t194 -105 q52 0 98 13.5t75.5 33t51.5 39.5t32 33z" />
<glyph unicode="r" horiz-adv-x="952" d="M420 1085l18 -149q57 63 138 116.5t172 53.5q45 0 91 -8t69 -16l24 -7l-10 -297h-134l-30 154q-175 0 -297 -160v-608l205 -51v-113h-584v113l174 51v758l-174 41v112z" />
<glyph unicode="s" horiz-adv-x="960" d="M238 328l22 -176q61 -19 172 -19q232 0 232 162q0 44 -31.5 76.5t-82 52.5t-111.5 39t-122 43.5t-111.5 57.5t-82 89.5t-31.5 132.5q0 154 105 237t270 83q72 0 159.5 -15.5t139.5 -30.5l51 -16l-6 -276h-133l-33 160q-64 24 -166 24q-182 0 -182 -137q0 -44 31.5 -77 t82 -54t111 -41t121.5 -44.5t111.5 -57t82 -86.5t31.5 -125q0 -114 -62 -194.5t-162 -118t-226 -37.5q-84 0 -165 11t-120 23l-39 11v303h144z" />
<glyph unicode="t" horiz-adv-x="808" d="M748 1075v-153h-297v-658q0 -125 102 -125q67 0 160 51l55 -108q-138 -102 -287 -102q-104 0 -169.5 68.5t-65.5 227.5v646h-205v133l205 20v258l205 41v-299h297z" />
<glyph unicode="u" horiz-adv-x="1331" d="M1280 123v-113l-338 -10l-20 143q-35 -30 -83 -62.5t-134 -66.5t-162 -34q-165 0 -246.5 96t-81.5 270v576l-174 41v112l379 10v-718q0 -109 43 -161t141 -52q49 0 97.5 16.5t83 40t62 47.5t41.5 40l13 17v607l-174 41v112l379 10v-921z" />
<glyph unicode="v" horiz-adv-x="1144" d="M328 942l243 -758l246 748l-141 31v112l459 10v-122l-113 -21l-348 -942h-225l-336 932l-103 31v112l461 10v-122z" />
<glyph unicode="w" horiz-adv-x="1699" d="M317 942l175 -758l268 891l194 31l254 -922l164 748l-143 31v112l461 10v-122l-119 -21l-250 -942h-236l-194 635l-49 196l-43 -196l-195 -635h-235l-256 932l-103 31v112l461 10v-122z" />
<glyph unicode="x" horiz-adv-x="1157" d="M426 950l158 -264l245 389l297 10v-122l-174 -31l-256 -379l262 -393l189 -47v-113h-500v113l82 24l-168 271l-254 -408h-297v113l180 47l261 383l-263 391l-157 29v112l467 10v-122z" />
<glyph unicode="y" horiz-adv-x="1181" d="M358 942l246 -717l225 707l-143 31v112l485 10v-122l-133 -21l-290 -811q-81 -212 -109 -273q-102 -219 -238 -297q-91 -53 -206 -53q-23 0 -56 3l-55 5l-21 3l19 143h102q100 0 175.5 84.5t150.5 249.5l-367 936l-123 31v112l482 10v-122z" />
<glyph unicode="z" horiz-adv-x="993" d="M322 154h417l29 163h143v-317h-819v154l598 778h-385l-29 -154h-143v307h789v-153z" />
<glyph unicode="{" horiz-adv-x="757" d="M696 1587v-133q-146 0 -199 -46t-53 -169v-350q0 -104 -48 -177t-142 -108q94 -35 142 -108t48 -177v-432q0 -123 53 -169t199 -46v-133h-92q-186 0 -267 79t-81 269v432q0 102 -43.5 157.5t-151.5 55.5v144q108 0 151.5 55.5t43.5 157.5v350q0 190 81 269t267 79h92z " />
<glyph unicode="|" horiz-adv-x="573" d="M205 -471v2017h164v-2017h-164z" />
<glyph unicode="}" horiz-adv-x="768" d="M82 1587h92q186 0 267 -79t81 -269v-350q0 -102 43.5 -157.5t151.5 -55.5v-144q-108 0 -151.5 -55.5t-43.5 -157.5v-432q0 -190 -81 -269t-267 -79h-92v133q146 0 199 46t53 169v432q0 104 48 177t142 108q-94 35 -142 108t-48 177v350q0 123 -53 169t-199 46v133z" />
<glyph unicode="~" horiz-adv-x="1282" d="M217 428l-94 74q4 8 11.5 22t35.5 49.5t60.5 62.5t87 49t114.5 22q64 0 126 -22.5t104 -49.5t99 -49.5t111 -22.5q32 0 63.5 12.5t53.5 30.5t40 36.5t27 31.5l9 12l94 -74q-5 -9 -13.5 -23t-37.5 -51t-61 -65t-82.5 -51t-102.5 -23q-63 0 -129 22.5t-112.5 49.5 t-106.5 49.5t-113 22.5q-32 0 -62.5 -12t-51.5 -28.5t-37.5 -33.5t-24.5 -29z" />
<glyph unicode="&#xa1;" horiz-adv-x="645" d="M451 983q0 -66 -38.5 -104.5t-95.5 -38.5q-62 0 -97.5 37.5t-35.5 105.5q0 67 38 105t95 38q62 0 98 -37.5t36 -105.5zM410 604l30 -1034h-235l31 1024z" />
<glyph unicode="&#xa2;" horiz-adv-x="1044" d="M645 1434v-189q74 -4 150.5 -26t116.5 -42l40 -20l-10 -266h-133l-31 174q-72 20 -174 20q-154 0 -225.5 -79t-71.5 -248q0 -369 307 -369q49 0 96.5 10.5t80.5 25.5t59 30.5t38 26.5l13 10l80 -113q-6 -5 -17.5 -14t-48 -32.5t-74 -42.5t-91.5 -38t-105 -25v-227h-153 v231q-197 29 -298.5 162.5t-101.5 343.5q0 195 103.5 331t296.5 169v197h153z" />
<glyph unicode="&#xa3;" horiz-adv-x="1280" d="M123 0v123l113 31q67 18 89.5 74.5t22.5 191.5q0 37 -14 266h-211v139l201 23q-7 115 -7 196q0 192 101 301t309 109q109 0 214 -15t155 -31l51 -15v-287h-133l-31 170q-123 14 -246 14q-215 0 -215 -205q0 -131 8 -235h340v-164h-329q12 -184 12 -246q0 -57 -9.5 -106.5 t-23 -79.5t-27 -51.5t-23.5 -30.5l-9 -8h520l43 215h133v-379h-1034z" />
<glyph unicode="&#xa4;" horiz-adv-x="1183" d="M1081 995l-155 -155q59 -95 59 -226q0 -127 -65 -227l161 -162l-100 -106l-166 164q-100 -68 -229 -68q-132 0 -224 61l-159 -157l-101 106l160 160q-55 91 -55 219q0 126 63 223l-168 168l101 107l170 -168q103 70 233 70q123 0 215 -60l160 158zM381 610 q0 -119 54 -185.5t161 -66.5t161 66.5t54 185.5t-53 184.5t-162 65.5q-108 0 -161.5 -65.5t-53.5 -184.5z" />
<glyph unicode="&#xa5;" horiz-adv-x="1320" d="M453 737l-295 535l-138 39v112l512 11v-123l-139 -41l273 -553l301 553l-158 41v112l491 11v-123l-126 -37l-306 -537h252v-143h-921v143h254zM1120 461v-144h-352v-153l174 -41v-123h-563v123l174 41v153h-354v144h921z" />
<glyph unicode="&#xa6;" horiz-adv-x="614" d="M215 1567h164v-819h-164v819zM215 297h164v-840h-164v840z" />
<glyph unicode="&#xa7;" horiz-adv-x="1116" d="M801 1208l-49 215q-60 11 -111 11q-92 0 -146.5 -53t-54.5 -132q0 -54 30.5 -102t79.5 -86.5t107.5 -76.5t117.5 -80.5t108 -89.5t79.5 -111.5t30.5 -139.5q0 -112 -43.5 -186t-103.5 -115q57 -86 57 -190q0 -168 -108.5 -273.5t-280.5 -105.5q-77 0 -151.5 15.5 t-110.5 30.5l-35 15l10 328h131l43 -215q45 -10 117 -10q86 0 138.5 53t52.5 131q0 54 -30.5 102t-79.5 86.5t-108 76.5t-118.5 80.5t-108.5 89.5t-79.5 111.5t-30.5 139.5q0 112 43.5 186t103.5 115q-55 83 -55 191q0 168 109.5 273t281.5 105q77 0 151.5 -15.5 t109.5 -30.5l36 -15l-10 -328h-123zM799 532q0 49 -24 92t-69 80.5t-91.5 68t-108.5 72t-103 75.5q-55 -55 -55 -162q0 -49 24.5 -92.5t69.5 -80.5t91.5 -67.5t108.5 -71.5t103 -75q54 59 54 161z" />
<glyph unicode="&#xa8;" horiz-adv-x="1054" d="M205 1434q0 57 32 89.5t80 32.5q53 0 83 -32t30 -90q0 -57 -32.5 -90t-80.5 -33q-53 0 -82.5 32.5t-29.5 90.5zM625 1434q0 57 32 89.5t80 32.5q53 0 83 -32t30 -90q0 -57 -32.5 -90t-80.5 -33q-53 0 -82.5 32.5t-29.5 90.5z" />
<glyph unicode="&#xa9;" horiz-adv-x="1679" d="M92 707q0 159 57 298t155.5 237.5t237.5 155t298 56.5q213 0 383.5 -91.5t267 -257.5t96.5 -378q0 -158 -60 -297.5t-162.5 -238t-244.5 -155t-301 -56.5t-294.5 53.5t-230.5 148.5t-148.5 230.5t-53.5 294.5zM256 717q0 -263 157 -426.5t416 -163.5q261 0 427.5 164.5 t166.5 425.5t-166.5 425.5t-427.5 164.5q-259 0 -416 -163.5t-157 -426.5zM995 848l-28 139q-57 17 -127 17q-98 0 -146.5 -75t-48.5 -216q0 -133 54.5 -197.5t150.5 -64.5q49 0 104 22.5t85 44.5l30 23l55 -95l-14 -14t-38.5 -31t-61 -39t-78 -31t-92.5 -14 q-173 0 -271 98.5t-98 286.5q0 194 102.5 310t280.5 116q57 0 122 -16t102 -32l36 -15l-4 -217h-115z" />
<glyph unicode="&#xaa;" horiz-adv-x="958" d="M139 1188l-10 205q194 61 317 61q132 0 197.5 -57t65.5 -178v-426l116 -29v-92l-223 -10l-33 106l-13 -13t-34.5 -29t-53 -37t-64.5 -29t-74 -13q-111 0 -169.5 59t-58.5 171q0 121 85 174t247 53h111v102q0 50 -34 79.5t-93 29.5q-33 0 -69.5 -5.5t-56.5 -10.5l-20 -5 l-20 -106h-113zM545 993h-99q-96 0 -140 -25.5t-44 -90.5q0 -43 29 -69t78 -26q43 0 87 23t66 46l23 23v119zM825 481v-143h-706v143h706z" />
<glyph unicode="&#xab;" horiz-adv-x="1105" d="M532 236l-122 -82l-287 327v123l287 328l122 -82l-225 -307zM983 236l-123 -82l-297 327v123l297 328l123 -82l-235 -307z" />
<glyph unicode="&#xac;" d="M1147 727v-553h-174v389h-850v164h1024z" />
<glyph unicode="&#xad;" horiz-adv-x="778" d="M655 645v-174h-532v174h532z" />
<glyph unicode="&#xae;" horiz-adv-x="1474" d="M113 922q0 177 81 319.5t223.5 223.5t319.5 81q178 0 320 -75.5t223.5 -214t81.5 -314.5t-86 -319.5t-234 -224.5t-325 -81q-268 0 -436 168t-168 437zM266 932q0 -218 124 -349.5t337 -131.5q215 0 348 133t133 348t-133 348t-348 133q-213 0 -337 -131.5t-124 -349.5z M522 707v475l-82 16v76l308 6q104 0 171.5 -49.5t67.5 -138.5q0 -133 -127 -181l2 -1q2 -2 5 -4.5t7 -6.5t9 -9.5t10.5 -13t12 -18t12.5 -22.5l65 -129l82 -21v-82h-176l-82 174q-33 71 -52.5 89t-60.5 18h-39v-178l82 -21v-82h-297v82zM655 979h72q55 0 89 27t34 75 q0 45 -30 71t-83 26h-82v-199z" />
<glyph unicode="&#xaf;" horiz-adv-x="573" d="M563 1505v-153h-553v153h553z" />
<glyph unicode="&#xb0;" horiz-adv-x="839" d="M102 1198q0 137 89.5 222t228.5 85q140 0 228.5 -80.5t88.5 -216.5q0 -144 -88.5 -230.5t-228.5 -86.5q-141 0 -229.5 82t-88.5 225zM246 1208q0 -93 45 -143.5t129 -50.5t129 50.5t45 143.5q0 83 -47.5 128.5t-126.5 45.5t-126.5 -45.5t-47.5 -128.5z" />
<glyph unicode="&#xb1;" d="M543 778v328h174v-328h430v-160h-430v-331h-174v331h-430v160h430zM1147 160v-160h-1034v160h1034z" />
<glyph unicode="&#xb2;" horiz-adv-x="798" d="M94 1167l-6 224q148 53 277 53q158 0 244.5 -60.5t86.5 -185.5q0 -62 -17 -111t-66.5 -107t-113.5 -113t-182 -148h400v-146h-645v142q40 32 98 79.5t86 70.5t70 58t61 53t45 45t37 44t23 39t16 42t4 42q0 123 -154 123q-33 0 -64.5 -5.5t-47.5 -10.5l-15 -5l-14 -123 h-123z" />
<glyph unicode="&#xb3;" horiz-adv-x="774" d="M80 1178l-8 227q163 39 286 39q146 0 227 -57.5t81 -161.5q0 -84 -50 -135.5t-131 -67.5q77 -8 137 -61.5t60 -129.5q0 -134 -97 -201t-259 -67q-68 0 -139 19t-109 38l-37 19l41 123q14 -7 38 -17.5t90.5 -27.5t123.5 -17q80 0 124 34t44 95t-47 90t-146 29h-84v125h94 q173 0 173 131q0 50 -35.5 78.5t-108.5 28.5q-39 0 -74 -4.5t-50 -9.5l-15 -5l-10 -114h-119z" />
<glyph unicode="&#xb4;" horiz-adv-x="501" d="M0 1321l399 317l103 -153l-430 -266z" />
<glyph unicode="&#xb5;" horiz-adv-x="1341" d="M1116 164l174 -41v-113l-338 -10l-20 143q-26 -22 -58 -44t-84 -52t-115 -48.5t-122 -18.5q-61 0 -123 20v-471h-205v1393l-174 41v112l379 10v-739q3 -98 46.5 -145t137.5 -47q49 0 97.5 16.5t83 40t62 47.5t41.5 40l13 17v607l-174 41v112l379 10v-921z" />
<glyph unicode="&#xb6;" horiz-adv-x="1290" d="M983 1270v-1618h-178v1618h-162v-1618h-356v123l184 41v811q-150 15 -249 129t-99 278q0 174 113 287t307 113h262l352 -11v-112z" />
<glyph unicode="&#xb7;" horiz-adv-x="540" d="M133 625q0 69 38.5 108t98.5 39q65 0 101.5 -38t36.5 -109q0 -69 -39 -108.5t-99 -39.5q-65 0 -101 38.5t-36 109.5z" />
<glyph unicode="&#xb8;" horiz-adv-x="892" d="M500 0v-88q83 -14 130.5 -61t47.5 -117q0 -82 -61.5 -132.5t-161.5 -50.5q-59 0 -116.5 14.5t-85.5 28.5l-28 15l49 84q84 -43 158 -43q51 0 82 24t31 64q0 47 -45 73.5t-123 26.5v162h123z" />
<glyph unicode="&#xb9;" horiz-adv-x="716" d="M123 573v134h194v542l-215 -133l-71 123l309 195h152v-727h184v-134h-553z" />
<glyph unicode="&#xba;" horiz-adv-x="1013" d="M502 1454q176 0 272 -102t96 -287q0 -192 -106 -306t-283 -114q-179 0 -279 99.5t-100 289.5q0 191 111 305.5t289 114.5zM492 1311q-97 0 -156.5 -67.5t-59.5 -199.5q0 -126 59.5 -191t156.5 -65q96 0 150 66.5t54 200.5q0 121 -55 188.5t-149 67.5zM850 481v-143h-727 v143h727z" />
<glyph unicode="&#xbb;" horiz-adv-x="1105" d="M123 850l123 82l297 -328v-123l-297 -327l-123 82l235 307zM573 850l123 82l287 -328v-123l-287 -327l-123 82l226 307z" />
<glyph unicode="&#xbc;" horiz-adv-x="1986" d="M1741 860v-541h143v-133h-143v-186h-174v186h-430l-13 121l416 574zM1475 1434l-830 -1434h-184l829 1434h185zM1567 319v367l-264 -367h264zM174 573v134h195v542l-215 -133l-72 123l309 195h152v-727h174v-134h-543z" />
<glyph unicode="&#xbd;" horiz-adv-x="1945" d="M174 573v134h195v542l-215 -133l-72 123l309 195h152v-727h174v-134h-543zM1475 1434l-830 -1434h-184l829 1434h185zM1188 0v141q40 32 98 79.5t86 70.5t70 58t61 53t45 45t37 44t23 39t16 42t4 42q0 123 -153 123q-33 0 -64.5 -5t-46.5 -10l-16 -5l-15 -123h-123 l-6 223q148 53 277 53q158 0 244.5 -60t86.5 -185q0 -62 -17 -111.5t-66 -107t-113 -113.5t-182 -148h399v-145h-645z" />
<glyph unicode="&#xbe;" horiz-adv-x="1972" d="M1726 860v-541h144v-133h-144v-186h-174v186h-430l-12 121l416 574zM1460 1434l-829 -1434h-185l830 1434h184zM1552 319v367l-264 -367h264zM111 1178l-9 227q164 39 287 39q146 0 226.5 -57.5t80.5 -161.5q0 -84 -49.5 -135.5t-130.5 -67.5q77 -8 137 -61.5t60 -129.5 q0 -134 -97.5 -201t-259.5 -67q-68 0 -139 19t-108 38l-37 19l41 123q14 -7 38 -17.5t90.5 -27.5t123.5 -17q80 0 123.5 34t43.5 95t-47 90t-145 29h-84v125h94q172 0 172 131q0 107 -143 107q-39 0 -74 -4.5t-50 -9.5l-15 -5l-11 -114h-118z" />
<glyph unicode="&#xbf;" horiz-adv-x="974" d="M717 983q0 -67 -38.5 -105t-94.5 -38q-62 0 -97.5 37.5t-35.5 105.5q0 67 38.5 105t94.5 38q62 0 97.5 -37.5t35.5 -105.5zM508 627l184 12q19 -140 19 -201q0 -49 -37.5 -99.5t-91 -96t-106.5 -93.5t-90.5 -108t-37.5 -123q0 -84 53.5 -124t161.5 -40q45 0 99 7t85 13 l31 7l33 -154q-135 -47 -258 -47q-68 0 -126.5 9t-114 32t-94 58.5t-62 91.5t-23.5 127q0 72 28 138.5t70 114t91.5 95.5t91.5 85.5t70 82t28 86.5z" />
<glyph unicode="&#xc0;" horiz-adv-x="1484" d="M604 1915l379 -297l-82 -113l-399 256zM178 162l467 1261l205 11l455 -1272l170 -39v-123h-594v123l190 39l-78 227h-532l-80 -227l192 -39v-123h-563v123zM938 553l-207 616l-215 -616h422z" />
<glyph unicode="&#xc1;" horiz-adv-x="1484" d="M717 1505l-78 109l373 297l104 -150zM178 162l467 1261l205 11l455 -1272l170 -39v-123h-594v123l190 39l-78 227h-532l-80 -227l192 -39v-123h-563v123zM938 553l-207 616l-215 -616h422z" />
<glyph unicode="&#xc2;" horiz-adv-x="1486" d="M461 1536l-82 92l297 246l123 10l297 -256l-82 -92l-273 190zM178 162l467 1261l205 11l455 -1272l170 -39v-123h-594v123l190 39l-78 227h-532l-80 -227l192 -39v-123h-563v123zM938 553l-207 616l-215 -616h422z" />
<glyph unicode="&#xc3;" horiz-adv-x="1484" d="M487 1569l-71 61q3 8 9.5 21t28.5 46t46 58.5t62.5 46.5t78.5 21q60 0 124 -23.5t123.5 -47t110.5 -23.5q36 0 69.5 21.5t49.5 43.5l15 21l71 -62q-3 -7 -8.5 -19.5t-26 -44.5t-43 -56t-60 -44t-77.5 -20q-74 0 -186.5 45t-171.5 45q-36 0 -72 -22.5t-54 -44.5zM178 162 l467 1261l205 11l455 -1272l170 -39v-123h-594v123l190 39l-78 227h-532l-80 -227l192 -39v-123h-563v123zM938 553l-207 616l-215 -616h422z" />
<glyph unicode="&#xc4;" horiz-adv-x="1484" d="M178 162l467 1261l205 11l455 -1272l170 -39v-123h-594v123l190 39l-78 227h-532l-80 -227l192 -39v-123h-563v123zM938 553l-207 616l-215 -616h422zM440 1690q0 56 32.5 89t80.5 33q53 0 83 -32t30 -90q0 -57 -32.5 -90t-80.5 -33q-53 0 -83 32.5t-30 90.5zM860 1690 q0 56 32.5 89t80.5 33q53 0 82.5 -32t29.5 -90q0 -57 -32 -90t-80 -33q-53 0 -83 32.5t-30 90.5z" />
<glyph unicode="&#xc5;" horiz-adv-x="1484" d="M178 162l467 1261q-60 26 -96.5 79t-36.5 126q0 104 71.5 170t164.5 66q94 0 164.5 -61.5t70.5 -164.5q0 -73 -36.5 -128t-94.5 -83l453 -1265l170 -39v-123h-594v123l190 39l-78 227h-532l-80 -227l192 -39v-123h-563v123zM635 1632q0 -61 29.5 -94t83.5 -33 q49 0 80.5 34.5t31.5 94.5q0 61 -29 94t-83 33q-49 0 -81 -34.5t-32 -94.5zM938 553l-207 616l-215 -616h422z" />
<glyph unicode="&#xc6;" horiz-adv-x="1964" d="M983 164v256h-451l-129 -262l160 -35v-123h-553v123l183 41l567 1106l-174 41v112l258 11h977v-349h-133l-52 185h-438v-441h469v-163h-469v-502h469l41 205h133v-369h-1042v123zM983 1270h-31l-338 -686h369v686z" />
<glyph unicode="&#xc7;" horiz-adv-x="1361" d="M1106 1006l-55 233q-109 41 -263 41q-208 0 -319 -150.5t-111 -433.5q0 -266 119.5 -399t321.5 -133q60 0 124.5 17t113 41t88.5 48t61 41l22 17l82 -133q-7 -7 -19.5 -19t-55 -43.5t-88 -57.5t-116 -52.5t-141.5 -36.5v-76q81 -14 127.5 -60t46.5 -122 q0 -78 -65.5 -128.5t-159.5 -50.5q-59 0 -119 16t-90 32l-30 16l53 86q94 -47 176 -47q39 0 65.5 22.5t26.5 59.5q0 46 -44 74t-120 28v146q-292 12 -453 192.5t-161 511.5q0 353 185.5 560.5t500.5 207.5q100 0 215 -25.5t180 -50.5l66 -26l-10 -346h-154z" />
<glyph unicode="&#xc8;" d="M461 1915l379 -297l-82 -113l-400 256zM492 829h471v-163h-471v-502h471l41 205h133v-369h-1035v123l174 41v1106l-174 41v112l390 11h624v-349h-133l-51 185h-440v-441z" />
<glyph unicode="&#xc9;" d="M573 1505l-77 109l372 297l105 -150zM492 829h471v-163h-471v-502h471l41 205h133v-369h-1035v123l174 41v1106l-174 41v112l390 11h624v-349h-133l-51 185h-440v-441z" />
<glyph unicode="&#xca;" d="M358 1536l-82 92l297 246l123 10l297 -256l-82 -92l-272 190zM492 829h471v-163h-471v-502h471l41 205h133v-369h-1035v123l174 41v1106l-174 41v112l390 11h624v-349h-133l-51 185h-440v-441z" />
<glyph unicode="&#xcb;" d="M328 1690q0 57 32 89.5t80 32.5q53 0 83 -32t30 -90q0 -57 -32.5 -90t-80.5 -33q-53 0 -82.5 32.5t-29.5 90.5zM748 1690q0 57 32 89.5t80 32.5q53 0 83 -32t30 -90q0 -57 -32.5 -90t-80.5 -33q-53 0 -82.5 32.5t-29.5 90.5zM492 829h471v-163h-471v-502h471l41 205h133 v-369h-1035v123l174 41v1106l-174 41v112l390 11h624v-349h-133l-51 185h-440v-441z" />
<glyph unicode="&#xcc;" horiz-adv-x="737" d="M154 1915l378 -297l-81 -113l-400 256zM102 0v123l174 41v1106l-174 41v112l564 11v-123l-174 -41v-1106l174 -41v-123h-564z" />
<glyph unicode="&#xcd;" horiz-adv-x="747" d="M276 1505l-77 109l372 297l105 -150zM92 0v123l174 41v1106l-174 41v112l563 11v-123l-174 -41v-1106l174 -41v-123h-563z" />
<glyph unicode="&#xce;" horiz-adv-x="770" d="M123 1536l-82 92l283 246l122 10l283 -256l-82 -92l-258 190zM109 0v123l174 41v1106l-174 41v112l563 11v-123l-174 -41v-1106l174 -41v-123h-563z" />
<glyph unicode="&#xcf;" horiz-adv-x="727" d="M41 1690q0 56 32.5 89t80.5 33q53 0 82.5 -32t29.5 -90q0 -57 -32 -90t-80 -33q-53 0 -83 32.5t-30 90.5zM461 1690q0 57 32 89.5t80 32.5q53 0 83 -32t30 -90q0 -57 -32.5 -90t-80.5 -33q-53 0 -82.5 32.5t-29.5 90.5zM82 0v123l174 41v1106l-174 41v112l563 11v-123 l-174 -41v-1106l174 -41v-123h-563z" />
<glyph unicode="&#xd0;" horiz-adv-x="1511" d="M266 838v432l-174 41v112l389 11h262q303 0 474.5 -181t171.5 -516q0 -338 -184 -537.5t-492 -199.5h-621v123l174 41v512h-174v162h174zM799 838v-162h-320v-512h244q200 0 315 140.5t115 422.5q0 276 -110.5 409.5t-309.5 133.5h-254v-432h320z" />
<glyph unicode="&#xd1;" horiz-adv-x="1617" d="M471 1569l-72 61q3 8 9.5 21t28.5 46t46.5 58.5t63 46.5t78.5 21q60 0 124 -23.5t123.5 -47t110.5 -23.5q36 0 69.5 21.5t48.5 43.5l15 21l72 -62q-3 -7 -8.5 -19.5t-26 -44.5t-43 -56t-60 -44t-77.5 -20q-74 0 -187 45t-172 45q-36 0 -72 -22.5t-54 -44.5zM1372 1270 v-1270h-256l-676 1128v-964l195 -41v-123h-553v123l174 41v1106l-174 41v112l430 11l676 -1145v981l-174 41v112l532 11v-123z" />
<glyph unicode="&#xd2;" horiz-adv-x="1546" d="M584 1915l379 -297l-82 -113l-400 256zM788 1454q298 0 466.5 -192.5t168.5 -524.5q0 -167 -49.5 -308t-138 -240t-214 -154t-273.5 -55q-300 0 -462.5 187.5t-162.5 539.5q0 340 179.5 543.5t485.5 203.5zM778 1280q-204 0 -312 -138.5t-108 -424.5q0 -278 100.5 -420.5 t299.5 -142.5q204 0 317 144t113 429q0 275 -104.5 414t-305.5 139z" />
<glyph unicode="&#xd3;" horiz-adv-x="1546" d="M645 1505l-78 109l373 297l104 -150zM788 1454q298 0 466.5 -192.5t168.5 -524.5q0 -167 -49.5 -308t-138 -240t-214 -154t-273.5 -55q-300 0 -462.5 187.5t-162.5 539.5q0 340 179.5 543.5t485.5 203.5zM778 1280q-204 0 -312 -138.5t-108 -424.5q0 -278 100.5 -420.5 t299.5 -142.5q204 0 317 144t113 429q0 275 -104.5 414t-305.5 139z" />
<glyph unicode="&#xd4;" horiz-adv-x="1546" d="M489 1536l-81 92l297 246l122 10l297 -256l-82 -92l-272 190zM788 1454q298 0 466.5 -192.5t168.5 -524.5q0 -167 -49.5 -308t-138 -240t-214 -154t-273.5 -55q-300 0 -462.5 187.5t-162.5 539.5q0 340 179.5 543.5t485.5 203.5zM778 1280q-204 0 -312 -138.5 t-108 -424.5q0 -278 100.5 -420.5t299.5 -142.5q204 0 317 144t113 429q0 275 -104.5 414t-305.5 139z" />
<glyph unicode="&#xd5;" horiz-adv-x="1546" d="M449 1569l-72 61q3 8 9.5 21t28.5 46t46 58.5t62.5 46.5t78.5 21q60 0 124 -23.5t124 -47t111 -23.5q36 0 69.5 21.5t48.5 43.5l15 21l71 -62q-3 -7 -8.5 -19.5t-26 -44.5t-43 -56t-60 -44t-77.5 -20q-74 0 -186.5 45t-171.5 45q-36 0 -72 -22.5t-54 -44.5zM788 1454 q298 0 466.5 -192.5t168.5 -524.5q0 -167 -49.5 -308t-138 -240t-214 -154t-273.5 -55q-300 0 -462.5 187.5t-162.5 539.5q0 340 179.5 543.5t485.5 203.5zM778 1280q-204 0 -312 -138.5t-108 -424.5q0 -278 100.5 -420.5t299.5 -142.5q204 0 317 144t113 429 q0 275 -104.5 414t-305.5 139z" />
<glyph unicode="&#xd6;" horiz-adv-x="1546" d="M788 1454q298 0 466.5 -192.5t168.5 -524.5q0 -167 -49.5 -308t-138 -240t-214 -154t-273.5 -55q-300 0 -462.5 187.5t-162.5 539.5q0 340 179.5 543.5t485.5 203.5zM778 1280q-204 0 -312 -138.5t-108 -424.5q0 -278 100.5 -420.5t299.5 -142.5q204 0 317 144t113 429 q0 275 -104.5 414t-305.5 139zM451 1690q0 57 32 89.5t80 32.5q53 0 83 -32t30 -90q0 -57 -32.5 -90t-80.5 -33q-53 0 -82.5 32.5t-29.5 90.5zM870 1690q0 56 32.5 89t80.5 33q53 0 83 -32t30 -90q0 -57 -32.5 -90t-80.5 -33q-53 0 -83 32.5t-30 90.5z" />
<glyph unicode="&#xd7;" horiz-adv-x="1228" d="M614 657l377 377l115 -114l-377 -377l377 -377l-115 -115l-377 377l-376 -377l-115 115l377 377l-377 377l115 114z" />
<glyph unicode="&#xd8;" horiz-adv-x="1566" d="M1362 1536l-139 -231q102 -95 156.5 -239.5t54.5 -328.5q0 -223 -85.5 -395.5t-239 -267t-351.5 -94.5q-172 0 -297 61l-154 -256l-133 72l162 268q-203 185 -203 582q0 340 180 543.5t486 203.5q169 0 299 -65l131 219zM453 319l546 908q-89 53 -211 53 q-419 0 -419 -563q0 -254 84 -398zM1110 1118l-549 -911q83 -53 207 -53q204 0 317 144t113 429q0 249 -88 391z" />
<glyph unicode="&#xd9;" horiz-adv-x="1617" d="M584 1915l379 -297l-82 -113l-400 256zM1362 1270v-686q0 -148 -28 -255.5t-92 -188t-174.5 -120.5t-268.5 -40q-292 0 -417.5 140t-125.5 433v717l-174 41v112l584 11v-123l-195 -41v-717q0 -153 36.5 -240.5t108 -123t193.5 -35.5q191 0 264.5 95.5t73.5 334.5v686 l-195 41v112l584 11v-123z" />
<glyph unicode="&#xda;" horiz-adv-x="1617" d="M735 1505l-78 109l373 297l105 -150zM1362 1270v-686q0 -148 -28 -255.5t-92 -188t-174.5 -120.5t-268.5 -40q-292 0 -417.5 140t-125.5 433v717l-174 41v112l584 11v-123l-195 -41v-717q0 -153 36.5 -240.5t108 -123t193.5 -35.5q191 0 264.5 95.5t73.5 334.5v686 l-195 41v112l584 11v-123z" />
<glyph unicode="&#xdb;" horiz-adv-x="1617" d="M532 1536l-81 92l297 246l122 10l297 -256l-82 -92l-272 190zM1362 1270v-686q0 -148 -28 -255.5t-92 -188t-174.5 -120.5t-268.5 -40q-292 0 -417.5 140t-125.5 433v717l-174 41v112l584 11v-123l-195 -41v-717q0 -153 36.5 -240.5t108 -123t193.5 -35.5 q191 0 264.5 95.5t73.5 334.5v686l-195 41v112l584 11v-123z" />
<glyph unicode="&#xdc;" horiz-adv-x="1619" d="M481 1690q0 56 32.5 89t80.5 33q53 0 83 -32t30 -90q0 -57 -32.5 -90t-80.5 -33q-53 0 -83 32.5t-30 90.5zM901 1690q0 56 32.5 89t80.5 33q53 0 82.5 -32t29.5 -90q0 -57 -32 -90t-80 -33q-53 0 -83 32.5t-30 90.5zM471 1270v-717q0 -153 36.5 -240.5t108 -123 t193.5 -35.5q191 0 264.5 95.5t73.5 334.5v686l-195 41v112l584 11v-123l-174 -41v-686q0 -148 -28 -255.5t-92 -188t-174.5 -120.5t-268.5 -40q-292 0 -417.5 140t-125.5 433v717l-174 41v112l584 11v-123z" />
<glyph unicode="&#xdd;" horiz-adv-x="1320" d="M604 1505l-78 109l373 297l105 -150zM553 164v366l-395 742l-138 39v112l512 11v-123l-139 -41l273 -574l301 574l-158 41v112l491 11v-123l-126 -37l-406 -739v-371l174 -41v-123h-563v123z" />
<glyph unicode="&#xde;" horiz-adv-x="1218" d="M471 1157h215q222 0 346.5 -100.5t124.5 -278.5q0 -222 -141 -341.5t-402 -119.5h-143v-153l174 -41v-123h-563v123l174 41v1106l-174 41v112l563 11v-123l-174 -41v-113zM471 481h143q162 0 250 68.5t88 198.5q0 109 -74 177t-202 68h-205v-512z" />
<glyph unicode="&#xdf;" horiz-adv-x="1474" d="M317 1075v113q0 190 120 299.5t321 109.5q143 0 248 -31.5t169 -104t64 -181.5q0 -55 -20 -103.5t-49.5 -81t-64.5 -66t-64.5 -59.5t-49.5 -60t-20 -70q0 -45 26 -80.5t67 -59t91 -45.5t100.5 -48.5t92 -60t68.5 -86.5t28 -122q1 -78 -34.5 -146t-95.5 -114t-136.5 -72 t-157.5 -26q-36 0 -71.5 2.5t-64.5 6.5t-55.5 9t-46.5 9.5t-34.5 8.5t-22.5 6l-8 3v294h133l31 -165q5 -3 15 -7t46 -10t80 -4q92 3 151 44t56 120q-2 45 -28.5 79t-68.5 56.5t-92 43.5t-99.5 48t-90.5 61t-66.5 91.5t-25.5 132.5q0 58 20.5 105.5t51 77.5t66.5 61.5 t66.5 57.5t51 65t20.5 84q0 68 -40.5 111t-96.5 58t-129 15q-109 0 -177.5 -58.5t-68.5 -156.5v-1229h-379v113l174 51v758h-225v133z" />
<glyph unicode="&#xe0;" horiz-adv-x="1157" d="M379 1638l399 -317l-71 -102l-431 266zM164 768l-10 256q25 9 67.5 22.5t148.5 36.5t183 23q187 0 283 -74t96 -244v-624l164 -41v-113l-318 -10l-43 143q-66 -66 -153 -114.5t-183 -48.5q-146 0 -226.5 80.5t-80.5 226.5q0 169 121.5 243t349.5 74h164v164 q0 91 -50.5 137.5t-144.5 46.5q-55 0 -106.5 -7.5t-75.5 -14.5l-24 -8l-29 -154h-133zM727 471h-143q-153 0 -218 -40.5t-65 -133.5q0 -69 40.5 -111.5t109.5 -42.5q43 0 87.5 17t77 41t58.5 48t40 41l13 17v164z" />
<glyph unicode="&#xe1;" horiz-adv-x="1157" d="M328 1321l399 317l102 -153l-430 -266zM164 768l-10 256q25 9 67.5 22.5t148.5 36.5t183 23q187 0 283 -74t96 -244v-624l164 -41v-113l-318 -10l-43 143q-66 -66 -153 -114.5t-183 -48.5q-146 0 -226.5 80.5t-80.5 226.5q0 169 121.5 243t349.5 74h164v164 q0 91 -50.5 137.5t-144.5 46.5q-55 0 -106.5 -7.5t-75.5 -14.5l-24 -8l-29 -154h-133zM727 471h-143q-153 0 -218 -40.5t-65 -133.5q0 -69 40.5 -111.5t109.5 -42.5q43 0 87.5 17t77 41t58.5 48t40 41l13 17v164z" />
<glyph unicode="&#xe2;" horiz-adv-x="1157" d="M246 1229l-82 92l307 276l123 11l307 -287l-82 -92l-282 221zM778 0l-43 143q-66 -66 -153 -114.5t-183 -48.5q-146 0 -226.5 80.5t-80.5 226.5q0 169 121.5 243t349.5 74h164v164q0 91 -50.5 137.5t-144.5 46.5q-55 0 -106.5 -7.5t-75.5 -14.5l-24 -8l-29 -154h-133 l-10 256q25 9 67.5 22.5t148.5 36.5t183 23q187 0 283 -74t96 -244v-624l164 -41v-113zM727 471h-143q-153 0 -218 -40.5t-65 -133.5q0 -69 40.5 -111.5t109.5 -42.5q43 0 87.5 17t77 41t58.5 48t40 41l13 17v164z" />
<glyph unicode="&#xe3;" horiz-adv-x="1157" d="M221 1303l-71 71q3 8 9 21t27 45.5t45 58t63 46t81 20.5q60 0 120 -23t115.5 -46t106.5 -23q34 0 68.5 21.5t52.5 43.5l18 21l72 -72q-3 -8 -8.5 -20.5t-26 -44.5t-44 -57t-62 -45t-80.5 -20q-48 0 -96.5 14.5t-82 32t-78 32t-85.5 14.5q-39 0 -75 -22.5t-52 -44.5z M778 0l-43 143q-66 -66 -153 -114.5t-183 -48.5q-146 0 -226.5 80.5t-80.5 226.5q0 169 121.5 243t349.5 74h164v164q0 91 -50.5 137.5t-144.5 46.5q-55 0 -106.5 -7.5t-75.5 -14.5l-24 -8l-29 -154h-133l-10 256q25 9 67.5 22.5t148.5 36.5t183 23q187 0 283 -74t96 -244 v-624l164 -41v-113zM727 471h-143q-153 0 -218 -40.5t-65 -133.5q0 -69 40.5 -111.5t109.5 -42.5q43 0 87.5 17t77 41t58.5 48t40 41l13 17v164z" />
<glyph unicode="&#xe4;" horiz-adv-x="1157" d="M778 0l-43 143q-66 -66 -153 -114.5t-183 -48.5q-146 0 -226.5 80.5t-80.5 226.5q0 169 121.5 243t349.5 74h164v164q0 91 -50.5 137.5t-144.5 46.5q-55 0 -106.5 -7.5t-75.5 -14.5l-24 -8l-29 -154h-133l-10 256q25 9 67.5 22.5t148.5 36.5t183 23q187 0 283 -74 t96 -244v-624l164 -41v-113zM727 471h-143q-153 0 -218 -40.5t-65 -133.5q0 -69 40.5 -111.5t109.5 -42.5q43 0 87.5 17t77 41t58.5 48t40 41l13 17v164zM215 1434q0 56 32.5 89t80.5 33q53 0 82.5 -32t29.5 -90q0 -57 -32 -90t-80 -33q-53 0 -83 32.5t-30 90.5zM635 1434 q0 56 32.5 89t80.5 33q53 0 82.5 -32t29.5 -90q0 -57 -32 -90t-80 -33q-53 0 -83 32.5t-30 90.5z" />
<glyph unicode="&#xe5;" horiz-adv-x="1157" d="M342 1444q0 104 71.5 169.5t164.5 65.5q94 0 164.5 -61t70.5 -164q0 -104 -71 -169.5t-164 -65.5q-94 0 -165 61t-71 164zM465 1448q0 -61 29.5 -94t83.5 -33q49 0 80.5 34.5t31.5 94.5q0 61 -29 94t-83 33q-49 0 -81 -34.5t-32 -94.5zM778 0l-43 143 q-66 -66 -153 -114.5t-183 -48.5q-146 0 -226.5 80.5t-80.5 226.5q0 169 121.5 243t349.5 74h164v164q0 91 -50.5 137.5t-144.5 46.5q-55 0 -106.5 -7.5t-75.5 -14.5l-24 -8l-29 -154h-133l-10 256q25 9 67.5 22.5t148.5 36.5t183 23q187 0 283 -74t96 -244v-624l164 -41 v-113zM727 471h-143q-153 0 -218 -40.5t-65 -133.5q0 -69 40.5 -111.5t109.5 -42.5q43 0 87.5 17t77 41t58.5 48t40 41l13 17v164z" />
<glyph unicode="&#xe6;" horiz-adv-x="1710" d="M164 768l-10 256q25 9 67.5 22.5t148.5 36.5t183 23q245 0 319 -143q130 143 336 143q430 0 430 -481q0 -23 -2.5 -50t-5.5 -45l-2 -18h-706q0 -168 82 -268.5t215 -100.5q91 0 177 28.5t126 56.5l41 28l71 -106q-8 -7 -22 -18.5t-60 -40.5t-94.5 -51.5t-119.5 -41 t-140 -18.5q-287 0 -403 217q-15 -20 -36 -42.5t-60 -55.5t-81.5 -58t-101 -43t-117.5 -18q-146 0 -226.5 80.5t-80.5 226.5q0 169 121.5 243t349.5 74h164v164q0 91 -50.5 137.5t-144.5 46.5q-55 0 -106.5 -7.5t-75.5 -14.5l-24 -8l-29 -154h-133zM930 666h491 q0 126 -53.5 203t-169.5 77q-118 0 -188.5 -79t-79.5 -201zM727 471h-143q-153 0 -220 -40.5t-67 -133.5q0 -69 42.5 -111.5t111.5 -42.5q43 0 87.5 18t77 43.5t58.5 51t40 43.5l13 18v154z" />
<glyph unicode="&#xe7;" horiz-adv-x="1044" d="M819 748l-31 174q-82 20 -184 20q-149 0 -228 -95t-79 -284q0 -204 84 -312t233 -108q55 0 107.5 12.5t89 30.5t65 36.5t42.5 31.5l14 12l72 -123q-6 -5 -17.5 -14.5t-49 -34t-76 -44.5t-95 -39.5t-111.5 -26.5v-74q83 -15 131 -63t48 -119q0 -78 -63 -127.5t-157 -49.5 q-59 0 -117.5 14.5t-86.5 28.5l-29 15l49 84q92 -43 174 -43q41 0 68.5 22.5t27.5 61.5q0 47 -46 75.5t-122 28.5v146q-221 17 -335.5 163t-114.5 396q0 249 144.5 406t387.5 157q82 0 169 -20.5t133 -41.5l47 -20l-11 -276h-133z" />
<glyph unicode="&#xe8;" horiz-adv-x="1105" d="M379 1638l399 -317l-71 -102l-431 266zM1004 512h-707q0 -168 82 -268.5t215 -100.5q91 0 177 28.5t127 56.5l40 28l72 -106q-8 -7 -22 -18.5t-60.5 -40.5t-94.5 -51.5t-119.5 -41t-140.5 -18.5q-241 0 -366 146.5t-125 405.5q0 163 63 293.5t178 205.5t261 75 q430 0 430 -481q0 -23 -2.5 -50t-5.5 -45zM305 666h492q0 126 -54 203t-170 77q-118 0 -188.5 -79t-79.5 -201z" />
<glyph unicode="&#xe9;" horiz-adv-x="1105" d="M358 1321l400 317l102 -153l-430 -266zM1004 512h-707q0 -168 82 -268.5t215 -100.5q91 0 177 28.5t127 56.5l40 28l72 -106q-8 -7 -22 -18.5t-60.5 -40.5t-94.5 -51.5t-119.5 -41t-140.5 -18.5q-241 0 -366 146.5t-125 405.5q0 163 63 293.5t178 205.5t261 75 q430 0 430 -481q0 -23 -2.5 -50t-5.5 -45zM305 666h492q0 126 -54 203t-170 77q-118 0 -188.5 -79t-79.5 -201z" />
<glyph unicode="&#xea;" horiz-adv-x="1085" d="M268 1229l-82 92l308 276l122 11l308 -287l-82 -92l-283 221zM1004 512h-707q0 -168 82 -268.5t215 -100.5q91 0 177 28.5t127 56.5l40 28l72 -106q-8 -7 -22 -18.5t-60.5 -40.5t-94.5 -51.5t-119.5 -41t-140.5 -18.5q-241 0 -366 146.5t-125 405.5q0 163 63 293.5 t178 205.5t261 75q430 0 430 -481q0 -23 -2.5 -50t-5.5 -45zM305 666h492q0 126 -54 203t-170 77q-118 0 -188.5 -79t-79.5 -201z" />
<glyph unicode="&#xeb;" horiz-adv-x="1085" d="M1004 512h-707q0 -168 82 -268.5t215 -100.5q91 0 177 28.5t127 56.5l40 28l72 -106q-8 -7 -22 -18.5t-60.5 -40.5t-94.5 -51.5t-119.5 -41t-140.5 -18.5q-241 0 -366 146.5t-125 405.5q0 163 63 293.5t178 205.5t261 75q430 0 430 -481q0 -23 -2.5 -50t-5.5 -45z M305 666h492q0 126 -54 203t-170 77q-118 0 -188.5 -79t-79.5 -201zM236 1434q0 57 32 89.5t80 32.5q53 0 83 -32t30 -90q0 -57 -32.5 -90t-80.5 -33q-53 0 -82.5 32.5t-29.5 90.5zM655 1434q0 56 32.5 89t80.5 33q53 0 83 -32t30 -90q0 -57 -32.5 -90t-80.5 -33 q-53 0 -83 32.5t-30 90.5z" />
<glyph unicode="&#xec;" horiz-adv-x="686" d="M133 1638l399 -317l-71 -102l-430 266zM614 113v-113h-532v113l174 51v758l-174 41v112l379 10v-921z" />
<glyph unicode="&#xed;" horiz-adv-x="686" d="M133 1321l399 317l103 -153l-430 -266zM614 113v-113h-532v113l174 51v758l-174 41v112l379 10v-921z" />
<glyph unicode="&#xee;" horiz-adv-x="706" d="M82 1229l-82 92l287 276l123 11l286 -287l-82 -92l-262 221zM625 113v-113h-533v113l174 51v758l-174 41v112l379 10v-921z" />
<glyph unicode="&#xef;" horiz-adv-x="686" d="M31 1434q0 57 32 89.5t80 32.5q53 0 83 -32t30 -90q0 -57 -32.5 -90t-80.5 -33q-53 0 -82.5 32.5t-29.5 90.5zM430 1434q0 56 32.5 89t80.5 33q53 0 82.5 -32t29.5 -90q0 -57 -32 -90t-80 -33q-53 0 -83 32.5t-30 90.5zM614 113v-113h-532v113l174 51v758l-174 41v112 l379 10v-921z" />
<glyph unicode="&#xf0;" horiz-adv-x="1177" d="M954 1489l-192 -105q152 -137 237.5 -347.5t85.5 -493.5q0 -253 -141 -408t-371 -155q-232 0 -361.5 135.5t-129.5 386.5q0 259 135 406t367 147q141 0 252 -86q-74 202 -230 331l-268 -143l-82 113l221 119q-82 46 -201 86l62 129q166 -39 303 -125l229 125zM594 891 q-297 0 -297 -379q0 -174 72 -271.5t215 -97.5q150 0 218 95t68 284q0 179 -64.5 274t-211.5 95z" />
<glyph unicode="&#xf1;" horiz-adv-x="1361" d="M365 1303l-72 71q3 8 9 21t27 45.5t45 58t63 46t81 20.5q60 0 120 -23t115.5 -46t106.5 -23q34 0 68.5 21.5t52.5 43.5l18 21l72 -72q-3 -8 -8.5 -20.5t-26 -44.5t-44 -57t-62 -45t-80.5 -20q-48 0 -96.5 14.5t-82 32t-78 32t-85.5 14.5q-25 0 -48.5 -9.5t-40 -22.5 t-29.5 -26t-19 -23zM420 1085l18 -145q24 21 58 45t85.5 53.5t115 48.5t122.5 19q164 0 246 -97.5t82 -271.5v-573l153 -51v-113h-491v113l133 51v553q0 110 -43 162.5t-141 52.5q-49 0 -97.5 -17t-83 -41t-62 -48t-41.5 -41l-13 -17v-604l133 -51v-113h-512v113l174 51v758 l-174 41v112z" />
<glyph unicode="&#xf2;" horiz-adv-x="1167" d="M399 1638l400 -317l-72 -102l-430 266zM604 1106q227 0 354 -147t127 -396q0 -261 -141 -422t-371 -161q-234 0 -362.5 140t-128.5 412q0 259 145 416.5t377 157.5zM594 942q-152 0 -224.5 -99t-72.5 -300q0 -400 287 -400q150 0 218 102.5t68 307.5q0 389 -276 389z" />
<glyph unicode="&#xf3;" horiz-adv-x="1167" d="M369 1321l399 317l102 -153l-430 -266zM604 1106q227 0 354 -147t127 -396q0 -261 -141 -422t-371 -161q-234 0 -362.5 140t-128.5 412q0 259 145 416.5t377 157.5zM594 942q-152 0 -224.5 -99t-72.5 -300q0 -400 287 -400q150 0 218 102.5t68 307.5q0 389 -276 389z" />
<glyph unicode="&#xf4;" horiz-adv-x="1167" d="M307 1229l-82 92l307 276l123 11l308 -287l-82 -92l-283 221zM604 1106q227 0 354 -147t127 -396q0 -261 -141 -422t-371 -161q-234 0 -362.5 140t-128.5 412q0 259 145 416.5t377 157.5zM594 942q-152 0 -224.5 -99t-72.5 -300q0 -400 287 -400q150 0 218 102.5 t68 307.5q0 389 -276 389z" />
<glyph unicode="&#xf5;" horiz-adv-x="1167" d="M266 1300l-71 72q3 8 9.5 21t28.5 46t46 58.5t62.5 46.5t78.5 21q48 0 97.5 -15t84 -32.5t80 -32.5t86.5 -15q36 0 69.5 21.5t48.5 42.5l15 22l72 -71q-3 -8 -8.5 -20t-26 -44t-43 -56.5t-60 -44.5t-77.5 -20q-60 0 -121.5 23t-118.5 45.5t-108 22.5q-36 0 -72 -22.5 t-54 -45.5zM604 1106q227 0 354 -147t127 -396q0 -261 -141 -422t-371 -161q-234 0 -362.5 140t-128.5 412q0 259 145 416.5t377 157.5zM594 942q-152 0 -224.5 -99t-72.5 -300q0 -400 287 -400q150 0 218 102.5t68 307.5q0 389 -276 389z" />
<glyph unicode="&#xf6;" horiz-adv-x="1167" d="M604 1106q227 0 354 -147t127 -396q0 -261 -141 -422t-371 -161q-234 0 -362.5 140t-128.5 412q0 259 145 416.5t377 157.5zM594 942q-152 0 -224.5 -99t-72.5 -300q0 -400 287 -400q150 0 218 102.5t68 307.5q0 389 -276 389zM256 1434q0 56 32.5 89t80.5 33 q53 0 82.5 -32t29.5 -90q0 -57 -32 -90t-80 -33q-53 0 -83 32.5t-30 90.5zM676 1434q0 57 32 89.5t80 32.5q53 0 83 -32t30 -90q0 -57 -32.5 -90t-80.5 -33q-53 0 -82.5 32.5t-29.5 90.5z" />
<glyph unicode="&#xf7;" horiz-adv-x="1269" d="M502 963q0 67 38 105t95 38q62 0 97.5 -37.5t35.5 -105.5q0 -67 -38.5 -105.5t-94.5 -38.5q-62 0 -97.5 38t-35.5 106zM1167 625v-164h-1065v164h1065zM502 123q0 67 38 105t95 38q62 0 97.5 -37.5t35.5 -105.5q0 -67 -38 -105t-95 -38q-62 0 -97.5 37.5t-35.5 105.5z " />
<glyph unicode="&#xf8;" horiz-adv-x="1187" d="M102 -143l142 237q-152 143 -152 438q0 259 145 416.5t377 157.5q116 0 209 -41l129 215l123 -72l-133 -223q154 -145 154 -422q0 -261 -141 -422t-371 -161q-123 0 -219 38l-140 -233zM354 281l379 632q-60 29 -129 29q-152 0 -224.5 -99t-72.5 -300q0 -168 47 -262z M834 805l-377 -631q60 -31 137 -31q150 0 218.5 102.5t68.5 307.5q0 155 -47 252z" />
<glyph unicode="&#xf9;" horiz-adv-x="1331" d="M461 1638l399 -317l-72 -102l-430 266zM1280 123v-113l-338 -10l-20 143q-35 -30 -83 -62.5t-134 -66.5t-162 -34q-165 0 -246.5 96t-81.5 270v576l-174 41v112l379 10v-718q0 -109 43 -161t141 -52q49 0 97.5 16.5t83 40t62 47.5t41.5 40l13 17v607l-174 41v112l379 10 v-921z" />
<glyph unicode="&#xfa;" horiz-adv-x="1331" d="M440 1321l400 317l102 -153l-430 -266zM1280 123v-113l-338 -10l-20 143q-35 -30 -83 -62.5t-134 -66.5t-162 -34q-165 0 -246.5 96t-81.5 270v576l-174 41v112l379 10v-718q0 -109 43 -161t141 -52q49 0 97.5 16.5t83 40t62 47.5t41.5 40l13 17v607l-174 41v112l379 10 v-921z" />
<glyph unicode="&#xfb;" horiz-adv-x="1331" d="M379 1229l-82 92l307 276l123 11l307 -287l-82 -92l-282 221zM1280 123v-113l-338 -10l-20 143q-35 -30 -83 -62.5t-134 -66.5t-162 -34q-165 0 -246.5 96t-81.5 270v576l-174 41v112l379 10v-718q0 -109 43 -161t141 -52q49 0 97.5 16.5t83 40t62 47.5t41.5 40l13 17 v607l-174 41v112l379 10v-921z" />
<glyph unicode="&#xfc;" horiz-adv-x="1331" d="M317 1434q0 56 32.5 89t80.5 33q53 0 83 -32t30 -90q0 -57 -32.5 -90t-80.5 -33q-53 0 -83 32.5t-30 90.5zM737 1434q0 56 32.5 89t80.5 33q53 0 83 -32t30 -90q0 -57 -32.5 -90t-80.5 -33q-53 0 -83 32.5t-30 90.5zM1280 123v-113l-338 -10l-20 143q-35 -30 -83 -62.5 t-134 -66.5t-162 -34q-165 0 -246.5 96t-81.5 270v576l-174 41v112l379 10v-718q0 -109 43 -161t141 -52q49 0 97.5 16.5t83 40t62 47.5t41.5 40l13 17v607l-174 41v112l379 10v-921z" />
<glyph unicode="&#xfd;" horiz-adv-x="1181" d="M492 1321l399 317l102 -153l-430 -266zM358 942l246 -717l225 707l-143 31v112l485 10v-122l-133 -21l-290 -811q-81 -212 -109 -273q-102 -219 -238 -297q-91 -53 -206 -53q-23 0 -56 3l-55 5l-21 3l19 143h102q100 0 175.5 84.5t150.5 249.5l-367 936l-123 31v112 l482 10v-122z" />
<glyph unicode="&#xfe;" d="M61 -471v113l164 41v1730l-174 41v113l379 10v-594q5 5 15 13.5t42 29.5t65 37t81 29.5t94 13.5q216 0 328 -143.5t112 -389.5q0 -132 -33.5 -239.5t-100.5 -187t-173.5 -123t-245.5 -43.5q-45 0 -91 7t-69 14l-24 7v-325l215 -41v-113h-584zM430 799v-615 q7 -5 21.5 -11.5t70 -18t123.5 -11.5q307 0 307 410q0 177 -66.5 283t-199.5 106q-52 0 -97 -14.5t-73 -36t-48.5 -42.5t-29.5 -35z" />
<glyph unicode="&#xff;" horiz-adv-x="1181" d="M276 1434q0 56 32.5 89t80.5 33q53 0 83 -32t30 -90q0 -57 -32.5 -90t-80.5 -33q-53 0 -83 32.5t-30 90.5zM696 1434q0 56 32.5 89t80.5 33q53 0 83 -32t30 -90q0 -57 -32.5 -90t-80.5 -33q-53 0 -83 32.5t-30 90.5zM20 1075l482 10v-122l-144 -21l246 -717l225 707 l-143 31v112l485 10v-122l-133 -21l-290 -811q-81 -212 -109 -273q-102 -219 -238 -297q-91 -53 -206 -53q-23 0 -56 3l-55 5l-21 3l19 143h102q100 0 175.5 84.5t150.5 249.5l-367 936l-123 31v112z" />
<glyph unicode="&#x100;" horiz-adv-x="1484" d="M1034 1772v-154h-553v154h553zM178 162l467 1261l205 11l455 -1272l170 -39v-123h-594v123l190 39l-78 227h-532l-80 -227l192 -39v-123h-563v123zM938 553l-207 616l-215 -616h422z" />
<glyph unicode="&#x101;" horiz-adv-x="1157" d="M836 1505v-153h-553v153h553zM164 768l-10 256q25 9 67.5 22.5t148.5 36.5t183 23q187 0 283 -74t96 -244v-624l164 -41v-113l-318 -10l-43 143q-66 -66 -153 -114.5t-183 -48.5q-146 0 -226.5 80.5t-80.5 226.5q0 169 121.5 243t349.5 74h164v164q0 91 -50.5 137.5 t-144.5 46.5q-55 0 -106.5 -7.5t-75.5 -14.5l-24 -8l-29 -154h-133zM727 471h-143q-153 0 -218 -40.5t-65 -133.5q0 -69 40.5 -111.5t109.5 -42.5q43 0 87.5 17t77 41t58.5 48t40 41l13 17v164z" />
<glyph unicode="&#x102;" horiz-adv-x="1484" d="M911 1853l123 11q0 -136 -86 -222t-211 -86q-111 0 -193.5 85t-82.5 212l123 11q1 -6 3 -16.5t13.5 -37t28 -47t48 -37t71.5 -16.5q43 0 75.5 14.5t48.5 36t25.5 42.5t11.5 35zM178 162l467 1261l205 11l455 -1272l170 -39v-123h-594v123l190 39l-78 227h-532l-80 -227 l192 -39v-123h-563v123zM938 553l-207 616l-215 -616h422z" />
<glyph unicode="&#x103;" horiz-adv-x="1157" d="M707 1556l122 11q0 -135 -85.5 -221t-211.5 -86q-111 0 -193.5 84.5t-82.5 211.5l123 11q1 -6 3 -16.5t13.5 -37t28 -47t48 -37t71.5 -16.5q31 0 57 8t42.5 20.5t29.5 27.5t19 30.5t10 28t5 20.5zM164 768l-10 256q25 9 67.5 22.5t148.5 36.5t183 23q187 0 283 -74 t96 -244v-624l164 -41v-113l-318 -10l-43 143q-66 -66 -153 -114.5t-183 -48.5q-146 0 -226.5 80.5t-80.5 226.5q0 169 121.5 243t349.5 74h164v164q0 91 -50.5 137.5t-144.5 46.5q-55 0 -106.5 -7.5t-75.5 -14.5l-24 -8l-29 -154h-133zM727 471h-143q-153 0 -218 -40.5 t-65 -133.5q0 -69 40.5 -111.5t109.5 -42.5q43 0 87.5 17t77 41t58.5 48t40 41l13 17v164z" />
<glyph unicode="&#x104;" horiz-adv-x="1484" d="M178 162l467 1261l205 11l457 -1280l168 -33v-121q-58 -13 -115.5 -34t-112 -50.5t-88 -69.5t-33.5 -82q0 -44 26.5 -68t66.5 -24q18 0 41 4t37 8l14 3l20 -97q-82 -41 -164 -41q-88 0 -146 52.5t-58 142.5q0 41 18 79t43 65t59 51.5t57.5 37.5t47.5 23h-307v123l190 39 l-78 227h-532l-80 -227l192 -39v-123h-563v123zM938 553l-207 616l-215 -616h422z" />
<glyph unicode="&#x105;" horiz-adv-x="1167" d="M1096 123v-113q-10 -5 -26.5 -13t-59 -35t-75 -54.5t-59 -67t-26.5 -76.5q0 -44 26 -68t66 -24q18 0 41 4t37 8l14 3l21 -97q-82 -41 -164 -41q-88 0 -146.5 52.5t-58.5 142.5q0 43 18 83.5t42.5 68t56.5 52t54 36.5t40 20l-119 -4l-43 143q-66 -66 -153 -114.5 t-183 -48.5q-146 0 -226.5 80.5t-80.5 226.5q0 169 121.5 243t349.5 74h164v164q0 91 -50.5 137.5t-144.5 46.5q-55 0 -106.5 -7.5t-75.5 -14.5l-24 -8l-29 -154h-133l-10 256q25 9 67.5 22.5t148.5 36.5t183 23q187 0 283 -74t96 -244v-624zM727 471h-143 q-153 0 -218 -40.5t-65 -133.5q0 -69 40.5 -111.5t109.5 -42.5q43 0 87.5 17t77 41t58.5 48t40 41l13 17v164z" />
<glyph unicode="&#x106;" horiz-adv-x="1361" d="M594 1505l-78 109l373 297l104 -150zM1106 1004l-55 235q-109 41 -263 41q-208 0 -319 -150.5t-111 -433.5q0 -266 119.5 -399t321.5 -133q60 0 124.5 17t113 41t88.5 48t61 41l22 17l82 -133q-8 -9 -24 -23.5t-68 -51.5t-107.5 -65.5t-141 -51.5t-171.5 -23 q-311 0 -483 182t-172 524q0 353 185.5 560.5t500.5 207.5q100 0 215 -25.5t180 -50.5l66 -26l-10 -348h-154z" />
<glyph unicode="&#x107;" horiz-adv-x="1044" d="M389 1321l399 317l103 -153l-430 -266zM819 748l-31 174q-82 20 -184 20q-149 0 -228 -95t-79 -284q0 -204 84 -312t233 -108q55 0 107.5 12.5t89 30.5t65 36.5t42.5 31.5l14 12l72 -123q-8 -7 -21.5 -18t-57.5 -39t-89.5 -49.5t-112 -39t-129.5 -17.5q-250 0 -381 149 t-131 414q0 249 144.5 406t387.5 157q82 0 169 -20.5t133 -41.5l47 -20l-11 -276h-133z" />
<glyph unicode="&#x108;" horiz-adv-x="1361" d="M502 1536l-82 92l297 246l123 10l297 -256l-82 -92l-273 190zM1106 1006l-55 233q-109 41 -263 41q-208 0 -319 -150.5t-111 -433.5q0 -266 119.5 -399t321.5 -133q60 0 124.5 17t113 41t88.5 48t61 41l22 17l82 -133q-8 -9 -24 -23.5t-68 -51.5t-107.5 -65.5t-141 -51.5 t-171.5 -23q-311 0 -483 182t-172 524q0 353 185.5 560.5t500.5 207.5q100 0 215 -25.5t180 -50.5l66 -26l-10 -346h-154z" />
<glyph unicode="&#x109;" horiz-adv-x="1044" d="M287 1229l-82 92l307 276l123 11l307 -287l-82 -92l-282 221zM819 748l-31 174q-82 20 -184 20q-149 0 -228 -95t-79 -284q0 -204 84 -312t233 -108q55 0 107.5 12.5t89 30.5t65 36.5t42.5 31.5l14 12l72 -123q-8 -7 -21.5 -18t-57.5 -39t-89.5 -49.5t-112 -39 t-129.5 -17.5q-250 0 -381 149t-131 414q0 249 144.5 406t387.5 157q82 0 169 -20.5t133 -41.5l47 -20l-11 -276h-133z" />
<glyph unicode="&#x10a;" horiz-adv-x="1361" d="M676 1690q0 57 32 89.5t80 32.5q53 0 83 -32t30 -90q0 -57 -32.5 -90t-80.5 -33q-53 0 -82.5 32.5t-29.5 90.5zM1106 1006l-55 233q-109 41 -263 41q-208 0 -319 -150.5t-111 -433.5q0 -266 119.5 -399t321.5 -133q60 0 124.5 17t113 41t88.5 48t61 41l22 17l82 -133 q-8 -9 -24 -23.5t-68 -51.5t-107.5 -65.5t-141 -51.5t-171.5 -23q-311 0 -483 182t-172 524q0 353 185.5 560.5t500.5 207.5q100 0 215 -25.5t180 -50.5l66 -26l-10 -346h-154z" />
<glyph unicode="&#x10b;" horiz-adv-x="1044" d="M492 1434q0 57 32 89.5t80 32.5q53 0 83 -32t30 -90q0 -57 -32.5 -90t-80.5 -33q-53 0 -82.5 32.5t-29.5 90.5zM819 748l-31 174q-82 20 -184 20q-149 0 -228 -95t-79 -284q0 -204 84 -312t233 -108q55 0 107.5 12.5t89 30.5t65 36.5t42.5 31.5l14 12l72 -123 q-8 -7 -21.5 -18t-57.5 -39t-89.5 -49.5t-112 -39t-129.5 -17.5q-250 0 -381 149t-131 414q0 249 144.5 406t387.5 157q82 0 169 -20.5t133 -41.5l47 -20l-11 -276h-133z" />
<glyph unicode="&#x10c;" horiz-adv-x="1361" d="M1022 1884l82 -92l-297 -246l-123 -10l-297 256l82 92l272 -190zM1106 1004l-55 235q-109 41 -263 41q-208 0 -319 -150.5t-111 -433.5q0 -266 119.5 -399t321.5 -133q60 0 124.5 17t113 41t88.5 48t61 41l22 17l82 -133q-8 -9 -24 -23.5t-68 -51.5t-107.5 -65.5 t-141 -51.5t-171.5 -23q-311 0 -483 182t-172 524q0 353 185.5 560.5t500.5 207.5q100 0 215 -25.5t180 -50.5l66 -26l-10 -348h-154z" />
<glyph unicode="&#x10d;" horiz-adv-x="1044" d="M573 1386l291 222l82 -92l-307 -277l-123 -10l-307 287l82 92zM819 748l-31 174q-82 20 -184 20q-149 0 -228 -95t-79 -284q0 -204 84 -312t233 -108q55 0 107.5 12.5t89 30.5t65 36.5t42.5 31.5l14 12l72 -123q-8 -7 -21.5 -18t-57.5 -39t-89.5 -49.5t-112 -39 t-129.5 -17.5q-250 0 -381 149t-131 414q0 249 144.5 406t387.5 157q82 0 169 -20.5t133 -41.5l47 -20l-11 -276h-133z" />
<glyph unicode="&#x10e;" horiz-adv-x="1495" d="M1030 1884l82 -92l-297 -246l-123 -10l-297 256l82 92l273 -190zM266 164v1106l-174 41v112l389 11h256q303 0 474 -181t171 -516q0 -338 -183.5 -537.5t-491.5 -199.5h-615v123zM481 164h236q200 0 315 140.5t115 422.5q0 276 -110.5 409.5t-309.5 133.5h-246v-1106z " />
<glyph unicode="&#x10f;" horiz-adv-x="1415" d="M1268 1130l-121 44q75 239 67 413l201 10q0 -89 -38 -202t-109 -265zM1208 123v-113l-348 -10l-16 117q-137 -137 -322 -137q-215 0 -322.5 142.5t-107.5 389.5q0 132 33.5 240t99 187.5t170 123t240.5 43.5q97 0 194 -33v340l-174 41v113l379 10v-1413zM829 297v604 q-8 5 -24 11.5t-71.5 18t-119.5 11.5q-307 0 -307 -410q0 -179 62 -284t194 -105q49 0 94 16t75 38.5t53 45t33 38.5z" />
<glyph unicode="&#x110;" horiz-adv-x="1511" d="M266 840v430l-174 41v112l389 11h262q303 0 474.5 -181t171.5 -516q0 -338 -184 -537.5t-492 -199.5h-621v123l174 41v512h-174v164h174zM799 840v-164h-320v-512h244q200 0 315 140.5t115 422.5q0 276 -110.5 409.5t-309.5 133.5h-254v-430h320z" />
<glyph unicode="&#x111;" horiz-adv-x="1269" d="M1208 1331v-153h-174v-1014l174 -41v-113l-348 -10l-16 117q-137 -137 -322 -137q-215 0 -322.5 142.5t-107.5 389.5q0 132 33.5 240t99 187.5t170 123t240.5 43.5q97 0 194 -33v105h-215v153h215v82l-174 41v113l379 10v-246h174zM829 297v604q-8 5 -24 11.5t-71.5 18 t-119.5 11.5q-307 0 -307 -410q0 -179 62 -284t194 -105q49 0 94 16t75 38.5t53 45t33 38.5z" />
<glyph unicode="&#x112;" d="M963 1772v-154h-553v154h553zM492 829h471v-163h-471v-502h471l41 205h133v-369h-1035v123l174 41v1106l-174 41v112l390 11h624v-349h-133l-51 185h-440v-441z" />
<glyph unicode="&#x113;" horiz-adv-x="1085" d="M862 1505v-153h-553v153h553zM1004 512h-707q0 -168 82 -268.5t215 -100.5q91 0 177 28.5t127 56.5l40 28l72 -106q-8 -7 -22 -18.5t-60.5 -40.5t-94.5 -51.5t-119.5 -41t-140.5 -18.5q-241 0 -366 146.5t-125 405.5q0 163 63 293.5t178 205.5t261 75q430 0 430 -481 q0 -23 -2.5 -50t-5.5 -45zM305 666h492q0 126 -54 203t-170 77q-118 0 -188.5 -79t-79.5 -201z" />
<glyph unicode="&#x114;" d="M840 1853l123 11q0 -136 -86 -222t-211 -86q-111 0 -194 85t-83 212l123 11q1 -6 3 -16.5t13.5 -37t28 -47t48 -37t71.5 -16.5q43 0 76 14.5t49 36t25.5 42.5t11.5 35zM492 829h471v-163h-471v-502h471l41 205h133v-369h-1035v123l174 41v1106l-174 41v112l390 11h624 v-349h-133l-51 185h-440v-441z" />
<glyph unicode="&#x115;" horiz-adv-x="1085" d="M729 1556l123 11q0 -135 -86 -221t-211 -86q-111 0 -193.5 84.5t-82.5 211.5l122 11q1 -6 3 -16.5t13.5 -37t28 -47t48 -37t71.5 -16.5q31 0 57 8t42.5 20.5t29.5 27.5t19 30.5t10 28t5 20.5zM1004 512h-707q0 -168 82 -268.5t215 -100.5q91 0 177 28.5t127 56.5l40 28 l72 -106q-8 -7 -22 -18.5t-60.5 -40.5t-94.5 -51.5t-119.5 -41t-140.5 -18.5q-241 0 -366 146.5t-125 405.5q0 163 63 293.5t178 205.5t261 75q430 0 430 -481q0 -23 -2.5 -50t-5.5 -45zM305 666h492q0 126 -54 203t-170 77q-118 0 -188.5 -79t-79.5 -201z" />
<glyph unicode="&#x116;" d="M532 1690q0 56 32.5 89t80.5 33q53 0 83 -32t30 -90q0 -57 -32.5 -90t-80.5 -33q-53 0 -83 32.5t-30 90.5zM492 829h471v-163h-471v-502h471l41 205h133v-369h-1035v123l174 41v1106l-174 41v112l390 11h624v-349h-133l-51 185h-440v-441z" />
<glyph unicode="&#x117;" horiz-adv-x="1085" d="M481 1434q0 56 32.5 89t80.5 33q53 0 83 -32t30 -90q0 -57 -32.5 -90t-80.5 -33q-53 0 -83 32.5t-30 90.5zM1004 512h-707q0 -168 82 -268.5t215 -100.5q91 0 177 28.5t127 56.5l40 28l72 -106q-8 -7 -22 -18.5t-60.5 -40.5t-94.5 -51.5t-119.5 -41t-140.5 -18.5 q-241 0 -366 146.5t-125 405.5q0 163 63 293.5t178 205.5t261 75q430 0 430 -481q0 -23 -2.5 -50t-5.5 -45zM305 666h492q0 126 -54 203t-170 77q-118 0 -188.5 -79t-79.5 -201z" />
<glyph unicode="&#x118;" d="M1106 -313l20 -97q-81 -41 -163 -41q-88 0 -146.5 52.5t-58.5 142.5q0 46 20 89t48.5 72t57 51.5t48.5 33.5l20 10h-850v123l174 41v1106l-174 41v112l390 11h624v-349h-133l-51 185h-440v-441h471v-163h-471v-502h471l41 205h133v-369q-9 -5 -23.5 -13t-51.5 -34.5 t-65.5 -52.5t-51.5 -64t-23 -72q0 -44 26 -68t66 -24q18 0 41 4t37 8z" />
<glyph unicode="&#x119;" horiz-adv-x="1085" d="M938 256l72 -106q-39 -26 -86.5 -62t-111.5 -92.5t-106 -119t-42 -112.5q0 -44 26 -68t66 -24q18 0 41 4t37 8l14 3l20 -97q-81 -41 -163 -41q-88 0 -146.5 52.5t-58.5 142.5q0 118 139 242q-35 -6 -66 -6q-241 0 -366 146.5t-125 405.5q0 163 63 293.5t178 205.5t261 75 q430 0 430 -481q0 -23 -2.5 -50t-5.5 -45l-2 -18h-707q0 -168 82 -268.5t215 -100.5q91 0 177 28.5t127 56.5zM305 666h492q0 126 -54 203t-170 77q-118 0 -188.5 -79t-79.5 -201z" />
<glyph unicode="&#x11a;" d="M958 1884l82 -92l-297 -246l-122 -10l-297 256l82 92l272 -190zM492 829h471v-163h-471v-502h471l41 205h133v-369h-1035v123l174 41v1106l-174 41v112l390 11h624v-349h-133l-51 185h-440v-441z" />
<glyph unicode="&#x11b;" horiz-adv-x="1105" d="M569 1386l291 222l82 -92l-307 -277l-123 -10l-307 287l82 92zM1004 512h-707q0 -168 82 -268.5t215 -100.5q91 0 177 28.5t127 56.5l40 28l72 -106q-8 -7 -22 -18.5t-60.5 -40.5t-94.5 -51.5t-119.5 -41t-140.5 -18.5q-241 0 -366 146.5t-125 405.5q0 163 63 293.5 t178 205.5t261 75q430 0 430 -481q0 -23 -2.5 -50t-5.5 -45zM305 666h492q0 126 -54 203t-170 77q-118 0 -188.5 -79t-79.5 -201z" />
<glyph unicode="&#x11c;" horiz-adv-x="1536" d="M492 1536l-82 92l297 246l122 10l297 -256l-82 -92l-272 190zM1300 541v-439q-9 -5 -25.5 -13t-70.5 -29t-111 -37.5t-143.5 -29.5t-171.5 -13q-311 0 -483 182t-172 524q0 353 185.5 560.5t500.5 207.5q100 0 215 -25.5t180 -50.5l66 -26l-10 -338h-134l-61 225 q-123 41 -277 41q-208 0 -319 -150.5t-111 -433.5q0 -268 122 -405t329 -137q64 0 135.5 13t111.5 25l40 13v336l-174 41v112l532 11v-123z" />
<glyph unicode="&#x11d;" horiz-adv-x="1198" d="M1147 963l-199 -29q6 -8 15.5 -24t25 -70t15.5 -113q0 -200 -121.5 -299.5t-329.5 -99.5q-41 0 -79.5 4.5t-56.5 9.5l-18 4l-10 -192h318q200 0 304.5 -75.5t104.5 -221.5q0 -173 -135 -271t-397 -98q-89 0 -161.5 9t-135 30.5t-105 55.5t-66.5 85t-24 117q0 52 22 97 t54 73t63.5 48.5t53.5 28.5l22 9q-5 0 -13.5 1.5t-29.5 9t-37 19t-29.5 34.5t-13.5 53t26.5 88t53.5 100l27 43q-6 3 -17 9.5t-38 32t-48 58t-38 91t-17 127.5q0 194 122.5 296.5t328.5 102.5q59 0 110 -10t72 -20l22 -9l359 8v-112zM573 963q-122 0 -178.5 -61t-56.5 -185 q0 -112 57 -179t168 -67q124 0 180 58t56 188q0 118 -56.5 182t-169.5 64zM655 0h-225q-5 -2 -14 -7t-32 -22.5t-40.5 -37t-32 -51.5t-14.5 -66q0 -52 21 -87t65 -53.5t98.5 -26t132.5 -7.5q155 0 231.5 47.5t76.5 146.5q0 94 -66.5 129t-200.5 35zM328 1229l-82 92l307 276 l123 11l307 -287l-82 -92l-283 221z" />
<glyph unicode="&#x11e;" horiz-adv-x="1536" d="M942 1853l123 11q0 -136 -86 -222t-211 -86q-111 0 -193.5 85t-82.5 212l122 11q1 -6 3 -16.5t13.5 -37t28 -47t48 -37t71.5 -16.5q43 0 76 14.5t49 36t25.5 42.5t11.5 35zM1300 541v-439q-9 -5 -25.5 -13t-70.5 -29t-111 -37.5t-143.5 -29.5t-171.5 -13q-311 0 -483 182 t-172 524q0 353 185.5 560.5t500.5 207.5q100 0 215 -25.5t180 -50.5l66 -26l-10 -338h-134l-61 225q-123 41 -277 41q-208 0 -319 -150.5t-111 -433.5q0 -268 122 -405t329 -137q64 0 135.5 13t111.5 25l40 13v336l-174 41v112l532 11v-123z" />
<glyph unicode="&#x11f;" horiz-adv-x="1198" d="M1147 963l-199 -29q6 -8 15.5 -24t25 -70t15.5 -113q0 -200 -121.5 -299.5t-329.5 -99.5q-41 0 -79.5 4.5t-56.5 9.5l-18 4l-10 -192h318q200 0 304.5 -75.5t104.5 -221.5q0 -173 -135 -271t-397 -98q-89 0 -161.5 9t-135 30.5t-105 55.5t-66.5 85t-24 117q0 52 22 97 t54 73t63.5 48.5t53.5 28.5l22 9q-5 0 -13.5 1.5t-29.5 9t-37 19t-29.5 34.5t-13.5 53t26.5 88t53.5 100l27 43q-6 3 -17 9.5t-38 32t-48 58t-38 91t-17 127.5q0 194 122.5 296.5t328.5 102.5q59 0 110 -10t72 -20l22 -9l359 8v-112zM573 963q-122 0 -178.5 -61t-56.5 -185 q0 -112 57 -179t168 -67q124 0 180 58t56 188q0 118 -56.5 182t-169.5 64zM655 0h-225q-5 -2 -14 -7t-32 -22.5t-40.5 -37t-32 -51.5t-14.5 -66q0 -52 21 -87t65 -53.5t98.5 -26t132.5 -7.5q155 0 231.5 47.5t76.5 146.5q0 94 -66.5 129t-200.5 35zM752 1556l122 11 q0 -136 -85.5 -221.5t-210.5 -85.5q-111 0 -194 84.5t-83 211.5l123 11q1 -6 3 -16.5t13.5 -37t28 -47t48 -37t71.5 -16.5q31 0 57 8t42.5 20.5t29.5 27.5t19 30.5t10 28t5 20.5z" />
<glyph unicode="&#x120;" horiz-adv-x="1536" d="M645 1690q0 56 32.5 89t80.5 33q53 0 82.5 -32t29.5 -90q0 -57 -32 -90t-80 -33q-53 0 -83 32.5t-30 90.5zM1300 541v-439q-9 -5 -25.5 -13t-70.5 -29t-111 -37.5t-143.5 -29.5t-171.5 -13q-311 0 -483 182t-172 524q0 353 185.5 560.5t500.5 207.5q100 0 215 -25.5 t180 -50.5l66 -26l-10 -338h-134l-61 225q-123 41 -277 41q-208 0 -319 -150.5t-111 -433.5q0 -268 122 -405t329 -137q64 0 135.5 13t111.5 25l40 13v336l-174 41v112l532 11v-123z" />
<glyph unicode="&#x121;" horiz-adv-x="1198" d="M1147 963l-199 -29q6 -8 15.5 -24t25 -70t15.5 -113q0 -200 -121.5 -299.5t-329.5 -99.5q-41 0 -79.5 4.5t-56.5 9.5l-18 4l-10 -192h318q200 0 304.5 -75.5t104.5 -221.5q0 -173 -135 -271t-397 -98q-89 0 -161.5 9t-135 30.5t-105 55.5t-66.5 85t-24 117q0 52 22 97 t54 73t63.5 48.5t53.5 28.5l22 9q-5 0 -13.5 1.5t-29.5 9t-37 19t-29.5 34.5t-13.5 53t26.5 88t53.5 100l27 43q-6 3 -17 9.5t-38 32t-48 58t-38 91t-17 127.5q0 194 122.5 296.5t328.5 102.5q59 0 110 -10t72 -20l22 -9l359 8v-112zM573 963q-122 0 -178.5 -61t-56.5 -185 q0 -112 57 -179t168 -67q124 0 180 58t56 188q0 118 -56.5 182t-169.5 64zM655 0h-225q-5 -2 -14 -7t-32 -22.5t-40.5 -37t-32 -51.5t-14.5 -66q0 -52 21 -87t65 -53.5t98.5 -26t132.5 -7.5q155 0 231.5 47.5t76.5 146.5q0 94 -66.5 129t-200.5 35zM465 1434q0 56 32.5 89 t80.5 33q53 0 82.5 -32t29.5 -90q0 -57 -32 -90t-80 -33q-53 0 -83 32.5t-30 90.5z" />
<glyph unicode="&#x122;" horiz-adv-x="1536" d="M1300 541v-439q-9 -5 -25.5 -13t-70.5 -29t-111 -37.5t-143.5 -29.5t-171.5 -13q-311 0 -483 182t-172 524q0 353 185.5 560.5t500.5 207.5q100 0 215 -25.5t180 -50.5l66 -26l-10 -338h-134l-61 225q-123 41 -277 41q-208 0 -319 -150.5t-111 -433.5q0 -268 122 -405 t329 -137q64 0 135.5 13t111.5 25l40 13v336l-174 41v112l532 11v-123zM635 -584l-82 82q11 12 28 30t45.5 57t28.5 57q0 12 -20.5 54.5t-20.5 74.5q0 57 34.5 92t88.5 35q55 0 89 -36.5t34 -97.5q0 -80 -60 -171.5t-165 -176.5z" />
<glyph unicode="&#x123;" horiz-adv-x="1198" d="M1147 963l-199 -29q6 -8 15.5 -24t25 -70t15.5 -113q0 -200 -121.5 -299.5t-329.5 -99.5q-41 0 -79.5 4.5t-56.5 9.5l-18 4l-10 -192h318q200 0 304.5 -75.5t104.5 -221.5q0 -173 -135 -271t-397 -98q-89 0 -161.5 9t-135 30.5t-105 55.5t-66.5 85t-24 117q0 52 22 97 t54 73t63.5 48.5t53.5 28.5l22 9q-5 0 -13.5 1.5t-29.5 9t-37 19t-29.5 34.5t-13.5 53t26.5 88t53.5 100l27 43q-6 3 -17 9.5t-38 32t-48 58t-38 91t-17 127.5q0 194 122.5 296.5t328.5 102.5q59 0 110 -10t72 -20l22 -9l359 8v-112zM573 963q-122 0 -178.5 -61t-56.5 -185 q0 -112 57 -179t168 -67q124 0 180 58t56 188q0 118 -56.5 182t-169.5 64zM655 0h-225q-5 -2 -14 -7t-32 -22.5t-40.5 -37t-32 -51.5t-14.5 -66q0 -52 21 -87t65 -53.5t98.5 -26t132.5 -7.5q155 0 231.5 47.5t76.5 146.5q0 94 -66.5 129t-200.5 35zM549 1180l-78 88 q13 10 31.5 26.5t50 53t31.5 55.5q0 12 -26 50.5t-26 72.5q0 57 35 90t88 33q57 0 90 -33.5t33 -99.5q0 -164 -229 -336z" />
<glyph unicode="&#x124;" horiz-adv-x="1628" d="M537 1536l-82 92l297 246l122 10l297 -256l-81 -92l-273 190zM82 0v123l174 41v1106l-174 41v112l584 11v-123l-195 -41v-451h686v451l-194 41v112l583 11v-123l-174 -41v-1106l174 -41v-123h-583v123l194 41v491h-686v-491l195 -41v-123h-584z" />
<glyph unicode="&#x125;" horiz-adv-x="1331" d="M35 1618l-82 92l283 246l122 10l283 -256l-82 -92l-258 190zM430 1577v-619q65 55 161 101.5t197 46.5q164 0 246 -97.5t82 -271.5v-573l154 -51v-113h-492v113l133 49v555q0 111 -40.5 163t-137.5 52q-49 0 -98 -17t-84.5 -41t-63.5 -48t-43 -41l-14 -17v-604l133 -51 v-113h-512v113l174 51v1249l-174 41v113z" />
<glyph unicode="&#x126;" horiz-adv-x="1648" d="M266 1147v123l-174 41v112l584 11v-123l-195 -41v-123h686v123l-194 41v112l583 11v-123l-174 -41v-123h174v-154h-174v-829l174 -41v-123h-583v123l194 41v491h-686v-491l195 -41v-123h-584v123l174 41v829h-174v154h174zM1167 993h-686v-174h686v174z" />
<glyph unicode="&#x127;" horiz-adv-x="1331" d="M645 1331v-153h-215v-220q65 55 161 101.5t197 46.5q164 0 246 -97.5t82 -271.5v-573l154 -51v-113h-492v113l133 49v555q0 111 -40.5 163t-137.5 52q-49 0 -98 -17t-84.5 -41t-63.5 -48t-43 -41l-14 -17v-604l133 -51v-113h-512v113l174 51v1014h-174v153h174v82 l-174 41v113l379 10v-246h215z" />
<glyph unicode="&#x128;" horiz-adv-x="727" d="M49 1569l-69 61l10.5 21t28.5 46t46.5 58.5t62.5 46.5t77 21q56 0 113.5 -23.5t110 -47t97.5 -23.5q33 0 65.5 21.5t48.5 43.5l17 21l70 -62q-3 -7 -9 -19.5t-26.5 -44.5t-43.5 -56t-60 -44t-76 -20q-70 0 -170 45t-152 45q-35 0 -70 -22.5t-53 -44.5zM80 0v123l174 41 v1106l-174 41v112l563 11v-123l-174 -41v-1106l174 -41v-123h-563z" />
<glyph unicode="&#x129;" horiz-adv-x="684" d="M20 1300l-71 72q3 8 9 21t27 46t44.5 58.5t60.5 46.5t76 21q41 0 84 -15t74 -32.5t72 -32.5t79 -15q35 0 66.5 21.5t46.5 42.5l14 22l72 -71q-3 -8 -8.5 -20t-24.5 -44t-41 -56.5t-58 -44.5t-75 -20q-52 0 -105.5 23t-105 45.5t-98.5 22.5q-22 0 -44.5 -9.5t-38.5 -22.5 t-29 -26.5t-20 -22.5zM614 113v-113h-532v113l174 51v758l-174 41v112l379 10v-921z" />
<glyph unicode="&#x12a;" horiz-adv-x="727" d="M645 1772v-154h-553v154h553zM82 0v123l174 41v1106l-174 41v112l563 11v-123l-174 -41v-1106l174 -41v-123h-563z" />
<glyph unicode="&#x12b;" horiz-adv-x="686" d="M594 1505v-153h-533v153h533zM614 113v-113h-532v113l174 51v758l-174 41v112l379 10v-921z" />
<glyph unicode="&#x12c;" horiz-adv-x="727" d="M532 1853l123 11q0 -136 -86 -222t-211 -86q-111 0 -193.5 85t-82.5 212l123 11q1 -6 3 -16.5t13.5 -37t28 -47t48 -37t71.5 -16.5q43 0 75.5 14.5t48.5 36t25.5 42.5t11.5 35zM82 0v123l174 41v1106l-174 41v112l563 11v-123l-174 -41v-1106l174 -41v-123h-563z" />
<glyph unicode="&#x12d;" horiz-adv-x="675" d="M492 1556l122 11q0 -135 -86 -221t-211 -86q-111 0 -193.5 84.5t-82.5 211.5l123 11q1 -6 3 -16.5t13.5 -37t28 -47t48 -37t71.5 -16.5q31 0 57 8t42.5 20.5t29.5 27.5t19 30.5t10 28t5 20.5zM608 113v-113h-532v113l174 51v758l-174 41v112l379 10v-921z" />
<glyph unicode="&#x12e;" horiz-adv-x="727" d="M645 123v-123q-76 -23 -142.5 -54.5t-120.5 -81t-54 -100.5q0 -44 26 -68t66 -24q18 0 41 4t37 8l14 3l20 -97q-81 -41 -163 -41q-88 0 -146.5 52.5t-58.5 142.5q0 41 18.5 79t44 65t60 51.5t58.5 37t48 23.5h-311v123l174 41v1106l-174 41v112l563 11v-123l-174 -41 v-1106z" />
<glyph unicode="&#x12f;" horiz-adv-x="686" d="M215 1423q0 67 38.5 105.5t94.5 38.5q133 0 133 -144q0 -65 -41.5 -104t-91.5 -39q-62 0 -97.5 37.5t-35.5 105.5zM256 164v758l-174 41v112l379 10v-921l153 -51v-113q-52 -17 -101 -39.5t-98 -52.5t-78.5 -67.5t-29.5 -76.5q0 -44 26 -68t66 -24q18 0 41.5 4t37.5 8 l14 3l20 -97q-82 -41 -164 -41q-88 0 -146.5 52.5t-58.5 142.5q0 150 226 256h-287v113z" />
<glyph unicode="&#x130;" horiz-adv-x="727" d="M252 1690q0 56 32.5 89t80.5 33q53 0 82.5 -32t29.5 -90q0 -57 -32 -90t-80 -33q-53 0 -83 32.5t-30 90.5zM82 0v123l174 41v1106l-174 41v112l563 11v-123l-174 -41v-1106l174 -41v-123h-563z" />
<glyph unicode="&#x131;" horiz-adv-x="686" d="M614 113v-113h-532v113l174 51v758l-174 41v112l379 10v-921z" />
<glyph unicode="&#x132;" horiz-adv-x="1441" d="M92 0v123l174 41v1106l-174 41v112l563 11v-123l-174 -41v-1106l174 -41v-123h-563zM1360 1311l-174 -41v-1178q0 -186 -103 -292.5t-286 -106.5q-23 0 -55.5 2.5t-53.5 4.5l-22 3l18 154h102q97 0 141 49.5t44 144.5v1219l-174 41v112l563 11v-123z" />
<glyph unicode="&#x133;" horiz-adv-x="1247" d="M215 1423q0 67 38.5 105.5t94.5 38.5q133 0 133 -144q0 -65 -41.5 -104t-91.5 -39q-62 0 -97.5 37.5t-35.5 105.5zM827 1423q0 67 38.5 105.5t95.5 38.5q133 0 133 -144q0 -65 -41.5 -104t-91.5 -39q-62 0 -98 37.5t-36 105.5zM614 113v-113h-532v113l174 51v758l-174 41 v112l379 10v-921zM1083 1085v-1177q0 -187 -98 -293.5t-280 -106.5q-23 0 -56 3l-55 5l-21 3l19 143h102q102 0 143.5 53t41.5 152v1055l-174 41v112z" />
<glyph unicode="&#x134;" horiz-adv-x="743" d="M106 1536l-81 92l282 246l123 10l283 -256l-82 -92l-258 190zM653 1311l-174 -41v-1178q0 -186 -103 -292.5t-286 -106.5q-23 0 -55.5 2.5t-54.5 4.5l-21 3l18 154h103q97 0 140.5 49t43.5 145v1219l-174 41v112l563 11v-123z" />
<glyph unicode="&#x135;" horiz-adv-x="591" d="M29 1229l-82 92l286 276l123 11l287 -287l-82 -92l-262 221zM428 1085v-1177q0 -187 -98.5 -293.5t-280.5 -106.5q-23 0 -55.5 3t-53.5 5l-22 3l19 143h102q101 0 142.5 52.5t41.5 152.5v1055l-174 41v112z" />
<glyph unicode="&#x136;" horiz-adv-x="1454" d="M92 0v123l174 41v1106l-174 41v112l584 11v-123l-195 -41v-451h189l354 604l338 11v-123l-203 -41l-311 -518l422 -588l174 -41v-123h-584v123l174 41l-352 491h-201v-491l195 -41v-123h-584zM614 -584l-82 82q12 12 29 30t45.5 57t28.5 57q0 12 -20.5 54.5t-20.5 74.5 q0 57 34.5 92t88.5 35q55 0 89 -36.5t34 -97.5q0 -80 -60.5 -171.5t-165.5 -176.5z" />
<glyph unicode="&#x137;" horiz-adv-x="1187" d="M604 676l154 258l-92 29v112l450 10v-122l-145 -25h-2l-211 -313l264 -461h2l154 -51v-113h-277l-293 522h-178v-358l133 -51v-113h-512v113l174 51v1249l-174 41v113l379 10v-901h174zM522 -584l-82 82q12 12 29 30t45.5 57t28.5 57q0 12 -20.5 54.5t-20.5 74.5 q0 57 34.5 92t88.5 35q55 0 89 -36.5t34 -97.5q0 -80 -60.5 -171.5t-165.5 -176.5z" />
<glyph unicode="&#x138;" horiz-adv-x="1228" d="M594 113v-113h-512v113l174 51v758l-174 41v112l379 10v-419h184l154 268l-92 29v112l450 10v-122l-145 -25h-2l-211 -324l264 -450l156 -51v-113h-277l-293 512h-188v-348z" />
<glyph unicode="&#x139;" horiz-adv-x="1085" d="M276 1505l-77 109l372 297l105 -150zM881 164l41 235h143v-399h-993v123l174 41v1106l-174 41v112l563 11v-123l-174 -41v-1106h420z" />
<glyph unicode="&#x13a;" horiz-adv-x="628" d="M164 1608l-78 108l373 297l104 -149zM618 113v-113h-567v113l174 51v1249l-174 41v113l383 10v-1413z" />
<glyph unicode="&#x13b;" horiz-adv-x="1085" d="M881 164l41 235h143v-399h-993v123l174 41v1106l-174 41v112l563 11v-123l-174 -41v-1106h420zM481 -584l-82 82q12 12 29 30t45.5 57t28.5 57q0 12 -20.5 54.5t-20.5 74.5q0 57 34.5 92t88.5 35q55 0 89 -36.5t34 -97.5q0 -80 -60.5 -171.5t-165.5 -176.5z" />
<glyph unicode="&#x13c;" horiz-adv-x="649" d="M639 113v-113h-588v113l174 51v1249l-174 41v113l383 10v-1413zM215 -584l-82 82q12 12 29 30t45.5 57t28.5 57q0 12 -20.5 54.5t-20.5 74.5q0 57 34 92t88 35q55 0 89 -36.5t34 -97.5q0 -80 -60 -171.5t-165 -176.5z" />
<glyph unicode="&#x13d;" horiz-adv-x="1085" d="M881 164l41 235h143v-399h-993v123l174 41v1106l-174 41v112l563 11v-123l-174 -41v-1106h420zM834 1423l200 11q0 -86 -41.5 -200.5t-122.5 -281.5l-122 41q49 142 69.5 241.5t16.5 188.5z" />
<glyph unicode="&#x13e;" horiz-adv-x="815" d="M668 1130l-121 44q75 239 67 413l201 10q0 -89 -38 -202t-109 -265zM618 113v-113h-567v113l174 51v1249l-174 41v113l383 10v-1413z" />
<glyph unicode="&#x13f;" horiz-adv-x="1085" d="M881 164l41 235h143v-399h-993v123l174 41v1106l-174 41v112l563 11v-123l-174 -41v-1106h420zM625 737q0 70 39 109t98 39q65 0 101 -38.5t36 -109.5q0 -69 -38.5 -108t-98.5 -39q-65 0 -101 38t-36 109z" />
<glyph unicode="&#x140;" horiz-adv-x="866" d="M639 113v-113h-588v113l174 51v1249l-174 41v113l383 10v-1413zM571 645q0 69 39.5 108.5t98.5 39.5q65 0 101 -38.5t36 -109.5q0 -69 -39 -108t-98 -39q-65 0 -101.5 38t-36.5 109z" />
<glyph unicode="&#x141;" horiz-adv-x="1118" d="M788 967l43 -154l-339 -164v-485h419l41 235h144v-399h-994v123l174 41v395l-172 -82l-43 154l215 102v537l-174 41v112l564 11v-123l-174 -41v-447z" />
<glyph unicode="&#x142;" horiz-adv-x="739" d="M688 983l41 -154l-244 -116v-549l205 -51v-113h-588v113l174 51v465l-192 -92l-43 151l235 113v612l-174 41v113l383 10v-690z" />
<glyph unicode="&#x143;" horiz-adv-x="1617" d="M707 1505l-78 109l372 297l105 -150zM440 164l195 -41v-123h-553v123l174 41v1106l-174 41v112l430 11l676 -1145v981l-174 41v112l532 11v-123l-174 -41v-1270h-256l-676 1128v-964z" />
<glyph unicode="&#x144;" horiz-adv-x="1361" d="M461 1321l399 317l103 -153l-431 -266zM420 1085l18 -145q24 21 58 45t85.5 53.5t115 48.5t122.5 19q164 0 246 -97.5t82 -271.5v-573l153 -51v-113h-491v113l133 51v553q0 110 -43 162.5t-141 52.5q-49 0 -97.5 -17t-83 -41t-62 -48t-41.5 -41l-13 -17v-604l133 -51 v-113h-512v113l174 51v758l-174 41v112z" />
<glyph unicode="&#x145;" horiz-adv-x="1617" d="M440 164l195 -41v-123h-553v123l174 41v1106l-174 41v112l430 11l676 -1145v981l-174 41v112l532 11v-123l-174 -41v-1270h-256l-676 1128v-964zM707 -584l-82 82q11 12 28 30t45.5 57t28.5 57q0 12 -20.5 54.5t-20.5 74.5q0 57 34.5 92t88.5 35q55 0 89 -36.5t34 -97.5 q0 -80 -60 -171.5t-165 -176.5z" />
<glyph unicode="&#x146;" horiz-adv-x="1361" d="M420 1085l18 -145q24 21 58 45t85.5 53.5t115 48.5t122.5 19q164 0 246 -97.5t82 -271.5v-573l153 -51v-113h-491v113l133 51v553q0 110 -43 162.5t-141 52.5q-49 0 -97.5 -17t-83 -41t-62 -48t-41.5 -41l-13 -17v-604l133 -51v-113h-512v113l174 51v758l-174 41v112z M573 -584l-81 82q11 12 28 30t45.5 57t28.5 57q0 12 -20.5 54.5t-20.5 74.5q0 57 34.5 92t88.5 35q55 0 89 -36.5t34 -97.5q0 -80 -60.5 -171.5t-165.5 -176.5z" />
<glyph unicode="&#x147;" horiz-adv-x="1617" d="M1096 1884l82 -92l-297 -246l-123 -10l-297 256l82 92l272 -190zM440 164l195 -41v-123h-553v123l174 41v1106l-174 41v112l430 11l676 -1145v981l-174 41v112l532 11v-123l-174 -41v-1270h-256l-676 1128v-964z" />
<glyph unicode="&#x148;" horiz-adv-x="1361" d="M686 1386l291 222l82 -92l-307 -277l-123 -10l-307 287l81 92zM420 1085l18 -145q24 21 58 45t85.5 53.5t115 48.5t122.5 19q164 0 246 -97.5t82 -271.5v-573l153 -51v-113h-491v113l133 51v553q0 110 -43 162.5t-141 52.5q-49 0 -97.5 -17t-83 -41t-62 -48t-41.5 -41 l-13 -17v-604l133 -51v-113h-512v113l174 51v758l-174 41v112z" />
<glyph unicode="&#x149;" horiz-adv-x="1361" d="M47 1180l-78 88q13 10 31.5 26.5t50 53t31.5 55.5q0 12 -25.5 50.5t-25.5 72.5q0 57 35 90t88 33q56 0 89 -33t33 -100q0 -164 -229 -336zM420 1085l18 -145q24 21 58 45t85.5 53.5t115 48.5t122.5 19q164 0 246 -97.5t82 -271.5v-573l153 -51v-113h-491v113l133 51v553 q0 110 -43 162.5t-141 52.5q-49 0 -97.5 -17t-83 -41t-62 -48t-41.5 -41l-13 -17v-604l133 -51v-113h-512v113l174 51v758l-174 41v112z" />
<glyph unicode="&#x14a;" horiz-adv-x="1628" d="M868 -143h103q81 0 123.5 30.5t54.5 92.5l-709 1148v-964l195 -41v-123h-553v123l174 41v1106l-174 41v112l430 11l676 -1145v981l-174 41v112l532 11v-123l-174 -41v-1200q0 -170 -104.5 -273.5t-286.5 -103.5q-23 0 -55.5 2.5t-53.5 4.5l-22 3z" />
<glyph unicode="&#x14b;" horiz-adv-x="1300" d="M942 -133v850q0 110 -43 162.5t-141 52.5q-49 0 -97.5 -17t-83 -41t-62 -48t-41.5 -41l-13 -17v-604l133 -51v-113h-512v113l174 51v758l-174 41v112l338 10l18 -145q24 21 58 45t85.5 53.5t115 48.5t122.5 19q164 0 246 -97.5t82 -271.5v-829q0 -187 -98.5 -293.5 t-280.5 -106.5q-23 0 -55.5 3t-54.5 5l-21 3l18 143h103q101 0 142.5 52.5t41.5 152.5z" />
<glyph unicode="&#x14c;" horiz-adv-x="1546" d="M1059 1772v-154h-553v154h553zM788 1454q298 0 466.5 -192.5t168.5 -524.5q0 -167 -49.5 -308t-138 -240t-214 -154t-273.5 -55q-300 0 -462.5 187.5t-162.5 539.5q0 340 179.5 543.5t485.5 203.5zM778 1280q-204 0 -312 -138.5t-108 -424.5q0 -278 100.5 -420.5 t299.5 -142.5q204 0 317 144t113 429q0 275 -104.5 414t-305.5 139z" />
<glyph unicode="&#x14d;" horiz-adv-x="1167" d="M870 1505v-153h-553v153h553zM604 1106q227 0 354 -147t127 -396q0 -261 -141 -422t-371 -161q-234 0 -362.5 140t-128.5 412q0 259 145 416.5t377 157.5zM594 942q-152 0 -224.5 -99t-72.5 -300q0 -400 287 -400q150 0 218 102.5t68 307.5q0 389 -276 389z" />
<glyph unicode="&#x14e;" horiz-adv-x="1546" d="M940 1853l123 11q0 -136 -86 -222t-211 -86q-111 0 -194 85t-83 212l123 11q1 -6 3 -16.5t13.5 -37t28 -47t48 -37t71.5 -16.5q43 0 76 14.5t49 36t25.5 42.5t11.5 35zM788 1454q298 0 466.5 -192.5t168.5 -524.5q0 -167 -49.5 -308t-138 -240t-214 -154t-273.5 -55 q-300 0 -462.5 187.5t-162.5 539.5q0 340 179.5 543.5t485.5 203.5zM778 1280q-204 0 -312 -138.5t-108 -424.5q0 -278 100.5 -420.5t299.5 -142.5q204 0 317 144t113 429q0 275 -104.5 414t-305.5 139z" />
<glyph unicode="&#x14f;" horiz-adv-x="1167" d="M748 1556l122 11q0 -135 -86 -221t-211 -86q-111 0 -193.5 84.5t-82.5 211.5l123 11q1 -6 3 -16.5t13.5 -37t28 -47t48 -37t71.5 -16.5q31 0 57 8t42.5 20.5t29.5 27.5t19 30.5t10 28t5 20.5zM604 1106q227 0 354 -147t127 -396q0 -261 -141 -422t-371 -161 q-234 0 -362.5 140t-128.5 412q0 259 145 416.5t377 157.5zM594 942q-152 0 -224.5 -99t-72.5 -300q0 -400 287 -400q150 0 218 102.5t68 307.5q0 389 -276 389z" />
<glyph unicode="&#x150;" horiz-adv-x="1546" d="M788 1454q298 0 466.5 -192.5t168.5 -524.5q0 -167 -49.5 -308t-138 -240t-214 -154t-273.5 -55q-300 0 -462.5 187.5t-162.5 539.5q0 340 179.5 543.5t485.5 203.5zM778 1280q-204 0 -312 -138.5t-108 -424.5q0 -278 100.5 -420.5t299.5 -142.5q204 0 317 144t113 429 q0 275 -104.5 414t-305.5 139zM412 1587l266 340l135 -119l-291 -307zM811 1587l266 340l135 -119l-290 -307z" />
<glyph unicode="&#x151;" horiz-adv-x="1167" d="M604 1106q227 0 354 -147t127 -396q0 -261 -141 -422t-371 -161q-234 0 -362.5 140t-128.5 412q0 259 145 416.5t377 157.5zM594 942q-152 0 -224.5 -99t-72.5 -300q0 -400 287 -400q150 0 218 102.5t68 307.5q0 389 -276 389zM279 1290l245 350l135 -118l-290 -308z M657 1290l246 350l135 -118l-290 -308z" />
<glyph unicode="&#x152;" horiz-adv-x="1914" d="M1772 1085h-134l-51 185h-440v-441h471v-163h-471v-502h471l41 205h133v-369h-717q-30 0 -144.5 -5t-182.5 -5q-301 0 -463 183t-162 534q0 339 179 538t486 199q54 0 162 -5t146 -5h676v-349zM932 164v1106q-93 10 -154 10q-204 0 -312 -138.5t-108 -424.5 q0 -278 100.5 -420.5t299.5 -142.5q32 0 75.5 2.5t70.5 5.5z" />
<glyph unicode="&#x153;" horiz-adv-x="1873" d="M1726 256l72 -106q-8 -7 -22 -18.5t-60 -40.5t-94.5 -51.5t-119.5 -41t-140 -18.5q-268 0 -385 210q-139 -210 -404 -210q-234 0 -362.5 140t-128.5 412q0 259 145 416.5t377 157.5q126 0 225.5 -57t161.5 -156q62 101 159 157t222 56q430 0 430 -481q0 -23 -2.5 -50 t-5.5 -45l-2 -18h-707q0 -168 82 -268.5t215 -100.5q91 0 177 28.5t127 56.5zM1094 666h491q0 126 -53.5 203t-169.5 77q-118 0 -188.5 -79t-79.5 -201zM594 942q-152 0 -224.5 -99t-72.5 -300q0 -400 287 -400q297 0 297 410q0 179 -70 284t-217 105z" />
<glyph unicode="&#x154;" horiz-adv-x="1331" d="M492 1505l-78 109l372 297l105 -150zM256 164v1106l-174 41v112l389 11h225q216 0 338.5 -98.5t122.5 -270.5q0 -299 -266 -399q49 -43 123 -185l162 -325l145 -33v-123h-307l-174 379q-72 154 -124 200t-153 46h-92v-461l174 -41v-123h-563v123zM471 778h154 q151 0 234 67t83 189q0 103 -72 169.5t-184 66.5h-215v-492z" />
<glyph unicode="&#x155;" horiz-adv-x="952" d="M256 1321l399 317l103 -153l-430 -266zM420 1085l18 -149q57 63 138 116.5t172 53.5q45 0 91 -8t69 -16l24 -7l-10 -297h-134l-30 154q-175 0 -297 -160v-608l205 -51v-113h-584v113l174 51v758l-174 41v112z" />
<glyph unicode="&#x156;" horiz-adv-x="1331" d="M256 164v1106l-174 41v112l389 11h225q216 0 338.5 -98.5t122.5 -270.5q0 -299 -266 -399q49 -43 123 -185l162 -325l145 -33v-123h-307l-174 379q-72 154 -124 200t-153 46h-92v-461l174 -41v-123h-563v123zM471 778h154q151 0 234 67t83 189q0 103 -72 169.5t-184 66.5 h-215v-492zM625 -584l-82 82q11 12 28 30t45.5 57t28.5 57q0 12 -20.5 54.5t-20.5 74.5q0 57 34.5 92t88.5 35q55 0 89 -36.5t34 -97.5q0 -80 -60 -171.5t-165 -176.5z" />
<glyph unicode="&#x157;" horiz-adv-x="952" d="M420 1085l18 -149q57 63 138 116.5t172 53.5q45 0 91 -8t69 -16l24 -7l-10 -297h-134l-30 154q-175 0 -297 -160v-608l205 -51v-113h-584v113l174 51v758l-174 41v112zM287 -584l-82 82q11 12 28 30t45.5 57t28.5 57q0 12 -20.5 54.5t-20.5 74.5q0 57 34.5 92t88.5 35 q55 0 89 -36.5t34 -97.5q0 -80 -60 -171.5t-165 -176.5z" />
<glyph unicode="&#x158;" horiz-adv-x="1331" d="M901 1884l82 -92l-297 -246l-123 -10l-297 256l82 92l273 -190zM256 164v1106l-174 41v112l389 11h225q216 0 338.5 -98.5t122.5 -270.5q0 -299 -266 -399q49 -43 123 -185l162 -325l145 -33v-123h-307l-174 379q-72 154 -124 200t-153 46h-92v-461l174 -41v-123h-563 v123zM471 778h154q151 0 234 67t83 189q0 103 -72 169.5t-184 66.5h-215v-492z" />
<glyph unicode="&#x159;" horiz-adv-x="952" d="M487 1386l291 222l82 -92l-307 -277l-123 -10l-307 287l82 92zM420 1085l18 -149q57 63 138 116.5t172 53.5q45 0 91 -8t69 -16l24 -7l-10 -297h-134l-30 154q-175 0 -297 -160v-608l205 -51v-113h-584v113l174 51v758l-174 41v112z" />
<glyph unicode="&#x15a;" horiz-adv-x="1222" d="M481 1505l-78 109l373 297l105 -150zM307 420l41 -215q10 -6 29 -14.5t78 -22.5t118 -14q78 0 148 23.5t118 75t48 120.5q0 50 -25.5 89.5t-68 66.5t-98 50t-117 44t-123 45t-117 57.5t-98 75.5t-68 105t-25.5 141q0 104 39.5 184t108 127.5t154 71.5t184.5 24 q87 0 195 -20.5t172 -41.5l65 -20l-10 -348h-133l-70 219q-104 37 -217 37q-131 0 -202 -58t-71 -141q0 -50 25 -89t68 -66t98.5 -50t116.5 -44t122 -44t116.5 -55t98.5 -72t68 -99.5t25 -133.5q0 -112 -43 -199t-117.5 -140.5t-169.5 -81t-205 -27.5q-96 0 -201.5 20 t-163.5 40l-57 21v359h164z" />
<glyph unicode="&#x15b;" horiz-adv-x="960" d="M221 1321l400 317l102 -153l-430 -266zM238 328l22 -176q61 -19 172 -19q232 0 232 162q0 44 -31.5 76.5t-82 52.5t-111.5 39t-122 43.5t-111.5 57.5t-82 89.5t-31.5 132.5q0 154 105 237t270 83q72 0 159.5 -15.5t139.5 -30.5l51 -16l-6 -276h-133l-33 160 q-64 24 -166 24q-182 0 -182 -137q0 -44 31.5 -77t82 -54t111 -41t121.5 -44.5t111.5 -57t82 -86.5t31.5 -125q0 -114 -62 -194.5t-162 -118t-226 -37.5q-84 0 -165 11t-120 23l-39 11v303h144z" />
<glyph unicode="&#x15c;" horiz-adv-x="1222" d="M342 1536l-82 92l297 246l123 10l297 -256l-82 -92l-272 190zM307 420l41 -215q10 -6 29 -14.5t78 -22.5t118 -14q78 0 148 23.5t118 75t48 120.5q0 50 -25.5 89.5t-68 66.5t-98 50t-117 44t-123 45t-117 57.5t-98 75.5t-68 105t-25.5 141q0 104 39.5 184t108 127.5 t154 71.5t184.5 24q87 0 195 -20.5t172 -41.5l65 -20l-10 -348h-133l-70 219q-104 37 -217 37q-131 0 -202 -58t-71 -141q0 -50 25 -89t68 -66t98.5 -50t116.5 -44t122 -44t116.5 -55t98.5 -72t68 -99.5t25 -133.5q0 -112 -43 -199t-117.5 -140.5t-169.5 -81t-205 -27.5 q-96 0 -201.5 20t-163.5 40l-57 21v359h164z" />
<glyph unicode="&#x15d;" horiz-adv-x="960" d="M123 1321l297 287h123l311 -287l-86 -92l-287 225l-286 -225zM236 328l22 -176q63 -19 174 -19q232 0 232 162q0 44 -31.5 76.5t-82 52.5t-111.5 39t-122 43.5t-111.5 57.5t-82 89.5t-31.5 132.5q0 154 105 237t270 83q72 0 159.5 -15.5t139.5 -30.5l51 -16l-6 -276h-133 l-33 160q-64 24 -166 24q-182 0 -182 -137q0 -44 31.5 -77t82 -54t111 -41t121.5 -44.5t111.5 -57t82 -86.5t31.5 -125q0 -114 -62 -194.5t-162 -118t-226 -37.5q-84 0 -165 11t-120 23l-39 11v303h142z" />
<glyph unicode="&#x15e;" horiz-adv-x="1222" d="M307 420l41 -215q10 -6 29 -14.5t78 -22.5t118 -14q78 0 148 23.5t118 75t48 120.5q0 50 -25.5 89.5t-68 66.5t-98 50t-117 44t-123 45t-117 57.5t-98 75.5t-68 105t-25.5 141q0 104 39.5 184t108 127.5t154 71.5t184.5 24q87 0 195 -20.5t172 -41.5l65 -20l-10 -348 h-133l-70 219q-104 37 -217 37q-131 0 -202 -58t-71 -141q0 -50 25 -89t68 -66t98.5 -50t116.5 -44t122 -44t116.5 -55t98.5 -72t68 -99.5t25 -133.5q0 -197 -124.5 -309.5t-322.5 -134.5v-72q83 -14 130.5 -61t47.5 -117q0 -82 -61.5 -132.5t-161.5 -50.5 q-59 0 -116.5 14.5t-85.5 28.5l-27 15l49 84q84 -43 158 -43q51 0 81.5 24t30.5 64q0 47 -45 73.5t-123 26.5v144q-90 4 -187 23.5t-149 37.5l-51 18v359h164z" />
<glyph unicode="&#x15f;" horiz-adv-x="960" d="M236 328l22 -176q63 -19 174 -19q232 0 232 162q0 44 -31.5 76.5t-82 52.5t-111.5 39t-122 43.5t-111.5 57.5t-82 89.5t-31.5 132.5q0 154 105 237t270 83q72 0 159.5 -15.5t139.5 -30.5l51 -16l-6 -276h-133l-33 160q-64 24 -166 24q-182 0 -182 -137q0 -44 31.5 -77 t82 -54t111 -41t121.5 -44.5t111.5 -57t82 -86.5t31.5 -125q0 -102 -49.5 -177.5t-131 -116t-189.5 -52.5v-72q83 -14 130.5 -61t47.5 -117q0 -82 -61.5 -132.5t-161.5 -50.5q-59 0 -116.5 14.5t-85.5 28.5l-28 15l49 84q84 -43 158 -43q51 0 82 24t31 64q0 47 -45 73.5 t-123 26.5v144q-74 3 -144 13.5t-103 20.5l-34 9v303h142z" />
<glyph unicode="&#x160;" horiz-adv-x="1222" d="M883 1884l82 -92l-297 -246l-123 -10l-297 256l82 92l272 -190zM307 420l41 -215q10 -6 29 -14.5t78 -22.5t118 -14q78 0 148 23.5t118 75t48 120.5q0 50 -25.5 89.5t-68 66.5t-98 50t-117 44t-123 45t-117 57.5t-98 75.5t-68 105t-25.5 141q0 104 39.5 184t108 127.5 t154 71.5t184.5 24q87 0 195 -20.5t172 -41.5l65 -20l-10 -348h-133l-70 219q-104 37 -217 37q-131 0 -202 -58t-71 -141q0 -50 25 -89t68 -66t98.5 -50t116.5 -44t122 -44t116.5 -55t98.5 -72t68 -99.5t25 -133.5q0 -112 -43 -199t-117.5 -140.5t-169.5 -81t-205 -27.5 q-96 0 -201.5 20t-163.5 40l-57 21v359h164z" />
<glyph unicode="&#x161;" horiz-adv-x="960" d="M467 1386l291 222l82 -92l-308 -277l-122 -10l-308 287l82 92zM238 328l22 -176q61 -19 172 -19q232 0 232 162q0 44 -31.5 76.5t-82 52.5t-111.5 39t-122 43.5t-111.5 57.5t-82 89.5t-31.5 132.5q0 154 105 237t270 83q72 0 159.5 -15.5t139.5 -30.5l51 -16l-6 -276 h-133l-33 160q-64 24 -166 24q-182 0 -182 -137q0 -44 31.5 -77t82 -54t111 -41t121.5 -44.5t111.5 -57t82 -86.5t31.5 -125q0 -114 -62 -194.5t-162 -118t-226 -37.5q-84 0 -165 11t-120 23l-39 11v303h144z" />
<glyph unicode="&#x162;" horiz-adv-x="1157" d="M1137 1434v-369h-133l-52 205h-266v-1106l205 -41v-123h-270v-88q83 -14 130.5 -61t47.5 -117q0 -82 -62 -132.5t-162 -50.5q-59 0 -116.5 14.5t-84.5 28.5l-28 15l49 84q84 -43 158 -43q51 0 82 24t31 64q0 47 -45 73.5t-123 26.5v162h-232v123l205 41v1106h-266 l-51 -205h-134v369h1117z" />
<glyph unicode="&#x163;" horiz-adv-x="808" d="M748 1075v-153h-297v-658q0 -125 102 -125q67 0 160 51l55 -108q-126 -91 -258 -100v-70q83 -14 130.5 -61t47.5 -117q0 -82 -61.5 -132.5t-161.5 -50.5q-59 0 -116.5 14.5t-84.5 28.5l-28 15l49 84q83 -43 157 -43q51 0 82 24t31 64q0 47 -45 73.5t-123 26.5v158 q-141 53 -141 280v646h-205v133l205 20v258l205 41v-299h297z" />
<glyph unicode="&#x164;" horiz-adv-x="1157" d="M860 1884l82 -92l-297 -246l-123 -10l-297 256l82 92l273 -190zM266 0v123l205 41v1106h-266l-51 -205h-134v369h1117v-369h-133l-52 205h-266v-1106l205 -41v-123h-625z" />
<glyph unicode="&#x165;" horiz-adv-x="808" d="M684 1171l-121 43q76 242 68 414l200 10q0 -89 -38 -202t-109 -265zM748 1075v-153h-297v-658q0 -125 102 -125q67 0 160 51l55 -108q-138 -102 -287 -102q-104 0 -169.5 68.5t-65.5 227.5v646h-205v133l205 20v258l205 41v-299h297z" />
<glyph unicode="&#x166;" horiz-adv-x="1157" d="M471 809v461h-266l-51 -205h-134v369h1117v-369h-133l-52 205h-266v-461h303v-164h-303v-481l205 -41v-123h-625v123l205 41v481h-301v164h301z" />
<glyph unicode="&#x167;" horiz-adv-x="829" d="M758 1075v-153h-297v-226h297v-153h-297v-279q0 -125 102 -125q67 0 160 51l55 -108q-138 -102 -286 -102q-104 0 -170 68.5t-66 227.5v267h-205v153h205v226h-205v133l205 20v258l205 41v-299h297z" />
<glyph unicode="&#x168;" horiz-adv-x="1617" d="M500 1569l-72 61q3 8 9.5 21t28.5 46t46 58.5t62.5 46.5t78.5 21q60 0 124 -23.5t124 -47t111 -23.5q36 0 69.5 21.5t48.5 43.5l15 21l72 -62q-3 -7 -9 -19.5t-26 -44.5t-43 -56t-60.5 -44t-77.5 -20q-74 0 -186.5 45t-171.5 45q-36 0 -72 -22.5t-53 -44.5zM1362 1270 v-686q0 -148 -28 -255.5t-92 -188t-174.5 -120.5t-268.5 -40q-292 0 -417.5 140t-125.5 433v717l-174 41v112l584 11v-123l-195 -41v-717q0 -153 36.5 -240.5t108 -123t193.5 -35.5q191 0 264.5 95.5t73.5 334.5v686l-195 41v112l584 11v-123z" />
<glyph unicode="&#x169;" horiz-adv-x="1331" d="M324 1303l-72 71q3 8 9 21t27 45.5t45 58t63 46t81 20.5q60 0 120 -23t115.5 -46t106.5 -23q34 0 68.5 21.5t52.5 43.5l18 21l72 -72q-3 -8 -8.5 -20.5t-26 -44.5t-44 -57t-62 -45t-80.5 -20q-48 0 -96.5 14.5t-82 32t-78 32t-85.5 14.5q-25 0 -48.5 -9.5t-40 -22.5 t-29.5 -26t-19 -23zM1280 123v-113l-338 -10l-20 143q-35 -30 -83 -62.5t-134 -66.5t-162 -34q-165 0 -246.5 96t-81.5 270v576l-174 41v112l379 10v-718q0 -109 43 -161t141 -52q49 0 97.5 16.5t83 40t62 47.5t41.5 40l13 17v607l-174 41v112l379 10v-921z" />
<glyph unicode="&#x16a;" horiz-adv-x="1617" d="M1096 1772v-154h-553v154h553zM1362 1270v-686q0 -148 -28 -255.5t-92 -188t-174.5 -120.5t-268.5 -40q-292 0 -417.5 140t-125.5 433v717l-174 41v112l584 11v-123l-195 -41v-717q0 -153 36.5 -240.5t108 -123t193.5 -35.5q191 0 264.5 95.5t73.5 334.5v686l-195 41v112 l584 11v-123z" />
<glyph unicode="&#x16b;" horiz-adv-x="1331" d="M934 1505v-153h-553v153h553zM1280 123v-113l-338 -10l-20 143q-35 -30 -83 -62.5t-134 -66.5t-162 -34q-165 0 -246.5 96t-81.5 270v576l-174 41v112l379 10v-718q0 -109 43 -161t141 -52q49 0 97.5 16.5t83 40t62 47.5t41.5 40l13 17v607l-174 41v112l379 10v-921z" />
<glyph unicode="&#x16c;" horiz-adv-x="1617" d="M983 1853l123 11q0 -136 -86 -222t-211 -86q-111 0 -194 85t-83 212l123 11q1 -6 3 -16.5t13.5 -37t28 -47t48 -37t71.5 -16.5q43 0 76 14.5t49 36t25.5 42.5t11.5 35zM1362 1270v-686q0 -148 -28 -255.5t-92 -188t-174.5 -120.5t-268.5 -40q-292 0 -417.5 140 t-125.5 433v717l-174 41v112l584 11v-123l-195 -41v-717q0 -153 36.5 -240.5t108 -123t193.5 -35.5q191 0 264.5 95.5t73.5 334.5v686l-195 41v112l584 11v-123z" />
<glyph unicode="&#x16d;" horiz-adv-x="1331" d="M819 1556l123 11q0 -135 -86 -221t-211 -86q-111 0 -193.5 84.5t-82.5 211.5l123 11q1 -6 3 -16.5t13.5 -37t27.5 -47t47.5 -37t71.5 -16.5q31 0 57 8t42.5 20.5t29.5 27.5t19 30.5t10 28t5 20.5zM1280 123v-113l-338 -10l-20 143q-35 -30 -83 -62.5t-134 -66.5t-162 -34 q-165 0 -246.5 96t-81.5 270v576l-174 41v112l379 10v-718q0 -109 43 -161t141 -52q49 0 97.5 16.5t83 40t62 47.5t41.5 40l13 17v607l-174 41v112l379 10v-921z" />
<glyph unicode="&#x16e;" horiz-adv-x="1617" d="M584 1731q0 104 71 169.5t164 65.5q94 0 165 -61t71 -164q0 -104 -71.5 -170t-164.5 -66q-94 0 -164.5 61.5t-70.5 164.5zM707 1735q0 -61 29 -94t83 -33q49 0 81 34.5t32 94.5q0 61 -29.5 94t-83.5 33q-49 0 -80.5 -34.5t-31.5 -94.5zM1362 1270v-686q0 -148 -28 -255.5 t-92 -188t-174.5 -120.5t-268.5 -40q-292 0 -417.5 140t-125.5 433v717l-174 41v112l584 11v-123l-195 -41v-717q0 -153 36.5 -240.5t108 -123t193.5 -35.5q191 0 264.5 95.5t73.5 334.5v686l-195 41v112l584 11v-123z" />
<glyph unicode="&#x16f;" horiz-adv-x="1331" d="M399 1434q0 104 71.5 169.5t164.5 65.5q94 0 164.5 -61t70.5 -164q0 -104 -71 -170t-164 -66q-94 0 -165 61.5t-71 164.5zM522 1438q0 -61 29.5 -94t83.5 -33q49 0 81 34.5t32 94.5q0 61 -29.5 94t-83.5 33q-49 0 -81 -34.5t-32 -94.5zM1280 123v-113l-338 -10l-20 143 q-35 -30 -83 -62.5t-134 -66.5t-162 -34q-165 0 -246.5 96t-81.5 270v576l-174 41v112l379 10v-718q0 -109 43 -161t141 -52q49 0 97.5 16.5t83 40t62 47.5t41.5 40l13 17v607l-174 41v112l379 10v-921z" />
<glyph unicode="&#x170;" horiz-adv-x="1617" d="M453 1587l266 340l135 -119l-291 -307zM852 1587l266 340l135 -119l-290 -307zM1362 1270v-686q0 -148 -28 -255.5t-92 -188t-174.5 -120.5t-268.5 -40q-292 0 -417.5 140t-125.5 433v717l-174 41v112l584 11v-123l-195 -41v-717q0 -153 36.5 -240.5t108 -123 t193.5 -35.5q191 0 264.5 95.5t73.5 334.5v686l-195 41v112l584 11v-123z" />
<glyph unicode="&#x171;" horiz-adv-x="1331" d="M319 1290l246 350l135 -118l-290 -308zM698 1290l246 350l135 -118l-291 -308zM1280 123v-113l-338 -10l-20 143q-35 -30 -83 -62.5t-134 -66.5t-162 -34q-165 0 -246.5 96t-81.5 270v576l-174 41v112l379 10v-718q0 -109 43 -161t141 -52q49 0 97.5 16.5t83 40t62 47.5 t41.5 40l13 17v607l-174 41v112l379 10v-921z" />
<glyph unicode="&#x172;" horiz-adv-x="1617" d="M1362 1270v-686q0 -220 -65 -357.5t-218 -201.5q-30 -13 -68 -35t-87 -57t-82 -80t-33 -89t26 -68t66 -24q18 0 41 4t37 8l14 3l21 -97q-82 -41 -164 -41q-88 0 -146.5 52.5t-58.5 142.5q0 42 16.5 81.5t43 69t50.5 49.5t50 36q-153 0 -259.5 35.5t-170 109.5t-91.5 178 t-28 250v717l-174 41v112l584 11v-123l-195 -41v-717q0 -153 36.5 -240.5t108 -123t193.5 -35.5q191 0 264.5 95.5t73.5 334.5v686l-195 41v112l584 11v-123z" />
<glyph unicode="&#x173;" horiz-adv-x="1331" d="M1280 123v-113q-10 -5 -26.5 -13t-59 -35t-75 -54.5t-59 -67t-26.5 -76.5q0 -44 26 -68t66 -24q18 0 41.5 4t37.5 8l14 3l20 -97q-82 -41 -164 -41q-88 0 -146.5 52.5t-58.5 142.5q0 43 18 83.5t42.5 68t56.5 52t54 36.5t40 20l-139 -4l-20 143q-35 -30 -83 -62.5 t-134 -66.5t-162 -34q-165 0 -246.5 96t-81.5 270v576l-174 41v112l379 10v-718q0 -109 43 -161t141 -52q49 0 97.5 16.5t83 40t62 47.5t41.5 40l13 17v607l-174 41v112l379 10v-921z" />
<glyph unicode="&#x174;" horiz-adv-x="2119" d="M788 1536l-81 92l297 246l122 10l297 -256l-82 -92l-272 190zM10 1311v112l574 11v-123l-178 -41l219 -928l338 1081l194 11l332 -1115l254 951l-187 41v112l553 11v-123l-161 -41l-361 -1270h-225l-246 942l-59 221l-64 -231l-276 -932h-205l-342 1270z" />
<glyph unicode="&#x175;" horiz-adv-x="1699" d="M512 1321l297 287h123l311 -287l-86 -92l-287 225l-286 -225zM317 942l175 -758l268 891l194 31l254 -922l164 748l-143 31v112l461 10v-122l-119 -21l-250 -942h-236l-194 635l-49 196l-43 -196l-195 -635h-235l-256 932l-103 31v112l461 10v-122z" />
<glyph unicode="&#x176;" horiz-adv-x="1320" d="M401 1536l-82 92l297 246l123 10l297 -256l-82 -92l-272 190zM553 164v366l-395 742l-138 39v112l512 11v-123l-139 -41l273 -574l301 574l-158 41v112l491 11v-123l-126 -37l-406 -739v-371l174 -41v-123h-563v123z" />
<glyph unicode="&#x177;" horiz-adv-x="1181" d="M227 1321l297 287h123l311 -287l-86 -92l-286 225l-287 -225zM358 942l246 -717l225 707l-143 31v112l485 10v-122l-133 -21l-290 -811q-81 -212 -109 -273q-102 -219 -238 -297q-91 -53 -206 -53q-23 0 -56 3l-55 5l-21 3l19 143h102q100 0 175.5 84.5t150.5 249.5 l-367 936l-123 31v112l482 10v-122z" />
<glyph unicode="&#x178;" horiz-adv-x="1320" d="M328 1690q0 57 32 89.5t80 32.5q53 0 83 -32t30 -90q0 -57 -32.5 -90t-80.5 -33q-53 0 -82.5 32.5t-29.5 90.5zM748 1690q0 57 32 89.5t80 32.5q53 0 83 -32t30 -90q0 -57 -32.5 -90t-80.5 -33q-53 0 -82.5 32.5t-29.5 90.5zM553 164v366l-395 742l-138 39v112l512 11 v-123l-139 -41l273 -574l301 574l-158 41v112l491 11v-123l-126 -37l-406 -739v-371l174 -41v-123h-563v123z" />
<glyph unicode="&#x179;" d="M522 1505l-78 109l373 297l105 -150zM1178 1290l-820 -1126h635l41 205h133v-369h-1085v143l819 1127h-573l-52 -205h-133v369h1035v-144z" />
<glyph unicode="&#x17a;" horiz-adv-x="993" d="M328 1321l399 317l102 -153l-430 -266zM322 154h417l29 163h143v-317h-819v154l598 778h-385l-29 -154h-143v307h789v-153z" />
<glyph unicode="&#x17b;" d="M512 1690q0 56 32.5 89t80.5 33q53 0 82.5 -32t29.5 -90q0 -57 -32 -90t-80 -33q-53 0 -83 32.5t-30 90.5zM1178 1290l-820 -1126h635l41 205h133v-369h-1085v143l819 1127h-573l-52 -205h-133v369h1035v-144z" />
<glyph unicode="&#x17c;" horiz-adv-x="993" d="M406 1434q0 57 32 89.5t80 32.5q53 0 83 -32t30 -90q0 -57 -32.5 -90t-80.5 -33q-53 0 -82.5 32.5t-29.5 90.5zM322 154h417l29 163h143v-317h-819v154l598 778h-385l-29 -154h-143v307h789v-153z" />
<glyph unicode="&#x17d;" d="M899 1884l82 -92l-297 -246l-123 -10l-297 256l82 92l272 -190zM1178 1290l-820 -1126h635l41 205h133v-369h-1085v143l819 1127h-573l-52 -205h-133v369h1035v-144z" />
<glyph unicode="&#x17e;" horiz-adv-x="993" d="M553 1386l291 222l82 -92l-308 -277l-122 -10l-308 287l82 92zM322 154h417l29 163h143v-317h-819v154l598 778h-385l-29 -154h-143v307h789v-153z" />
<glyph unicode="&#x17f;" horiz-adv-x="880" d="M317 164v1034q0 187 98.5 293t280.5 106q55 0 105.5 -7.5t84 -17.5t59 -20.5t37.5 -17.5l11 -8v-256h-143l-31 164q-40 10 -112 10q-102 0 -143.5 -53t-41.5 -152v-1075l199 -51v-113h-578v113z" />
<glyph unicode="&#x192;" horiz-adv-x="901" d="M-102 -246h112q95 0 136 48.5t49 146.5l73 819h-176l4 133l187 21l24 276q15 188 117 293.5t283 105.5q27 0 65.5 -3t63.5 -6l24 -3l-10 -151h-143q-95 0 -136 -48.5t-49 -146.5l-24 -317h290l-4 -154h-301l-69 -778q-18 -189 -120.5 -294.5t-283.5 -105.5q-23 0 -56 3 t-55 7l-22 3z" />
<glyph unicode="&#x1fa;" horiz-adv-x="1484" d="M1475 123v-123h-594v123l190 39l-78 227h-532l-80 -227l192 -39v-123h-563v123l168 39l461 1245q-57 26 -92 78t-35 123q0 104 71.5 169.5t164.5 65.5q94 0 164.5 -61t70.5 -164q0 -71 -34 -124.5t-91 -84.5l447 -1247zM748 1741q-49 0 -81 -34.5t-32 -94.5 q0 -61 29.5 -94t83.5 -33q49 0 80.5 34.5t31.5 94.5q0 61 -29 94t-83 33zM938 553l-207 616l-215 -616h422zM575 1843l-57 121l418 227l78 -166z" />
<glyph unicode="&#x1fb;" horiz-adv-x="1157" d="M342 1413q0 104 71.5 170t164.5 66q94 0 164.5 -61.5t70.5 -164.5q0 -104 -71 -169.5t-164 -65.5q-94 0 -165 61t-71 164zM465 1417q0 -61 29.5 -94t83.5 -33q49 0 80.5 34.5t31.5 94.5q0 61 -29 94t-83 33q-49 0 -81 -34.5t-32 -94.5zM164 768l-10 256q25 9 67.5 22.5 t148.5 36.5t183 23q187 0 283 -74t96 -244v-624l164 -41v-113l-318 -10l-43 143q-66 -66 -153 -114.5t-183 -48.5q-146 0 -226.5 80.5t-80.5 226.5q0 169 121.5 243t349.5 74h164v164q0 91 -50.5 137.5t-144.5 46.5q-55 0 -106.5 -7.5t-75.5 -14.5l-24 -8l-29 -154h-133z M727 471h-143q-153 0 -218 -40.5t-65 -133.5q0 -69 40.5 -111.5t109.5 -42.5q43 0 87.5 17t77 41t58.5 48t40 41l13 17v164zM315 1757l426 281l88 -162l-450 -227z" />
<glyph unicode="&#x1fc;" horiz-adv-x="1964" d="M1069 1505l-78 109l373 297l104 -150zM983 164v256h-451l-129 -262l160 -35v-123h-553v123l183 41l567 1106l-174 41v112l258 11h977v-349h-133l-52 185h-438v-441h469v-163h-469v-502h469l41 205h133v-369h-1042v123zM983 1270h-31l-338 -686h369v686z" />
<glyph unicode="&#x1fd;" horiz-adv-x="1710" d="M164 768l-10 256q25 9 67.5 22.5t148.5 36.5t183 23q245 0 319 -143q130 143 336 143q430 0 430 -481q0 -23 -2.5 -50t-5.5 -45l-2 -18h-706q0 -168 82 -268.5t215 -100.5q91 0 177 28.5t126 56.5l41 28l71 -106q-8 -7 -22 -18.5t-60 -40.5t-94.5 -51.5t-119.5 -41 t-140 -18.5q-287 0 -403 217q-15 -20 -36 -42.5t-60 -55.5t-81.5 -58t-101 -43t-117.5 -18q-146 0 -226.5 80.5t-80.5 226.5q0 169 121.5 243t349.5 74h164v164q0 91 -50.5 137.5t-144.5 46.5q-55 0 -106.5 -7.5t-75.5 -14.5l-24 -8l-29 -154h-133zM930 666h491 q0 126 -53.5 203t-169.5 77q-118 0 -188.5 -79t-79.5 -201zM727 471h-143q-153 0 -220 -40.5t-67 -133.5q0 -69 42.5 -111.5t111.5 -42.5q43 0 87.5 18t77 43.5t58.5 51t40 43.5l13 18v154zM686 1321l399 317l103 -153l-430 -266z" />
<glyph unicode="&#x1fe;" horiz-adv-x="1566" d="M1362 1536l-139 -231q102 -95 156.5 -239.5t54.5 -328.5q0 -223 -85.5 -395.5t-239 -267t-351.5 -94.5q-172 0 -297 61l-154 -256l-133 72l162 268q-203 185 -203 582q0 340 180 543.5t486 203.5q169 0 299 -65l131 219zM453 319l546 908q-89 53 -211 53 q-419 0 -419 -563q0 -254 84 -398zM1110 1118l-549 -911q83 -53 207 -53q204 0 317 144t113 429q0 249 -88 391zM645 1505l-78 109l373 297l104 -150z" />
<glyph unicode="&#x1ff;" horiz-adv-x="1187" d="M102 -143l142 237q-152 143 -152 438q0 259 145 416.5t377 157.5q116 0 209 -41l129 215l123 -72l-133 -223q154 -145 154 -422q0 -261 -141 -422t-371 -161q-123 0 -219 38l-140 -233zM354 281l379 632q-60 29 -129 29q-152 0 -224.5 -99t-72.5 -300q0 -168 47 -262z M834 805l-377 -631q60 -31 137 -31q150 0 218.5 102.5t68.5 307.5q0 155 -47 252zM369 1321l399 317l102 -153l-430 -266z" />
<glyph unicode="&#x218;" horiz-adv-x="1222" d="M307 420l41 -215q10 -6 29 -14.5t78 -22.5t118 -14q78 0 148 23.5t118 75t48 120.5q0 50 -25.5 89.5t-68 66.5t-98 50t-117 44t-123 45t-117 57.5t-98 75.5t-68 105t-25.5 141q0 104 39.5 184t108 127.5t154 71.5t184.5 24q87 0 195 -20.5t172 -41.5l65 -20l-10 -348 h-133l-70 219q-104 37 -217 37q-131 0 -202 -58t-71 -141q0 -50 25 -89t68 -66t98.5 -50t116.5 -44t122 -44t116.5 -55t98.5 -72t68 -99.5t25 -133.5q0 -112 -43 -199t-117.5 -140.5t-169.5 -81t-205 -27.5q-96 0 -201.5 20t-163.5 40l-57 21v359h164zM543 -584l-82 82 q11 12 28 30t45.5 57t28.5 57q0 12 -20.5 54.5t-20.5 74.5q0 57 34.5 92t88.5 35q55 0 89 -36.5t34 -97.5q0 -80 -60 -171.5t-165 -176.5z" />
<glyph unicode="&#x219;" horiz-adv-x="960" d="M238 328l22 -176q61 -19 172 -19q232 0 232 162q0 44 -31.5 76.5t-82 52.5t-111.5 39t-122 43.5t-111.5 57.5t-82 89.5t-31.5 132.5q0 154 105 237t270 83q72 0 159.5 -15.5t139.5 -30.5l51 -16l-6 -276h-133l-33 160q-64 24 -166 24q-182 0 -182 -137q0 -44 31.5 -77 t82 -54t111 -41t121.5 -44.5t111.5 -57t82 -86.5t31.5 -125q0 -114 -62 -194.5t-162 -118t-226 -37.5q-84 0 -165 11t-120 23l-39 11v303h144zM350 -584l-82 82q12 12 29 30t45.5 57t28.5 57q0 12 -20.5 54.5t-20.5 74.5q0 57 34.5 92t88.5 35t88 -36.5t34 -97.5 q0 -80 -60 -171.5t-165 -176.5z" />
<glyph unicode="&#x21a;" horiz-adv-x="1157" d="M266 0v123l205 41v1106h-266l-51 -205h-134v369h1117v-369h-133l-52 205h-266v-1106l205 -41v-123h-625zM502 -584l-82 82q11 12 28 30t45.5 57t28.5 57q0 12 -20.5 54.5t-20.5 74.5q0 57 34.5 92t88.5 35q55 0 89 -36.5t34 -97.5q0 -80 -60 -171.5t-165 -176.5z" />
<glyph unicode="&#x21b;" horiz-adv-x="808" d="M748 1075v-153h-297v-658q0 -125 102 -125q67 0 160 51l55 -108q-138 -102 -287 -102q-104 0 -169.5 68.5t-65.5 227.5v646h-205v133l205 20v258l205 41v-299h297zM350 -584l-82 82q12 12 29 30t45.5 57t28.5 57q0 12 -20.5 54.5t-20.5 74.5q0 57 34.5 92t88.5 35 t88 -36.5t34 -97.5q0 -80 -60 -171.5t-165 -176.5z" />
<glyph unicode="&#x237;" horiz-adv-x="581" d="M428 1085v-1177q0 -187 -98.5 -293.5t-280.5 -106.5q-23 0 -55.5 3t-53.5 5l-22 3l19 143h102q101 0 142.5 52.5t41.5 152.5v1055l-174 41v112z" />
<glyph unicode="&#x2c6;" horiz-adv-x="1064" d="M256 1331l-82 92l297 246l123 10l297 -256l-82 -92l-272 191z" />
<glyph unicode="&#x2c7;" horiz-adv-x="737" d="M365 1386l290 222l82 -92l-307 -277l-123 -10l-307 287l82 92z" />
<glyph unicode="&#x2c9;" horiz-adv-x="573" d="M563 1505v-153h-553v153h553z" />
<glyph unicode="&#x2d8;" horiz-adv-x="901" d="M614 1556l123 11q0 -135 -85.5 -221t-211.5 -86q-111 0 -193.5 84.5t-82.5 211.5l123 11q1 -6 3 -16.5t13.5 -37t28 -47t48 -37t71.5 -16.5q43 0 75.5 14.5t48.5 35.5t25.5 42.5t11.5 36.5z" />
<glyph unicode="&#x2d9;" horiz-adv-x="593" d="M184 1434q0 56 32.5 89t80.5 33q53 0 83 -32t30 -90q0 -57 -32.5 -90t-80.5 -33q-53 0 -83 32.5t-30 90.5z" />
<glyph unicode="&#x2da;" horiz-adv-x="798" d="M164 1444q0 104 71 169.5t164 65.5q94 0 165 -61t71 -164q0 -104 -71.5 -169.5t-164.5 -65.5q-94 0 -164.5 61t-70.5 164zM287 1448q0 -61 29 -94t83 -33q49 0 81 34.5t32 94.5q0 61 -29.5 94t-83.5 33q-49 0 -80.5 -34.5t-31.5 -94.5z" />
<glyph unicode="&#x2db;" horiz-adv-x="634" d="M492 -313l20 -97q-82 -41 -164 -41q-88 0 -146.5 52.5t-58.5 142.5q0 49 23.5 94t56.5 75t66 53t57 34l23 10h184q-10 -5 -26.5 -13t-59 -35t-75 -54.5t-59 -67t-26.5 -76.5q0 -44 26 -68t66 -24q18 0 41.5 4t37.5 8z" />
<glyph unicode="&#x2dc;" horiz-adv-x="1157" d="M266 1300l-71 72q3 8 9.5 21t28.5 46t46 58.5t62.5 46.5t78.5 21q48 0 97.5 -15t84 -32.5t80 -32.5t86.5 -15q36 0 69.5 21.5t48.5 42.5l15 22l72 -71q-3 -8 -8.5 -20t-26 -44t-43 -56.5t-60 -44.5t-77.5 -20q-60 0 -121.5 23t-118.5 45.5t-108 22.5q-36 0 -72 -22.5 t-54 -45.5z" />
<glyph unicode="&#x2dd;" horiz-adv-x="1187" d="M268 1290l246 350l135 -118l-291 -308zM647 1290l246 350l135 -118l-291 -308z" />
<glyph unicode="&#x326;" horiz-adv-x="0" d="M143 -584l-82 82q12 12 29 30t45.5 57t28.5 57q0 12 -20.5 54.5t-20.5 74.5q0 57 34.5 92t88.5 35q55 0 89 -36.5t34 -97.5q0 -80 -60.5 -171.5t-165.5 -176.5z" />
<glyph unicode="&#x393;" horiz-adv-x="1116" d="M471 164l205 -41v-123h-594v123l174 41v1106l-174 41v112l389 11h625v-369h-133l-52 205h-440v-1106z" />
<glyph unicode="&#x394;" horiz-adv-x="1363" d="M782 1475l541 -1332v-143h-1282v145l541 1330h200zM1104 164l-430 1079l-430 -1079h860z" />
<glyph unicode="&#x3a0;" horiz-adv-x="1525" d="M1413 174l51 -113q-13 -9 -35 -22.5t-86.5 -36t-123.5 -22.5q-106 0 -166 76.5t-60 240.5v973h-522v-1106l205 -41v-123h-594v123l174 41v1106l-174 41v112l389 11h911v-123l-174 -41v-996q0 -64 24.5 -94t57.5 -30q25 0 56 6t49 12z" />
<glyph unicode="&#x3a9;" horiz-adv-x="1546" d="M133 164h270q-114 99 -187 254.5t-73 329.5q0 324 173.5 515t471.5 191q290 0 452.5 -184t162.5 -502q0 -176 -74.5 -338t-189.5 -266l274 10v-174h-522v133q11 6 26 14.5t45.5 33.5t58 56t59.5 82.5t54.5 111.5t38 145.5t15.5 181.5q0 255 -110 388.5t-300 133.5 q-194 0 -307 -128t-113 -394q0 -98 16 -185t40 -147.5t56 -112.5t61 -83t58 -54t44 -31.5t22 -11.5v-133h-522v164z" />
<glyph unicode="&#x3bc;" horiz-adv-x="1341" d="M1290 123v-113l-338 -10l-20 143q-26 -22 -58 -44t-84 -52t-115 -48.5t-122 -18.5q-61 0 -123 20v-471h-205v1393l-174 41v112l379 10v-739q3 -98 46.5 -145t137.5 -47q49 0 97.5 16.5t83 40t62 47.5t41.5 40l13 17v607l-174 41v112l379 10v-921z" />
<glyph unicode="&#x3c0;" horiz-adv-x="1413" d="M1239 963l-174 -31v-668q0 -125 102 -125q25 0 56 6.5t49 12.5l18 6l51 -103q-13 -9 -35 -22.5t-86.5 -36t-123.5 -22.5q-97 0 -161.5 69t-64.5 227v646h-419v-922h-195v922l-174 41v112l369 10h788v-122z" />
<glyph unicode="&#x400;" d="M461 1915l379 -297l-82 -113l-400 256zM492 829h471v-163h-471v-502h471l41 205h133v-369h-1035v123l174 41v1106l-174 41v112l390 11h624v-349h-133l-51 185h-440v-441z" />
<glyph unicode="&#x401;" d="M328 1690q0 57 32 89.5t80 32.5q53 0 83 -32t30 -90q0 -57 -32.5 -90t-80.5 -33q-53 0 -82.5 32.5t-29.5 90.5zM748 1690q0 57 32 89.5t80 32.5q53 0 83 -32t30 -90q0 -57 -32.5 -90t-80.5 -33q-53 0 -82.5 32.5t-29.5 90.5zM492 829h471v-163h-471v-502h471l41 205h133 v-369h-1035v123l174 41v1106l-174 41v112l390 11h624v-349h-133l-51 185h-440v-441z" />
<glyph unicode="&#x402;" horiz-adv-x="1505" d="M686 1270v-520q41 28 67.5 43.5t80.5 42.5t113 41t120 14q171 0 258.5 -112.5t87.5 -297.5q0 -106 -22.5 -193.5t-68 -155t-121.5 -105t-177 -37.5q-23 0 -56.5 2.5t-55.5 5.5l-23 2l22 164h93q63 0 103 19t59.5 60.5t25.5 87.5t6 120q0 123 -47.5 189.5t-157.5 66.5 q-43 0 -90.5 -15t-84.5 -36t-68 -42t-48 -36l-16 -15v-563h-420v123l205 41v1106h-266l-51 -205h-134v369h1158v-369h-134l-51 205h-307z" />
<glyph unicode="&#x403;" horiz-adv-x="1116" d="M518 1505l-78 109l373 297l105 -150zM471 164l205 -41v-123h-594v123l174 41v1106l-174 41v112l389 11h625v-338h-133l-52 174h-440v-1106z" />
<glyph unicode="&#x404;" horiz-adv-x="1353" d="M1180 301l86 -123q-27 -27 -68 -56t-105.5 -63.5t-153 -56.5t-181.5 -22q-291 0 -463 183.5t-172 522.5q0 356 175.5 562t485.5 206q94 0 205.5 -25.5t176.5 -50.5l65 -26l-10 -328h-154l-43 215q-3 1 -24 7t-32.5 9t-37 8.5t-47.5 8.5t-54 5.5t-65 2.5 q-175 0 -278.5 -118.5t-125.5 -344.5h615v-164h-621q10 -242 127.5 -365.5t296.5 -123.5q71 0 142.5 17t125.5 43t84 44t50 33z" />
<glyph unicode="&#x405;" horiz-adv-x="1222" d="M307 420l41 -215q10 -6 29 -14.5t78 -22.5t118 -14q78 0 148 23.5t118 75t48 120.5q0 50 -25.5 89.5t-68 66.5t-98 50t-117 44t-123 45t-117 57.5t-98 75.5t-68 105t-25.5 141q0 104 39.5 184t108 127.5t154 71.5t184.5 24q87 0 195 -20.5t172 -41.5l65 -20l-10 -348 h-133l-70 219q-104 37 -217 37q-131 0 -202 -58t-71 -141q0 -50 25 -89t68 -66t98.5 -50t116.5 -44t122 -44t116.5 -55t98.5 -72t68 -99.5t25 -133.5q0 -112 -43 -199t-117.5 -140.5t-169.5 -81t-205 -27.5q-96 0 -201.5 20t-163.5 40l-57 21v359h164z" />
<glyph unicode="&#x406;" horiz-adv-x="747" d="M92 0v123l174 41v1106l-174 41v112l563 11v-123l-174 -41v-1106l174 -41v-123h-563z" />
<glyph unicode="&#x407;" horiz-adv-x="727" d="M41 1690q0 56 32.5 89t80.5 33q53 0 82.5 -32t29.5 -90q0 -57 -32 -90t-80 -33q-53 0 -83 32.5t-30 90.5zM461 1690q0 57 32 89.5t80 32.5q53 0 83 -32t30 -90q0 -57 -32.5 -90t-80.5 -33q-53 0 -82.5 32.5t-29.5 90.5zM92 0v123l174 41v1106l-174 41v112l563 11v-123 l-174 -41v-1106l174 -41v-123h-563z" />
<glyph unicode="&#x408;" horiz-adv-x="735" d="M653 1311l-174 -41v-1178q0 -186 -103 -292.5t-286 -106.5q-23 0 -55.5 2.5t-54.5 4.5l-21 3l18 154h103q97 0 140.5 49t43.5 145v1219l-174 41v112l563 11v-123z" />
<glyph unicode="&#x409;" horiz-adv-x="1937" d="M1180 829h188q120 0 212.5 -19.5t165.5 -63t111.5 -121t38.5 -185.5q0 -218 -134.5 -329t-377.5 -111h-624v123l205 41v1106l18 14l-20 -14h-390q-22 -496 -47 -725q-9 -82 -17.5 -141t-22.5 -120.5t-31.5 -103.5t-43.5 -80.5t-59 -61t-78.5 -35.5t-101.5 -13 q-67 0 -162 26l35 215q31 -6 84 -6q102 0 157.5 78.5t75.5 259.5q32 277 48 707l-256 41v123h1230v-123l-204 -41v-441zM1180 164h215q132 0 209 67t77 189q0 256 -327 256h-174v-512z" />
<glyph unicode="&#x40a;" horiz-adv-x="2088" d="M1352 829h188q120 0 212.5 -19.5t165.5 -63t111.5 -121t38.5 -185.5q0 -218 -134.5 -329t-377.5 -111h-614v123l195 41v502h-666v-502l195 -41v-123h-584v123l174 41v1106l-174 41v112l584 11v-123l-195 -41v-441h666v441l-195 41v112l410 11h204v-123l-204 -41v-441z M1352 164h215q132 0 209 67t77 189q0 256 -327 256h-174v-512z" />
<glyph unicode="&#x40b;" horiz-adv-x="1617" d="M1577 113v-113h-522v113l153 49v340q0 215 -188 215q-60 0 -116.5 -17t-94.5 -41t-67 -48t-42 -41l-14 -17v-389l164 -41v-123h-584v123l205 41v1106h-266l-51 -205h-134v369h1158v-369h-134l-51 205h-307v-537q80 68 128 96q125 72 271 72q172 0 255 -97t83 -272v-368z " />
<glyph unicode="&#x40c;" horiz-adv-x="1413" d="M602 1505l-78 109l373 297l104 -150zM92 0v123l174 41v1106l-174 41v112l584 11v-123l-195 -41v-451h189l354 604l338 11v-123l-203 -41l-311 -518l422 -588l174 -41v-123h-584v123l174 41l-352 491h-201v-491l195 -41v-123h-584z" />
<glyph unicode="&#x40d;" horiz-adv-x="1634" d="M891 1505l-399 256l102 154l379 -297zM1378 1270v-1106l174 -41v-123h-583v123l194 41v813l-692 -741v-72l195 -41v-123h-584v123l174 41v1106l-174 41v112l584 11v-123l-195 -41v-819l692 747v72l-194 41v112l583 11v-123z" />
<glyph unicode="&#x40e;" horiz-adv-x="1380" d="M854 1851l225 -10q0 -133 -106.5 -214t-261.5 -81t-260.5 81t-106.5 214l225 10v-139q55 -43 144 -43q86 0 141 43v139zM1372 1434v-123l-164 -41l-346 -840q-94 -229 -205.5 -339.5t-224.5 -110.5q-115 0 -242 53l41 153q106 -32 181 -32q126 0 200 139l-469 977 l-153 41v112l551 11v-123l-174 -41l344 -744l303 744l-185 41v112z" />
<glyph unicode="&#x40f;" horiz-adv-x="1525" d="M1270 1270v-1106l174 -41v-123h-584l-47 -358h-123l-45 358h-563v123l174 41v1106l-174 41v112l584 11v-123l-195 -41v-1106h584v1106l-195 41v112l584 11v-123z" />
<glyph unicode="&#x410;" horiz-adv-x="1484" d="M178 162l467 1261l205 11l455 -1272l170 -39v-123h-594v123l190 39l-78 227h-532l-80 -227l192 -39v-123h-563v123zM938 553l-207 616l-215 -616h422z" />
<glyph unicode="&#x411;" horiz-adv-x="1255" d="M467 799h188q95 0 173 -11.5t145.5 -39t113 -70.5t71.5 -108.5t26 -149.5q0 -213 -130.5 -315.5t-371.5 -104.5h-600v123l174 41v1106l-174 41v112l395 11h604v-369h-133l-51 205h-430v-471zM467 164h215q136 0 211.5 58t75.5 177q0 246 -328 246h-174v-481z" />
<glyph unicode="&#x412;" horiz-adv-x="1290" d="M256 164v1106l-174 41v112l379 11h235q201 0 321 -90.5t120 -268.5q0 -265 -267 -332q159 -36 238.5 -122t79.5 -211q0 -211 -131.5 -310.5t-390.5 -99.5h-584v123zM461 819h153q144 0 226 58.5t82 177.5q0 103 -66 159t-170 56h-225v-451zM461 164h215q146 0 221.5 59.5 t75.5 175.5q0 147 -90 207t-269 60h-153v-502z" />
<glyph unicode="&#x413;" horiz-adv-x="1116" d="M471 164l205 -41v-123h-594v123l174 41v1106l-174 41v112l389 11h625v-369h-133l-52 205h-440v-1106z" />
<glyph unicode="&#x414;" horiz-adv-x="1507" d="M1425 -358h-122l-103 358h-934l-102 -358h-123l12 491q60 14 99.5 29t71.5 41t51 54.5t34.5 79.5t24.5 106.5t20 144.5q44 363 56 682l-226 41v123h1180v-123l-174 -41v-1106l225 -37zM975 1270h-402q-15 -322 -55 -686q-18 -161 -47 -257.5t-86 -162.5h590v1106z" />
<glyph unicode="&#x415;" d="M492 829h471v-163h-471v-502h471l41 205h133v-369h-1035v123l174 41v1106l-174 41v112l390 11h624v-349h-133l-51 185h-440v-441z" />
<glyph unicode="&#x416;" horiz-adv-x="1996" d="M2028 123v-123h-584v123l174 41l-352 491h-170v-491l164 -41v-123h-502v123l143 41v491h-170l-352 -491l174 -41v-123h-584v123l174 41l422 588l-319 518l-203 41v123l338 -11l362 -604h158v451l-174 41v112l563 11v-123l-194 -41v-451h176l362 604l320 11v-123l-203 -41 l-319 -518l421 -588z" />
<glyph unicode="&#x417;" horiz-adv-x="1181" d="M102 1044l-10 328q25 9 69 22.5t165.5 36.5t226.5 23q114 0 203 -20.5t155.5 -62.5t102 -111.5t35.5 -163.5q0 -133 -69 -220.5t-202 -121.5q138 -28 219.5 -120.5t81.5 -203.5q0 -98 -32.5 -176t-87.5 -128.5t-131 -84t-158.5 -47.5t-175.5 -14q-64 0 -126.5 8t-100 16 t-88.5 26t-61 22.5t-48 21.5l55 168q199 -88 377 -88q164 0 258 69t94 197q0 116 -90.5 181t-257.5 65h-199v163h209q155 0 236.5 62t81.5 184q0 93 -77.5 149t-213.5 56q-68 0 -132 -10t-94 -20l-30 -11l-31 -195h-154z" />
<glyph unicode="&#x418;" horiz-adv-x="1634" d="M1378 1270v-1106l174 -41v-123h-583v123l194 41v813l-692 -741v-72l195 -41v-123h-584v123l174 41v1106l-174 41v112l584 11v-123l-195 -41v-819l692 747v72l-194 41v112l583 11v-123z" />
<glyph unicode="&#x419;" horiz-adv-x="1634" d="M971 1862l225 -11q0 -133 -106.5 -214t-262.5 -81q-155 0 -260 81t-106 214l225 11v-140q55 -43 143 -43q87 0 142 43v140zM1378 1270v-1106l174 -41v-123h-583v123l194 41v813l-692 -741v-72l195 -41v-123h-584v123l174 41v1106l-174 41v112l584 11v-123l-195 -41v-819 l692 747v72l-194 41v112l583 11v-123z" />
<glyph unicode="&#x41a;" horiz-adv-x="1413" d="M92 0v123l174 41v1106l-174 41v112l584 11v-123l-195 -41v-451h189l354 604l338 11v-123l-203 -41l-311 -518l422 -588l174 -41v-123h-584v123l174 41l-352 491h-201v-491l195 -41v-123h-584z" />
<glyph unicode="&#x41b;" horiz-adv-x="1433" d="M1178 1270v-1106l174 -41v-123h-594v123l205 41v1106h-400q-22 -496 -47 -725q-9 -82 -17.5 -141t-22.5 -120.5t-31.5 -103.5t-43.5 -80.5t-59 -61t-78.5 -35.5t-101.5 -13q-67 0 -162 26l35 215q31 -6 84 -6q102 0 157.5 78.5t75.5 259.5q30 264 47 707l-256 41v123 h1209v-123z" />
<glyph unicode="&#x41c;" horiz-adv-x="1812" d="M1352 164v1024l-62 -154l-317 -645l-164 -10l-317 665l-52 144v-1024l195 -41v-123h-553v123l174 41v1106l-174 41v112l461 11l370 -820l387 809l431 11v-123l-175 -41v-1106l175 -41v-123h-574v123z" />
<glyph unicode="&#x41d;" horiz-adv-x="1628" d="M82 0v123l174 41v1106l-174 41v112l584 11v-123l-195 -41v-451h686v451l-194 41v112l583 11v-123l-174 -41v-1106l174 -41v-123h-583v123l194 41v491h-686v-491l195 -41v-123h-584z" />
<glyph unicode="&#x41e;" horiz-adv-x="1546" d="M788 1454q298 0 466.5 -192.5t168.5 -524.5q0 -167 -49.5 -308t-138 -240t-214 -154t-273.5 -55q-300 0 -462.5 187.5t-162.5 539.5q0 340 179.5 543.5t485.5 203.5zM778 1280q-204 0 -312 -138.5t-108 -424.5q0 -278 100.5 -420.5t299.5 -142.5q204 0 317 144t113 429 q0 275 -104.5 414t-305.5 139z" />
<glyph unicode="&#x41f;" horiz-adv-x="1587" d="M82 0v123l174 41v1106l-174 41v112l389 11h1034v-123l-174 -41v-1106l174 -41v-123h-583v123l194 41v1106h-645v-1106l195 -41v-123h-584z" />
<glyph unicode="&#x420;" horiz-adv-x="1208" d="M256 164v1106l-174 41v112l389 11h215q227 0 349 -112.5t122 -307.5q0 -235 -144.5 -358.5t-408.5 -123.5h-133v-368l174 -41v-123h-563v123zM471 696h133q167 0 252.5 74t85.5 213q0 127 -69.5 207t-196.5 80h-205v-574z" />
<glyph unicode="&#x421;" horiz-adv-x="1361" d="M1106 1004l-55 235q-109 41 -263 41q-208 0 -319 -150.5t-111 -433.5q0 -266 119.5 -399t321.5 -133q60 0 124.5 17t113 41t88.5 48t61 41l22 17l82 -133q-8 -9 -24 -23.5t-68 -51.5t-107.5 -65.5t-141 -51.5t-171.5 -23q-311 0 -483 182t-172 524q0 353 185.5 560.5 t500.5 207.5q100 0 215 -25.5t180 -50.5l66 -26l-10 -348h-154z" />
<glyph unicode="&#x422;" horiz-adv-x="1157" d="M266 0v123l205 41v1106h-266l-51 -205h-134v369h1117v-369h-133l-52 205h-266v-1106l205 -41v-123h-625z" />
<glyph unicode="&#x423;" horiz-adv-x="1380" d="M1372 1434v-123l-164 -41l-346 -840q-94 -229 -205.5 -339.5t-224.5 -110.5q-115 0 -242 53l41 153q106 -32 181 -32q126 0 200 139l-469 977l-153 41v112l551 11v-123l-174 -41l344 -744l303 744l-185 41v112z" />
<glyph unicode="&#x424;" horiz-adv-x="1837" d="M1010 1346v-70q347 -10 520.5 -143.5t173.5 -378.5q0 -252 -180 -398t-514 -166v-69l174 -39v-123h-531v123l174 39v67q-351 9 -522.5 131.5t-171.5 374.5q0 261 178 409.5t516 168.5v74l-174 38v113l531 10v-123zM1010 1122v-780q247 12 358 100t111 287 q0 198 -110.5 291t-358.5 102zM827 342v778q-243 -11 -356 -104t-113 -291q0 -195 110 -283.5t359 -99.5z" />
<glyph unicode="&#x425;" horiz-adv-x="1433" d="M154 154l430 573l-379 543l-154 41v112l543 11v-123l-133 -41l266 -389l266 389l-143 41v112l543 11v-123l-185 -41l-368 -533l399 -573l174 -41v-123h-553v123l123 31l-287 419l-307 -409l174 -41v-123h-543v123z" />
<glyph unicode="&#x426;" horiz-adv-x="1652" d="M1448 -358l-102 358h-1264v123l174 41v1106l-174 41v112l584 11v-123l-195 -41v-1106h645v1106l-194 41v112l583 11v-123l-174 -41v-1106l230 -39l10 -483h-123z" />
<glyph unicode="&#x427;" horiz-adv-x="1402" d="M1147 1270v-1106l174 -31v-133h-614v133l225 31v416q-52 -19 -80.5 -28.5t-109 -24.5t-158.5 -15q-193 0 -301.5 112t-108.5 349v297l-154 51v102l533 11v-113l-164 -49v-279q0 -161 61 -229t175 -68q65 0 136 11t108.5 21.5t62.5 19.5v522l-164 41v112l553 11v-123z" />
<glyph unicode="&#x428;" horiz-adv-x="2119" d="M82 0v123l174 41v1106l-174 41v112l543 11v-123l-154 -41v-1106h481v1106l-153 41v112l522 11v-123l-154 -41v-1106h482v1106l-154 41v112l543 11v-123l-174 -41v-1106l174 -41v-123h-1956z" />
<glyph unicode="&#x429;" horiz-adv-x="2183" d="M1978 -358l-102 358h-1794v123l174 41v1106l-174 41v112l543 11v-123l-154 -41v-1106h481v1106l-153 41v112l522 11v-123l-154 -41v-1106h482v1106l-154 41v112l543 11v-123l-174 -41v-1106l227 -37l10 -485h-123z" />
<glyph unicode="&#x42a;" horiz-adv-x="1429" d="M651 840h189q121 0 213 -20t165 -64.5t111.5 -124t38.5 -191.5q0 -218 -134.5 -329t-377.5 -111h-610v123l194 41v1106h-235l-51 -205h-134v369h836v-123l-205 -41v-430zM651 164h215q132 0 209.5 67.5t77.5 188.5q0 78 -26 132t-73.5 82t-102.5 40t-126 12h-174v-522z " />
<glyph unicode="&#x42b;" horiz-adv-x="1869" d="M467 840h188q96 0 173.5 -12t145 -40.5t113 -74t71.5 -114.5t26 -159q0 -218 -134.5 -329t-377.5 -111h-590v123l174 41v1106l-174 41v112l590 11v-123l-205 -41v-430zM1225 0v123l174 41v1106l-174 41v112l563 11v-123l-174 -41v-1106l174 -41v-123h-563zM467 164h215 q132 0 209.5 67.5t77.5 188.5q0 78 -26 132t-73.5 82t-102.5 40t-126 12h-174v-522z" />
<glyph unicode="&#x42c;" horiz-adv-x="1198" d="M461 840h188q96 0 173.5 -12t145 -40.5t113 -74t71.5 -114.5t26 -159q0 -218 -134.5 -329t-377.5 -111h-584v123l174 41v1106l-174 41v112l584 11v-123l-205 -41v-430zM461 164h215q132 0 209.5 67.5t77.5 188.5q0 78 -26 132t-73.5 82t-102.5 40t-126 12h-174v-522z" />
<glyph unicode="&#x42d;" horiz-adv-x="1353" d="M143 1024l-10 328q26 11 72 28t171.5 45t233.5 29q305 3 467 -178.5t162 -527.5q0 -173 -51 -318t-140.5 -243t-211.5 -152.5t-263 -54.5q-263 0 -483 200l94 121q80 -57 126 -78q122 -59 274 -59q176 0 287.5 125.5t129.5 363.5h-602v164h602q-18 228 -128.5 346.5 t-282.5 118.5q-125 0 -250 -41l-43 -217h-154z" />
<glyph unicode="&#x42e;" horiz-adv-x="2140" d="M471 819h252q29 293 204.5 464t454.5 171q298 0 466.5 -192.5t168.5 -524.5q0 -223 -85.5 -395.5t-239 -267t-351.5 -94.5q-289 0 -450.5 173.5t-173.5 501.5h-246v-491l195 -41v-123h-584v123l174 41v1106l-174 41v112l584 11v-123l-195 -41v-451zM1352 154 q204 0 317 144t113 429q0 275 -104.5 414t-305.5 139q-204 0 -312 -138.5t-108 -424.5q0 -278 100.5 -420.5t299.5 -142.5z" />
<glyph unicode="&#x42f;" horiz-adv-x="1331" d="M1249 0h-563v123l174 41v430h-112q-75 0 -128.5 -50.5t-127.5 -195.5l-177 -348h-305v123l156 33l162 284q81 146 176 189q-50 13 -94 33t-88.5 54.5t-76 78t-51.5 108t-20 141.5q0 194 124.5 292t346.5 98h604v-123l-174 -41v-1106l174 -41v-123zM860 1270h-215 q-119 0 -187.5 -63t-68.5 -183q0 -276 359 -276h112v522z" />
<glyph unicode="&#x430;" horiz-adv-x="1157" d="M164 768l-10 256q25 9 67.5 22.5t148.5 36.5t183 23q187 0 283 -74t96 -244v-624l164 -41v-113l-318 -10l-43 143q-66 -66 -153 -114.5t-183 -48.5q-146 0 -226.5 80.5t-80.5 226.5q0 169 121.5 243t349.5 74h164v164q0 91 -50.5 137.5t-144.5 46.5q-55 0 -106.5 -7.5 t-75.5 -14.5l-24 -8l-29 -154h-133zM727 471h-143q-153 0 -218 -40.5t-65 -133.5q0 -69 40.5 -111.5t109.5 -42.5q43 0 87.5 17t77 41t58.5 48t40 41l13 17v164z" />
<glyph unicode="&#x431;" horiz-adv-x="1187" d="M1085 1640l-92 -276q-261 0 -426 -41q-130 -33 -194 -137.5t-86 -304.5q56 82 151 138t197 56q219 0 345 -144t126 -378q0 -254 -141.5 -413.5t-370.5 -159.5q-241 0 -361 163.5t-120 511.5q0 206 24 352t76 242t125 150t178 80q52 13 115.5 20.5t131.5 13t97 9.5l82 153 zM604 143q150 0 218.5 101t68.5 299q0 80 -15 144.5t-46.5 116t-86 79.5t-129.5 28q-154 0 -230.5 -94t-76.5 -274q0 -87 16.5 -158t51 -126t93 -85.5t136.5 -30.5z" />
<glyph unicode="&#x432;" horiz-adv-x="1218" d="M256 158v770l-174 35v112l379 10h276q141 0 234.5 -73t93.5 -193q0 -110 -67.5 -168t-182.5 -69q123 -13 207 -83.5t84 -181.5q0 -164 -119 -240.5t-348 -76.5h-557v113zM461 641h201q98 0 148 33t50 114q0 69 -42 108.5t-118 39.5h-239v-295zM461 150h188 q119 0 180.5 37.5t61.5 119.5q0 107 -56.5 154t-183.5 47h-190v-358z" />
<glyph unicode="&#x433;" horiz-adv-x="1024" d="M993 686h-143l-31 236h-358v-758l205 -51v-113h-584v113l174 51v758l-174 41v112l379 10h543z" />
<glyph unicode="&#x434;" horiz-adv-x="1280" d="M1219 133l-11 -461h-143l-39 328h-809l-39 -328h-143l-10 471l77 11q100 17 150 105.5t72 283.5q20 182 32 379l-211 41v122h1043v-122l-174 -41v-758zM809 164v758h-297q-10 -173 -31 -383q-19 -175 -45.5 -258.5t-77.5 -116.5h451z" />
<glyph unicode="&#x435;" horiz-adv-x="1105" d="M1004 512h-707q0 -168 82 -268.5t215 -100.5q91 0 177 28.5t127 56.5l40 28l72 -106q-8 -7 -22 -18.5t-60.5 -40.5t-94.5 -51.5t-119.5 -41t-140.5 -18.5q-241 0 -366 146.5t-125 405.5q0 163 63 293.5t178 205.5t261 75q430 0 430 -481q0 -23 -2.5 -50t-5.5 -45z M305 666h492q0 126 -54 203t-170 77q-118 0 -188.5 -79t-79.5 -201z" />
<glyph unicode="&#x436;" horiz-adv-x="1699" d="M1690 113v-113h-277l-293 471h-178v-307l123 -51v-113h-430v113l123 51v307h-185l-292 -471h-271v113l154 51h2l264 409l-211 365h-2l-145 25v122l450 -10v-112l-92 -29l154 -309h174v297l-103 41v112l389 10v-120l-102 -43v-297h180l154 309l-92 29v112l444 10v-122 l-145 -25h-2l-211 -365l264 -409h2z" />
<glyph unicode="&#x437;" horiz-adv-x="944" d="M201 645h145q126 0 187 40t61 130q0 68 -57.5 102.5t-159.5 34.5q-45 0 -95 -5.5t-77 -10.5l-27 -6l-14 -123h-123l-8 248q184 51 352 51q190 0 302 -71t112 -206q0 -205 -232 -256q126 -23 195 -87.5t69 -157.5q0 -76 -25 -136t-67.5 -99t-102.5 -65t-126 -37t-143 -11 q-87 0 -176 17.5t-135 35.5l-46 18l47 139q18 -6 49.5 -15t116 -23.5t152.5 -14.5q115 0 178 46.5t63 133.5q0 91 -72.5 138t-205.5 47h-137v143z" />
<glyph unicode="&#x438;" horiz-adv-x="1423" d="M1167 922v-758l174 -51v-113h-501v113l133 51v522l-522 -471v-51l133 -51v-113h-502v113l174 51v758l-174 41v112l502 10v-122l-133 -41v-523l522 471v52l-133 41v112l501 10v-122z" />
<glyph unicode="&#x439;" horiz-adv-x="1423" d="M868 1565l226 -11q0 -133 -106.5 -213.5t-262.5 -80.5q-155 0 -260.5 80.5t-106.5 213.5l226 11v-140q55 -43 143 -43q86 0 141 43v140zM1167 922v-758l174 -51v-113h-501v113l133 51v522l-522 -471v-51l133 -51v-113h-502v113l174 51v758l-174 41v112l502 10v-122 l-133 -41v-523l522 471v52l-133 41v112l501 10v-122z" />
<glyph unicode="&#x43a;" horiz-adv-x="1198" d="M604 625l154 309l-92 29v112l450 10v-122l-145 -25h-2l-211 -365l264 -409h2l154 -51v-113h-277l-293 471h-178v-307l133 -51v-113h-512v113l174 51v758l-174 41v112l379 10v-460h174z" />
<glyph unicode="&#x43b;" horiz-adv-x="1261" d="M1006 922v-758l174 -51v-113h-553v113l174 51v758h-297q-9 -170 -29 -394q-12 -137 -34 -234t-59.5 -170t-95.5 -108.5t-139 -35.5q-59 0 -141 16l23 190q27 -6 59 -6q102 0 156.5 83.5t74.5 279.5q21 215 29 379l-211 41v122h1043v-122z" />
<glyph unicode="&#x43c;" horiz-adv-x="1689" d="M1434 922v-758l174 -51v-113h-492v113l133 51v717l-59 -125l-313 -541l-115 -10l-295 516l-47 117v-674l133 -51v-113h-471v113l174 51v758l-174 41v112l395 10l367 -669l366 659l398 10v-122z" />
<glyph unicode="&#x43d;" horiz-adv-x="1402" d="M1147 922v-758l174 -51v-113h-512v113l133 51v328h-481v-328l133 -51v-113h-512v113l174 51v758l-174 41v112l512 10v-122l-133 -41v-277h481v277l-133 41v112l512 10v-122z" />
<glyph unicode="&#x43e;" horiz-adv-x="1167" d="M604 1106q227 0 354 -147t127 -396q0 -261 -141 -422t-371 -161q-234 0 -362.5 140t-128.5 412q0 259 145 416.5t377 157.5zM594 942q-152 0 -224.5 -99t-72.5 -300q0 -400 287 -400q150 0 218 102.5t68 307.5q0 389 -276 389z" />
<glyph unicode="&#x43f;" horiz-adv-x="1402" d="M1147 922v-758l174 -51v-113h-512v113l133 51v758h-481v-758l133 -51v-113h-512v113l174 51v758l-174 41v112l379 10h860v-122z" />
<glyph unicode="&#x440;" d="M399 1085l17 -114q144 135 311 135q216 0 328 -143.5t112 -389.5q0 -132 -33.5 -239.5t-100.5 -187t-173.5 -123t-245.5 -43.5q-88 0 -184 28v-325l215 -41v-113h-584v113l164 41v1239l-174 41v112zM430 799v-615q7 -5 21.5 -11.5t70 -18t123.5 -11.5q307 0 307 410 q0 177 -66.5 283t-199.5 106q-52 0 -97 -14.5t-73 -36t-48.5 -42.5t-29.5 -35z" />
<glyph unicode="&#x441;" horiz-adv-x="1044" d="M819 748l-31 174q-82 20 -184 20q-149 0 -228 -95t-79 -284q0 -204 84 -312t233 -108q55 0 107.5 12.5t89 30.5t65 36.5t42.5 31.5l14 12l72 -123q-8 -7 -21.5 -18t-57.5 -39t-89.5 -49.5t-112 -39t-129.5 -17.5q-250 0 -381 149t-131 414q0 249 144.5 406t387.5 157 q82 0 169 -20.5t133 -41.5l47 -20l-11 -276h-133z" />
<glyph unicode="&#x442;" horiz-adv-x="1085" d="M1065 1085l-10 -378h-144l-30 215h-236v-758l205 -51v-113h-614v113l204 51v758h-235l-31 -215h-143l-11 378h1045z" />
<glyph unicode="&#x443;" horiz-adv-x="1181" d="M358 942l246 -717l225 707l-143 31v112l485 10v-122l-133 -21l-290 -811q-81 -212 -109 -273q-102 -219 -238 -297q-91 -53 -206 -53q-23 0 -56 3l-55 5l-21 3l19 143h102q100 0 175.5 84.5t150.5 249.5l-367 936l-123 31v112l482 10v-122z" />
<glyph unicode="&#x444;" horiz-adv-x="1466" d="M825 1577v-473q272 -15 415.5 -148.5t143.5 -382.5q0 -244 -149 -393t-410 -176v-315l174 -47v-113h-532v113l174 47v313q-559 36 -559 541q0 250 148.5 391.5t410.5 165.5v317l-174 37v113zM825 942v-774q179 17 261.5 111.5t82.5 283.5q0 179 -82 271.5t-262 107.5z M641 168v774q-178 -15 -261 -105t-83 -284q0 -176 83.5 -271t260.5 -114z" />
<glyph unicode="&#x445;" horiz-adv-x="1157" d="M426 950l158 -264l245 389l297 10v-122l-174 -31l-256 -379l262 -393l189 -47v-113h-500v113l82 24l-168 271l-254 -408h-297v113l180 47l261 383l-263 391l-157 29v112l467 10v-122z" />
<glyph unicode="&#x446;" horiz-adv-x="1411" d="M1350 133l-11 -461h-143l-39 328h-1075v113l174 51v758l-174 41v112l512 10v-122l-133 -41v-758h481v758l-133 41v112l512 10v-122l-174 -41v-758z" />
<glyph unicode="&#x447;" horiz-adv-x="1239" d="M983 922v-758l174 -51v-113h-584v113l205 51v256q-15 -4 -54 -15t-64.5 -17.5t-72 -12.5t-95.5 -6q-359 0 -359 368v185l-143 41v112l481 10v-122l-133 -41v-154q0 -120 43.5 -172.5t155.5 -52.5q59 0 119.5 7.5t91.5 15.5l30 7v349l-133 41v112l512 10v-122z" />
<glyph unicode="&#x448;" horiz-adv-x="1878" d="M1622 164l172 -51v-113h-1712v113l174 51v758l-174 41v112l491 10v-122l-122 -41v-758h391v758l-123 41v112l440 10v-122l-123 -41v-758h391v758l-122 41v112l491 10v-122l-174 -41v-758z" />
<glyph unicode="&#x449;" horiz-adv-x="1886" d="M1825 133l-10 -461h-144l-39 328h-1550v113l174 51v758l-174 41v112l491 10v-122l-122 -41v-758h391v758l-123 41v112l440 10v-122l-123 -41v-758h391v758l-122 41v112l491 10v-122l-174 -41v-758z" />
<glyph unicode="&#x44a;" horiz-adv-x="1239" d="M645 702h139q185 0 299.5 -89t114.5 -259q0 -354 -467 -354h-465v113l174 45v764h-235l-31 -215h-143l-11 378h809v-122l-184 -43v-218zM645 154h96q115 0 178.5 47.5t63.5 132.5q0 120 -55.5 167.5t-184.5 47.5h-98v-395z" />
<glyph unicode="&#x44b;" horiz-adv-x="1669" d="M256 158v764l-174 41v112l573 10v-122l-194 -43v-218h139q122 0 213 -36.5t146 -117.5t55 -200q0 -174 -120.5 -261t-346.5 -87h-465v113zM1055 0v113l174 51v758l-174 41v112l532 10v-122l-153 -41v-758l153 -51v-113h-532zM461 154h96q116 0 179 45t63 129 q0 121 -56 171t-184 50h-98v-395z" />
<glyph unicode="&#x44c;" horiz-adv-x="1054" d="M256 158v764l-174 41v112l563 10v-122l-184 -43v-218h139q122 0 213 -36.5t146 -117.5t55 -200q0 -174 -120.5 -261t-346.5 -87h-465v113zM461 154h96q116 0 179 45t63 129q0 121 -56 171t-184 50h-98v-395z" />
<glyph unicode="&#x44d;" horiz-adv-x="1067" d="M115 768l-11 256q7 3 19 8.5t51.5 20t80.5 25t101 19.5t117 9q250 0 381 -149t131 -414q0 -250 -143 -406.5t-385 -156.5q-57 0 -119 16t-109.5 38.5t-86.5 45.5t-60 39l-21 16l76 127q85 -57 161 -88t171 -31q283 0 301 338h-448l10 154h430q-21 150 -102 228.5 t-207 78.5q-50 0 -93.5 -5t-61.5 -10l-19 -5l-31 -154h-133z" />
<glyph unicode="&#x44e;" horiz-adv-x="1755" d="M461 635h215q29 216 169 343.5t347 127.5q227 0 354 -147t127 -396q0 -261 -141 -422t-371 -161q-223 0 -350 127t-139 374h-211v-317l133 -51v-113h-512v113l174 51v758l-174 41v112l512 10v-122l-133 -41v-287zM1171 143q150 0 218.5 102.5t68.5 307.5q0 389 -276 389 q-152 0 -224.5 -99t-72.5 -300q0 -400 286 -400z" />
<glyph unicode="&#x44f;" horiz-adv-x="1214" d="M621 0v113l133 41v270h-90q-102 0 -159 -44t-114 -153l-121 -227h-280v113l145 49l84 129q58 88 100.5 121t112.5 47q-35 7 -67.5 18t-73.5 34.5t-70.5 55t-50 82.5t-20.5 113q0 87 34 151t95.5 101t138.5 54t172 17h543v-112l-175 -37v-782l175 -41v-113h-512zM754 936 h-174q-93 0 -154 -39t-61 -123q0 -115 73 -161t211 -46h105v369z" />
<glyph unicode="&#x450;" horiz-adv-x="1105" d="M379 1638l399 -317l-71 -102l-431 266zM1004 512h-707q0 -168 82 -268.5t215 -100.5q91 0 177 28.5t127 56.5l40 28l72 -106q-8 -7 -22 -18.5t-60.5 -40.5t-94.5 -51.5t-119.5 -41t-140.5 -18.5q-241 0 -366 146.5t-125 405.5q0 163 63 293.5t178 205.5t261 75 q430 0 430 -481q0 -23 -2.5 -50t-5.5 -45zM305 666h492q0 126 -54 203t-170 77q-118 0 -188.5 -79t-79.5 -201z" />
<glyph unicode="&#x451;" horiz-adv-x="1105" d="M1004 512h-707q0 -168 82 -268.5t215 -100.5q91 0 177 28.5t127 56.5l40 28l72 -106q-8 -7 -22 -18.5t-60.5 -40.5t-94.5 -51.5t-119.5 -41t-140.5 -18.5q-241 0 -366 146.5t-125 405.5q0 163 63 293.5t178 205.5t261 75q430 0 430 -481q0 -23 -2.5 -50t-5.5 -45z M305 666h492q0 126 -54 203t-170 77q-118 0 -188.5 -79t-79.5 -201zM205 1434q0 57 32 89.5t80 32.5q53 0 83 -32t30 -90q0 -57 -32.5 -90t-80.5 -33q-53 0 -82.5 32.5t-29.5 90.5zM625 1434q0 57 32 89.5t80 32.5q53 0 83 -32t30 -90q0 -57 -32.5 -90t-80.5 -33 q-53 0 -82.5 32.5t-29.5 90.5z" />
<glyph unicode="&#x452;" horiz-adv-x="1228" d="M430 1167v-260q65 55 161 101.5t197 46.5q171 0 249.5 -119.5t78.5 -392.5q0 -197 -5.5 -339t-20.5 -260t-38.5 -193t-60.5 -127t-86.5 -73.5t-116.5 -21.5q-88 0 -174 22l15 146q76 -8 135 -8q104 0 125.5 149.5t21.5 683.5q0 145 -17.5 222t-54.5 107t-106 30 q-49 0 -98 -16t-84.5 -39t-63.5 -46t-43 -39l-14 -16v-561l133 -51v-113h-512v113l174 51v1003h-174v123h174v123l-174 41v113l379 10v-287h379v-123h-379z" />
<glyph unicode="&#x453;" horiz-adv-x="1024" d="M317 1321l400 317l102 -153l-430 -266zM993 686h-143l-31 236h-358v-758l205 -51v-113h-584v113l174 51v758l-174 41v112l379 10h543z" />
<glyph unicode="&#x454;" horiz-adv-x="1064" d="M932 266l72 -123q-8 -7 -21.5 -18t-57.5 -39t-89.5 -49.5t-112 -39t-129.5 -17.5q-250 0 -381 149t-131 414q0 249 144.5 406t387.5 157q82 0 169 -20.5t133 -41.5l47 -20l-11 -256h-133l-31 154q-82 20 -184 20q-134 0 -212 -77t-91 -230h440l-6 -154h-434 q17 -165 99 -251.5t214 -86.5q55 0 107.5 12.5t89 30.5t65 36.5t42.5 31.5z" />
<glyph unicode="&#x455;" horiz-adv-x="960" d="M238 328l22 -176q61 -19 172 -19q232 0 232 162q0 44 -31.5 76.5t-82 52.5t-111.5 39t-122 43.5t-111.5 57.5t-82 89.5t-31.5 132.5q0 154 105 237t270 83q72 0 159.5 -15.5t139.5 -30.5l51 -16l-6 -276h-133l-33 160q-64 24 -166 24q-182 0 -182 -137q0 -44 31.5 -77 t82 -54t111 -41t121.5 -44.5t111.5 -57t82 -86.5t31.5 -125q0 -114 -62 -194.5t-162 -118t-226 -37.5q-84 0 -165 11t-120 23l-39 11v303h144z" />
<glyph unicode="&#x456;" horiz-adv-x="686" d="M215 1423q0 67 38.5 105.5t94.5 38.5q133 0 133 -144q0 -65 -41.5 -104t-91.5 -39q-62 0 -97.5 37.5t-35.5 105.5zM614 113v-113h-532v113l174 51v758l-174 41v112l379 10v-921z" />
<glyph unicode="&#x457;" horiz-adv-x="686" d="M31 1434q0 57 32 89.5t80 32.5q53 0 83 -32t30 -90q0 -57 -32.5 -90t-80.5 -33q-53 0 -82.5 32.5t-29.5 90.5zM430 1434q0 56 32.5 89t80.5 33q53 0 82.5 -32t29.5 -90q0 -57 -32 -90t-80 -33q-53 0 -83 32.5t-30 90.5zM614 113v-113h-532v113l174 51v758l-174 41v112 l379 10v-921z" />
<glyph unicode="&#x458;" horiz-adv-x="591" d="M172 1423q0 67 38.5 105.5t94.5 38.5q133 0 133 -144q0 -65 -41.5 -104t-91.5 -39q-62 0 -97.5 37.5t-35.5 105.5zM428 1085v-1177q0 -187 -98.5 -293.5t-280.5 -106.5q-23 0 -55.5 3t-53.5 5l-22 3l19 143h102q101 0 142.5 52.5t41.5 152.5v1055l-174 41v112z" />
<glyph unicode="&#x459;" horiz-adv-x="1660" d="M1026 702h180q122 0 213 -36.5t146 -117.5t55 -200q0 -174 -120.5 -261t-346.5 -87h-506v113l174 45v764h-317q-9 -170 -29 -394q-12 -137 -34 -234t-59.5 -170t-95.5 -108.5t-139 -35.5q-59 0 -141 16l23 190q30 -6 59 -6q102 0 156.5 83.5t74.5 279.5q21 215 29 379 l-211 41v122h1073v-122l-184 -43v-218zM1026 154h137q116 0 179 45t63 129q0 121 -56 171t-184 50h-139v-395z" />
<glyph unicode="&#x45a;" horiz-adv-x="1781" d="M1147 676h180q120 0 212 -35.5t147 -111t55 -181.5q0 -174 -120.5 -261t-346.5 -87h-506v113l174 45v364h-481v-358l133 -51v-113h-512v113l174 51v758l-174 41v112l512 10v-122l-133 -41v-246h481v246l-133 41v112l512 10v-122l-174 -41v-246zM1147 154h137 q116 0 179 45t63 129q0 103 -57 148.5t-183 45.5h-139v-368z" />
<glyph unicode="&#x45b;" horiz-adv-x="1331" d="M1270 113v-113h-492v113l133 49v504q0 111 -40.5 163t-137.5 52q-49 0 -98 -17t-84.5 -41t-63.5 -48t-43 -41l-14 -17v-553l133 -51v-113h-512v113l174 51v1003h-174v123h174v123l-174 41v113l379 10v-287h379v-123h-379v-260q65 55 161 101.5t197 46.5q164 0 246 -97.5 t82 -271.5v-522z" />
<glyph unicode="&#x45c;" horiz-adv-x="1198" d="M389 1321l399 317l103 -153l-430 -266zM604 625l154 309l-92 29v112l450 10v-122l-145 -25h-2l-211 -365l264 -409h2l154 -51v-113h-277l-293 471h-178v-307l133 -51v-113h-512v113l174 51v758l-174 41v112l379 10v-460h174z" />
<glyph unicode="&#x45d;" horiz-adv-x="1423" d="M799 1219l-430 266l102 153l399 -317zM1167 922v-758l174 -51v-113h-501v113l133 51v522l-522 -471v-51l133 -51v-113h-502v113l174 51v758l-174 41v112l502 10v-122l-133 -41v-523l522 471v52l-133 41v112l501 10v-122z" />
<glyph unicode="&#x45e;" horiz-adv-x="1181" d="M735 1565l226 -11q0 -133 -106.5 -213.5t-262.5 -80.5q-155 0 -260.5 80.5t-106.5 213.5l226 11v-140q55 -43 143 -43q86 0 141 43v140zM358 942l246 -717l225 707l-143 31v112l485 10v-122l-133 -21l-290 -811q-81 -212 -109 -273q-102 -219 -238 -297q-91 -53 -206 -53 q-23 0 -56 3l-55 5l-21 3l19 143h102q100 0 175.5 84.5t150.5 249.5l-367 936l-123 31v112l482 10v-122z" />
<glyph unicode="&#x45f;" horiz-adv-x="1402" d="M1147 922v-758l174 -51v-113h-512l-31 -328h-133l-39 328h-524v113l174 51v758l-174 41v112l512 10v-122l-133 -41v-758h481v758l-133 41v112l512 10v-122z" />
<glyph unicode="&#x490;" horiz-adv-x="1093" d="M1083 1792l-8 -358l-4 -164h-600v-1106l236 -41v-123h-625v123l174 41v1106l-174 41v112l389 11h387l103 358h122z" />
<glyph unicode="&#x491;" horiz-adv-x="1013" d="M461 922v-758l205 -51v-113h-584v113l174 51v758l-174 41v112l379 10h348l41 277h143v-440h-532z" />
<glyph unicode="&#x4b0;" horiz-adv-x="1320" d="M1300 1434v-123l-126 -37l-402 -731h293v-154h-297v-225l174 -41v-123h-563v123l174 41v225h-297v154h291l-389 729l-138 39v112l512 11v-123l-139 -41l273 -574l301 574l-158 41v112z" />
<glyph unicode="&#x4b1;" horiz-adv-x="1144" d="M1135 1085v-122l-113 -21l-309 -799h215v-143h-264v-307l174 -51v-113h-553v113l174 51v307h-266v143h217l-297 789l-103 31v112l461 10v-122l-143 -21l243 -743l246 733l-141 31v112z" />
<glyph unicode="&#x1e80;" horiz-adv-x="2119" d="M922 1915l378 -297l-81 -113l-400 256zM10 1311v112l574 11v-123l-178 -41l219 -928l338 1081l194 11l332 -1115l254 951l-187 41v112l553 11v-123l-161 -41l-361 -1270h-225l-246 942l-59 221l-64 -231l-276 -932h-205l-342 1270z" />
<glyph unicode="&#x1e81;" horiz-adv-x="1699" d="M666 1638l399 -317l-72 -102l-430 266zM317 942l175 -758l268 891l194 31l254 -922l164 748l-143 31v112l461 10v-122l-119 -21l-250 -942h-236l-194 635l-49 196l-43 -196l-195 -635h-235l-256 932l-103 31v112l461 10v-122z" />
<glyph unicode="&#x1e82;" horiz-adv-x="2119" d="M887 1505l-78 109l373 297l104 -150zM10 1311v112l574 11v-123l-178 -41l219 -928l338 1081l194 11l332 -1115l254 951l-187 41v112l553 11v-123l-161 -41l-361 -1270h-225l-246 942l-59 221l-64 -231l-276 -932h-205l-342 1270z" />
<glyph unicode="&#x1e83;" horiz-adv-x="1699" d="M635 1321l399 317l103 -153l-430 -266zM317 942l175 -758l268 891l194 31l254 -922l164 748l-143 31v112l461 10v-122l-119 -21l-250 -942h-236l-194 635l-49 196l-43 -196l-195 -635h-235l-256 932l-103 31v112l461 10v-122z" />
<glyph unicode="&#x1e84;" horiz-adv-x="2119" d="M737 1690q0 56 32.5 89t80.5 33q53 0 83 -32t30 -90q0 -57 -32.5 -90t-80.5 -33q-53 0 -83 32.5t-30 90.5zM1157 1690q0 56 32.5 89t80.5 33q53 0 82.5 -32t29.5 -90q0 -57 -32 -90t-80 -33q-53 0 -83 32.5t-30 90.5zM10 1311v112l574 11v-123l-178 -41l219 -928 l338 1081l194 11l332 -1115l254 951l-187 41v112l553 11v-123l-161 -41l-361 -1270h-225l-246 942l-59 221l-64 -231l-276 -932h-205l-342 1270z" />
<glyph unicode="&#x1e85;" horiz-adv-x="1699" d="M543 1434q0 57 32 89.5t80 32.5q53 0 83 -32t30 -90q0 -57 -32.5 -90t-80.5 -33q-53 0 -82.5 32.5t-29.5 90.5zM963 1434q0 57 32 89.5t80 32.5q53 0 83 -32t30 -90q0 -57 -32.5 -90t-80.5 -33q-53 0 -82.5 32.5t-29.5 90.5zM317 942l175 -758l268 891l194 31l254 -922 l164 748l-143 31v112l461 10v-122l-119 -21l-250 -942h-236l-194 635l-49 196l-43 -196l-195 -635h-235l-256 932l-103 31v112l461 10v-122z" />
<glyph unicode="&#x1ef2;" horiz-adv-x="1320" d="M492 1915l378 -297l-82 -113l-399 256zM553 164v366l-395 742l-138 39v112l512 11v-123l-139 -41l273 -574l301 574l-158 41v112l491 11v-123l-126 -37l-406 -739v-371l174 -41v-123h-563v123z" />
<glyph unicode="&#x1ef3;" horiz-adv-x="1181" d="M389 1638l399 -317l-71 -102l-430 266zM358 942l246 -717l225 707l-143 31v112l485 10v-122l-133 -21l-290 -811q-81 -212 -109 -273q-102 -219 -238 -297q-91 -53 -206 -53q-23 0 -56 3l-55 5l-21 3l19 143h102q100 0 175.5 84.5t150.5 249.5l-367 936l-123 31v112 l482 10v-122z" />
<glyph unicode="&#x2013;" horiz-adv-x="1024" d="M1024 748v-164h-1024v164h1024z" />
<glyph unicode="&#x2014;" horiz-adv-x="1986" d="M1987 748v-164h-1987v164h1987z" />
<glyph unicode="&#x2015;" horiz-adv-x="1986" d="M1987 748v-164h-1987v164h1987z" />
<glyph unicode="&#x2017;" horiz-adv-x="1024" d="M1028 -164v-143h-1032v143h1032zM1028 -451v-143h-1032v143h1032z" />
<glyph unicode="&#x2018;" horiz-adv-x="573" d="M369 1597l92 -77q-12 -16 -30 -42t-48.5 -84t-30.5 -91q0 -17 23.5 -63.5t23.5 -86.5q0 -59 -37 -98t-96 -39q-133 0 -133 151q0 85 63.5 198.5t172.5 231.5z" />
<glyph unicode="&#x2019;" horiz-adv-x="573" d="M205 1016l-92 78q12 16 30 42t48 84t30 91q0 17 -23.5 63t-23.5 86q0 59 37 98t96 39q133 0 133 -151q0 -85 -63 -199t-172 -231z" />
<glyph unicode="&#x201a;" horiz-adv-x="573" d="M205 -356l-92 77q12 16 30 42t48 84.5t30 91.5q0 17 -23.5 63t-23.5 86q0 59 37 98t96 39q133 0 133 -151q0 -85 -63 -199t-172 -231z" />
<glyph unicode="&#x201b;" horiz-adv-x="573" d="M369 1016l92 78q-12 16 -30 42t-48.5 84t-30.5 91q0 17 23.5 63t23.5 86q0 59 -37 98t-96 39q-133 0 -133 -151q0 -85 63.5 -198.5t172.5 -231.5z" />
<glyph unicode="&#x201c;" horiz-adv-x="972" d="M369 1597l92 -77q-12 -16 -30 -42t-48.5 -84t-30.5 -91q0 -17 23.5 -63.5t23.5 -86.5q0 -59 -37 -98t-96 -39q-133 0 -133 151q0 85 63.5 198.5t172.5 231.5zM768 1597l92 -77q-12 -16 -30 -42t-48 -84t-30 -91q0 -17 23.5 -63.5t23.5 -86.5q0 -59 -37 -98t-96 -39 q-60 0 -97 35.5t-37 115.5q0 85 63.5 198.5t172.5 231.5z" />
<glyph unicode="&#x201d;" horiz-adv-x="972" d="M205 1016l-92 78q12 16 30 42t48 84t30 91q0 17 -23.5 63t-23.5 86q0 59 37 98t96 39q133 0 133 -151q0 -85 -63 -199t-172 -231zM604 1016l-92 78q12 16 30 42t48.5 84t30.5 91q0 17 -24 63t-24 86q0 59 37.5 98t96.5 39q133 0 133 -151q0 -85 -63.5 -198.5 t-172.5 -231.5z" />
<glyph unicode="&#x201e;" horiz-adv-x="972" d="M205 -356l-92 77q12 16 30 42t48 84.5t30 91.5q0 17 -23.5 63t-23.5 86q0 59 37 98t96 39q133 0 133 -151q0 -85 -63 -199t-172 -231zM604 -356l-92 77q12 16 30 42t48.5 84.5t30.5 91.5q0 17 -24 63t-24 86q0 59 37.5 98t96.5 39q133 0 133 -151q0 -85 -63.5 -198.5 t-172.5 -231.5z" />
<glyph unicode="&#x2020;" horiz-adv-x="1013" d="M932 1229v-144l-426 -51l-424 51v144h346l-8 307l174 10l-10 -317h348zM506 0l88 82l20 850l-108 -21l-107 21l21 -850z" />
<glyph unicode="&#x2021;" horiz-adv-x="1013" d="M428 1229l-8 307l174 10l-10 -317h348v-144l-426 -51l-424 51v144h346zM506 911l340 50v-150l-340 -86l-340 86v150zM506 0l88 82l12 539l-100 -21l-98 21l12 -539z" />
<glyph unicode="&#x2022;" horiz-adv-x="1034" d="M174 645q0 135 96.5 231.5t231.5 96.5t231 -96.5t96 -231.5t-96 -231.5t-231 -96.5t-231.5 96.5t-96.5 231.5z" />
<glyph unicode="&#x2026;" horiz-adv-x="1474" d="M113 123q0 67 38.5 105t94.5 38q62 0 97.5 -37.5t35.5 -105.5q0 -67 -38.5 -105t-94.5 -38q-62 0 -97.5 37.5t-35.5 105.5zM604 123q0 67 38 105t95 38q62 0 97.5 -37.5t35.5 -105.5q0 -67 -38 -105t-95 -38q-62 0 -97.5 37.5t-35.5 105.5zM1096 123q0 67 38 105t95 38 q62 0 97.5 -37.5t35.5 -105.5q0 -67 -38 -105t-95 -38q-62 0 -97.5 37.5t-35.5 105.5z" />
<glyph unicode="&#x2030;" horiz-adv-x="2406" d="M92 1085q0 173 94 271t244 98q144 0 231 -88.5t87 -259.5q0 -179 -93 -274t-245 -95q-146 0 -232 85.5t-86 262.5zM246 1096q0 -226 174 -226t174 226q0 105 -42.5 165t-131.5 60t-131.5 -60t-42.5 -165zM901 328q0 173 94 270.5t244 97.5q144 0 230.5 -88.5t86.5 -259.5 q0 -179 -92.5 -273.5t-244.5 -94.5q-146 0 -232 85.5t-86 262.5zM1055 338q0 -225 174 -225t174 225q0 105 -42.5 165t-131.5 60t-131.5 -60t-42.5 -165zM1649 328q0 173 94 270.5t244 97.5q144 0 230.5 -88.5t86.5 -259.5q0 -179 -93 -273.5t-245 -94.5q-146 0 -231.5 85.5 t-85.5 262.5zM1802 338q0 -225 174 -225t174 225q0 105 -42.5 165t-131.5 60t-131.5 -60t-42.5 -165zM1331 1434l-829 -1434h-185l830 1434h184z" />
<glyph unicode="&#x2032;" horiz-adv-x="444" d="M102 1075l45 510l195 -18l-86 -506z" />
<glyph unicode="&#x2033;" horiz-adv-x="788" d="M102 1075l45 510l195 -18l-86 -506zM446 1075l46 510l194 -18l-86 -506z" />
<glyph unicode="&#x2039;" horiz-adv-x="645" d="M410 154l-297 327v123l297 328l122 -82l-235 -307l235 -307z" />
<glyph unicode="&#x203a;" horiz-adv-x="645" d="M123 850l123 82l297 -328v-123l-297 -327l-123 82l235 307z" />
<glyph unicode="&#x203c;" horiz-adv-x="1116" d="M246 502l-31 1034h236l-31 -1024zM707 502l-31 1034h235l-30 -1024zM195 123q0 67 38.5 105t94.5 38q62 0 97.5 -37.5t35.5 -105.5q0 -67 -38.5 -105t-94.5 -38q-62 0 -97.5 37.5t-35.5 105.5zM655 123q0 67 38.5 105t94.5 38q62 0 98 -37.5t36 -105.5 q0 -66 -38.5 -104.5t-95.5 -38.5q-62 0 -97.5 37.5t-35.5 105.5z" />
<glyph unicode="&#x203e;" horiz-adv-x="1069" d="M864 1423v-133h-868v133h868z" />
<glyph unicode="&#x2044;" horiz-adv-x="1157" d="M1178 1444l-1065 -1536l-144 92l1065 1536z" />
<glyph unicode="&#x2074;" horiz-adv-x="862" d="M678 1434v-541h143v-133h-143v-187h-174v187h-430l-13 121l416 573zM504 893v367l-264 -367h264z" />
<glyph unicode="&#x207f;" horiz-adv-x="1110" d="M342 1442l12 -105q27 24 59 46.5t92 46.5t116 24q119 0 181 -69t62 -193v-399l111 -35v-96h-369v96l94 35v360q0 81 -27 119.5t-95 38.5q-36 0 -70 -13.5t-58 -32.5t-42.5 -37.5t-27.5 -31.5l-9 -14v-389l96 -35v-96h-385v96l125 35v516l-125 28v97z" />
<glyph unicode="&#x20a3;" horiz-adv-x="1167" d="M256 494v776l-174 41v112l389 11h625v-338h-133l-52 174h-440v-451h471v-164h-471v-161h256v-154h-256v-176l205 -41v-123h-594v123l174 41v176h-172v154h172z" />
<glyph unicode="&#x20a4;" horiz-adv-x="1280" d="M123 932h201q-2 25 -3.5 41.5t-2.5 29t-1 41.5q0 192 101 301t309 109q109 0 214 -15t155 -31l51 -15v-287h-133l-31 170q-123 14 -246 14q-215 0 -215 -205q0 -49 8 -153h340v-144h-747v144zM123 512h221q4 -62 4 -92q0 -135 -22.5 -191.5t-89.5 -74.5l-113 -31v-123 h1034v379h-133l-43 -215h-520q4 3 10 9t22 29.5t28 52t22 78.5t10 107q0 12 -1 36t-1 36h319v143h-747v-143z" />
<glyph unicode="&#x20a7;" horiz-adv-x="1413" d="M256 1270l-174 41v112l389 11h215q213 0 333.5 -100t135.5 -279h166v-154h-172q-29 -193 -169.5 -291t-375.5 -98h-133v-348l174 -41v-123h-563v123l174 41v737h-174v154h174v215zM471 1055h463q-19 100 -85.5 157.5t-172.5 57.5h-205v-215zM471 676h133q291 0 332 225 h-465v-225z" />
<glyph unicode="&#x20ac;" horiz-adv-x="1286" d="M31 922h145q8 45 20 89t35 98.5t52.5 101t75.5 93t101 78.5t132 52t166 20q100 0 199 -20.5t147 -41.5l49 -20l-10 -285h-133l-27 164q-102 39 -256 39q-65 0 -118 -25t-86 -62t-58 -89.5t-37 -97t-20 -94.5h503v-144h-880v144zM31 492h153q2 -24 6.5 -52t20 -80.5 t38 -99.5t65 -100.5t96.5 -91.5t136 -63t181 -25q83 0 163 20t134 48.5t96.5 57t63.5 48.5l20 20l-82 123q-6 -6 -18 -15t-51.5 -33t-80.5 -42.5t-102.5 -33.5t-121.5 -15q-78 0 -140 30.5t-95.5 70t-57.5 92.5t-31.5 83.5t-11.5 57.5h499v143h-880v-143z" />
<glyph unicode="&#x2105;" horiz-adv-x="2080" d="M1606 866q182 0 282.5 -112.5t100.5 -309.5q0 -206 -112 -330t-296 -124q-187 0 -289 107.5t-102 322.5q0 204 115.5 325t300.5 121zM1597 713q-223 0 -223 -285q0 -136 53.5 -211.5t161.5 -75.5q215 0 215 295q0 127 -51 202t-156 75zM662 1157l-23 119q-57 14 -133 14 q-106 0 -168 -69t-62 -201q0 -142 66 -219.5t172 -77.5q62 0 119 22t83 44l27 22l78 -115q-6 -5 -16.5 -14t-45 -31t-70 -39t-87.5 -31t-102 -14q-199 0 -303.5 114.5t-104.5 322.5q0 198 114.5 319t307.5 121q65 0 135.5 -16t108.5 -32l37 -16l-9 -223h-124zM1489 1434 l-830 -1434h-184l830 1434h184z" />
<glyph unicode="&#x2113;" horiz-adv-x="942" d="M123 389l-72 113q116 80 205 153v430q0 120 17 210.5t55.5 160t105 105.5t160.5 36q134 0 200 -82t66 -225q0 -308 -409 -663v-140q0 -84 7 -143t26 -109.5t56.5 -76t94.5 -25.5q36 0 77 5.5t64 10.5l23 5l20 -134q-109 -40 -205 -40q-358 0 -358 458v35 q-85 -59 -133 -84zM451 1120v-284q108 111 176.5 230t68.5 214q0 154 -112 154q-41 0 -68.5 -25t-41 -72t-18.5 -98t-5 -119z" />
<glyph unicode="&#x2116;" horiz-adv-x="2498" d="M2007 1454q177 0 273 -102t96 -287q0 -192 -106 -306t-283 -114q-179 0 -279 99.5t-100 289.5q0 191 110.5 305.5t288.5 114.5zM440 164l195 -41v-123h-553v123l174 41v1106l-174 41v112l430 11l676 -1145v981l-174 41v112l532 11v-123l-174 -41v-1270h-256l-676 1128 v-964zM1997 1311q-97 0 -156 -67t-59 -200q0 -126 59 -191t156 -65q96 0 150.5 66.5t54.5 200.5q0 121 -55.5 188.5t-149.5 67.5zM2355 481v-143h-727v143h727z" />
<glyph unicode="&#x2122;" horiz-adv-x="1949" d="M223 655v93l133 26v543h-151l-25 -139h-98v256h706v-256h-98l-24 139h-152v-543l133 -26v-93h-424zM1585 774v445l-190 -342l-105 -13l-182 344v-434l127 -26v-93h-363v93l107 26v543l-107 20v90l285 7l197 -392l202 385l271 7v-93l-103 -24v-543l103 -26v-93h-359v93z " />
<glyph unicode="&#x2126;" horiz-adv-x="1546" d="M133 164h270q-114 99 -187 254.5t-73 329.5q0 324 173.5 515t471.5 191q290 0 452.5 -184t162.5 -502q0 -176 -74.5 -338t-189.5 -266l274 10v-174h-522v133q11 6 26 14.5t45.5 33.5t58 56t59.5 82.5t54.5 111.5t38 145.5t15.5 181.5q0 255 -110 388.5t-300 133.5 q-194 0 -307 -128t-113 -394q0 -98 16 -185t40 -147.5t56 -112.5t61 -83t58 -54t44 -31.5t22 -11.5v-133h-522v164z" />
<glyph unicode="&#x212e;" horiz-adv-x="1361" d="M350 737v-403q64 -61 152 -94t184 -33q131 0 256 47.5t203 126.5l53 -53q-87 -92 -229.5 -148.5t-282.5 -56.5q-263 0 -423.5 158.5t-160.5 425.5q0 166 80 305t219.5 219t305.5 80q162 0 293 -74.5t205.5 -206t74.5 -293.5h-930zM1034 809v287q-143 133 -327 133 q-205 0 -357 -152v-268h684z" />
<glyph unicode="&#x215b;" horiz-adv-x="1986" d="M1855 645q0 -45 -18 -81.5t-47.5 -58.5t-53 -34t-48.5 -20q87 -31 136.5 -76.5t49.5 -122.5q0 -115 -95.5 -188.5t-250.5 -73.5q-153 0 -236.5 63.5t-83.5 179.5q0 48 22 88t56.5 65.5t58.5 38.5t46 21q-71 32 -106.5 75.5t-35.5 117.5q0 113 83.5 172t228.5 59 q141 0 217.5 -60.5t76.5 -164.5zM1415 635q0 -50 36 -80t114 -59q28 9 52.5 22.5t48.5 44t24 68.5q0 48 -35.5 77t-106.5 29q-67 0 -100 -28t-33 -74zM1696 246q0 31 -10.5 53.5t-36 39.5t-47.5 26.5t-67 26.5q-4 1 -6.5 2t-6 2.5t-6.5 2.5q-67 -28 -95 -60q-35 -40 -35 -93 q0 -58 42 -89.5t110 -31.5q74 0 116 31.5t42 89.5zM174 573v134h195v542l-215 -133l-72 123l309 195h152v-727h174v-134h-543zM1475 1434l-830 -1434h-184l829 1434h185z" />
<glyph unicode="&#x215c;" horiz-adv-x="1953" d="M1823 645q0 -45 -18 -81.5t-48 -58.5t-53.5 -34t-48.5 -20q87 -31 136.5 -76.5t49.5 -122.5q0 -115 -95.5 -188.5t-250.5 -73.5q-153 0 -236 63.5t-83 179.5q0 48 21.5 88t56 65.5t58.5 38.5t46 21q-71 31 -106 75t-35 118q0 113 83 172t228 59q141 0 218 -60.5 t77 -164.5zM1382 635q0 -50 36 -80t114 -59q28 9 52.5 22.5t48.5 44t24 68.5q0 48 -35 77t-106 29q-67 0 -100.5 -28t-33.5 -74zM1663 246q0 31 -10.5 53.5t-36 39.5t-47.5 26.5t-67 26.5q-4 1 -6.5 2t-6 2.5t-6.5 2.5q-68 -29 -96 -62q-33 -38 -33 -91q0 -58 41.5 -89.5 t109.5 -31.5q74 0 116 31.5t42 89.5zM111 1178l-9 227q164 39 287 39q146 0 226.5 -57.5t80.5 -161.5q0 -84 -49.5 -135.5t-130.5 -67.5q77 -8 137 -61.5t60 -129.5q0 -134 -97.5 -201t-259.5 -67q-68 0 -139 19t-108 38l-37 19l41 123q14 -7 38 -17.5t90.5 -27.5t123.5 -17 q80 0 123.5 34t43.5 95t-47 90t-145 29h-84v125h94q172 0 172 131q0 107 -143 107q-39 0 -74 -4.5t-50 -9.5l-15 -5l-11 -114h-118zM1442 1434l-830 -1434h-184l829 1434h185z" />
<glyph unicode="&#x215d;" horiz-adv-x="1935" d="M1802 645q0 -45 -18 -81.5t-48 -58.5t-53.5 -34t-48.5 -20q87 -31 137 -76.5t50 -122.5q0 -115 -95.5 -188.5t-250.5 -73.5q-153 0 -236.5 63.5t-83.5 179.5q0 48 21.5 88t56 65.5t58.5 38.5t46 21q-71 31 -106 75t-35 118q0 113 83 172t228 59q141 0 218 -60.5 t77 -164.5zM1362 635q0 -50 35.5 -80t113.5 -59q28 9 52.5 22.5t48.5 44t24 68.5q0 48 -35 77t-106 29q-67 0 -100 -28t-33 -74zM1642 246q0 31 -10.5 53.5t-36 39.5t-47.5 26.5t-67 26.5q-4 1 -6.5 2t-6 2.5t-6.5 2.5q-68 -29 -96 -62q-33 -38 -33 -91q0 -58 42 -89.5 t110 -31.5q74 0 115.5 31.5t41.5 89.5zM313 1296l-10 -186h57q72 0 132.5 -13.5t110.5 -42t78 -78t28 -116.5q0 -133 -100.5 -216t-237.5 -83q-73 0 -143.5 15.5t-105.5 31.5l-34 15l37 127q116 -50 229 -50q80 0 130.5 36.5t50.5 103.5q0 74 -61.5 105.5t-182.5 31.5h-150 l17 457h506l-5 -138h-346zM1423 1434l-829 -1434h-184l829 1434h184z" />
<glyph unicode="&#x215e;" horiz-adv-x="1853" d="M1722 645q0 -45 -18 -81.5t-48 -58.5t-53.5 -34t-48.5 -20q87 -31 137 -76.5t50 -122.5q0 -115 -95.5 -188.5t-250.5 -73.5q-153 0 -236.5 63.5t-83.5 179.5q0 48 21.5 88t56 65.5t58.5 38.5t46 21q-71 31 -106 75t-35 118q0 113 83 172t228 59q141 0 218 -60.5 t77 -164.5zM1282 635q0 -50 36 -80t114 -59q46 15 85 48t39 87q0 48 -35 77t-106 29q-67 0 -100 -28t-33 -74zM1563 246q0 31 -9 52.5t-39.5 40.5t-44.5 25.5t-68 26.5q-6 3 -10.5 4.5t-9.5 3.5q-68 -29 -96 -62q-33 -38 -33 -91q0 -58 42 -89.5t110 -31.5q74 0 116 31.5 t42 89.5zM711 1331l-344 -770h-179l330 735h-301l-24 -104h-121v242h639v-103zM1341 1434l-829 -1434h-184l829 1434h184z" />
<glyph unicode="&#x2190;" horiz-adv-x="1277" d="M356 565l320 -360l-113 -92l-461 481v102l451 482l113 -103l-306 -346h920v-164h-924z" />
<glyph unicode="&#x2191;" horiz-adv-x="1187" d="M514 922l-360 -318l-93 113l482 461h102l481 -451l-102 -113l-346 306v-920h-164v922z" />
<glyph unicode="&#x2192;" horiz-adv-x="1277" d="M918 729l-306 346l113 103l451 -482v-102l-461 -481l-113 92l318 360h-922v164h920z" />
<glyph unicode="&#x2193;" horiz-adv-x="1187" d="M674 236l360 317l92 -113l-481 -460h-102l-482 450l103 113l346 -305v919h164v-921z" />
<glyph unicode="&#x2194;" horiz-adv-x="1402" d="M547 965l-94 90l-351 -363v-86l342 -362l97 92l-209 237h743l-219 -243l94 -90l350 362v86l-342 363l-96 -93l209 -237h-743z" />
<glyph unicode="&#x2195;" horiz-adv-x="937" d="M158 418l-92 -96l362 -342h86l363 350l-91 94l-243 -219v743l237 -209l92 97l-362 342h-86l-363 -351l91 -94l243 219v-743z" />
<glyph unicode="&#x21a8;" horiz-adv-x="937" d="M158 418l-92 -96l362 -342h86l363 350l-91 94l-243 -219v743l237 -209l92 97l-362 342h-86l-363 -351l91 -94l243 219v-743zM872 -164v-143h-806v143h806z" />
<glyph unicode="&#x2202;" horiz-adv-x="1239" d="M307 1413l-20 143q139 41 245 41q584 0 584 -778q0 -122 -19 -237t-63.5 -226t-110 -193t-166.5 -132.5t-225 -50.5q-194 0 -317 123t-123 327q0 207 126 339t325 132q63 0 123.5 -14.5t102 -35.5t74.5 -42.5t49 -36.5l15 -14q4 61 4 112q0 122 -22.5 222t-69 178 t-124.5 121t-183 43q-45 0 -96.5 -5t-79.5 -11zM891 584q-4 6 -12 15t-36.5 33t-62.5 42.5t-91 33.5t-120 15q-132 0 -197 -74.5t-65 -197.5q0 -135 67 -216t169 -81q48 0 90 14.5t73.5 39.5t58.5 57.5t45.5 68t33 71t23 68t14.5 57.5t8 40z" />
<glyph unicode="&#x2206;" horiz-adv-x="1363" d="M782 1475l541 -1332v-143h-1282v145l541 1330h200zM1104 164l-430 1079l-430 -1079h860z" />
<glyph unicode="&#x220f;" horiz-adv-x="1474" d="M246 1270l-174 41v112l379 11h952v-123l-170 -41h-4v-1741h-205v1741h-573v-1741h-205v1741z" />
<glyph unicode="&#x2211;" horiz-adv-x="1218" d="M645 492l-584 788v154h1035v-349h-133l-52 185h-594l564 -754l-584 -823h635l41 205h143v-369h-1044v154z" />
<glyph unicode="&#x2212;" horiz-adv-x="1187" d="M1085 635v-164h-983v164h983z" />
<glyph unicode="&#x2215;" horiz-adv-x="1157" d="M1178 1444l-1065 -1536l-144 92l1065 1536z" />
<glyph unicode="&#x2219;" horiz-adv-x="706" d="M174 645q0 67 48 115.5t116 48.5t116 -48.5t48 -115.5t-48 -115.5t-116 -48.5t-116 48.5t-48 115.5z" />
<glyph unicode="&#x221a;" horiz-adv-x="1372" d="M31 1075l276 10l285 -901l381 1383l389 10v-113l-242 -30l-424 -1434h-225l-328 932l-112 31v112z" />
<glyph unicode="&#x221e;" horiz-adv-x="1802" d="M1321 266q-115 0 -216.5 59.5t-213.5 166.5q-17 -17 -38.5 -37t-70 -56.5t-95 -63.5t-109 -48t-117.5 -21q-166 0 -257 89.5t-91 238.5q0 151 98 249.5t270 98.5q113 0 214 -59.5t214 -165.5q20 20 41 39t69 56t94 63t108.5 46.5t119.5 20.5q166 0 257.5 -89.5 t91.5 -238.5q0 -151 -98.5 -249.5t-270.5 -98.5zM471 420q77 0 159 55.5t148 124.5q-93 91 -165 139.5t-142 48.5q-184 0 -184 -184t184 -184zM1331 788q-79 0 -161 -55.5t-148 -124.5q96 -93 167 -140.5t142 -47.5q185 0 185 184t-185 184z" />
<glyph unicode="&#x221f;" horiz-adv-x="1167" d="M1147 195v-195h-1004v1106h215v-911h789z" />
<glyph unicode="&#x2229;" horiz-adv-x="1218" d="M881 0v850q0 95 -6 159.5t-23 119.5t-47 86t-77 48t-114 17q-84 0 -138 -24.5t-84.5 -81.5t-42 -135t-11.5 -199v-840h-205v829q0 127 11.5 219t43 172.5t85 129.5t138.5 76.5t203 27.5q137 0 229 -35.5t145 -112.5t75 -183.5t22 -262.5v-860h-204z" />
<glyph unicode="&#x222b;" horiz-adv-x="731" d="M711 1690l-15 -150q-72 16 -133 16q-100 0 -141.5 -56t-32.5 -179q7 -88 33.5 -416t48.5 -621.5t31 -457.5q5 -98 -11.5 -177t-57 -138.5t-111.5 -92t-168 -32.5q-32 0 -78.5 7.5t-76.5 14.5l-30 8l11 144q82 -11 133 -11q100 0 141.5 56.5t32.5 179.5q-7 88 -33.5 416 t-48.5 621.5t-31 457.5q-5 96 10.5 173t54.5 138.5t111 95t172 33.5q27 0 74.5 -7.5t81.5 -14.5z" />
<glyph unicode="&#x2248;" horiz-adv-x="1282" d="M217 571l-94 64q4 8 11.5 22t35.5 49.5t60.5 62.5t87 49t114.5 22q64 0 126 -22.5t104 -49.5t99 -49.5t111 -22.5q32 0 63.5 12.5t53.5 31t40 36.5t27 30l9 13l94 -63q-5 -9 -13.5 -23t-37.5 -51t-61 -65t-82.5 -51t-102.5 -23q-63 0 -129 22.5t-112.5 49t-106.5 49 t-113 22.5q-50 0 -96 -29t-67 -57zM217 233l-94 64q4 8 11.5 22t35.5 49.5t60.5 62.5t87 49t114.5 22q64 0 126 -22.5t104 -49.5t99 -49.5t111 -22.5q32 0 63.5 12.5t53.5 31t40 36.5t27 30l9 13l94 -63q-5 -9 -13.5 -23t-37.5 -51t-61 -65t-82.5 -51t-102.5 -23 q-63 0 -129 22.5t-112.5 49t-106.5 49t-113 22.5q-50 0 -96 -29t-67 -57z" />
<glyph unicode="&#x2260;" horiz-adv-x="1300" d="M690 840l129 266h164l-129 -266h313v-164h-391l-114 -236h505v-164h-583l-133 -276h-164l133 276h-287v164h365l114 236h-479v164h557z" />
<glyph unicode="&#x2261;" horiz-adv-x="1228" d="M1116 840v-164h-1003v164h1003zM1116 504v-164h-1003v164h1003zM1116 164v-164h-1003v164h1003z" />
<glyph unicode="&#x2264;" d="M1147 276l-1034 359v143l1034 348v-163l-809 -256l809 -267v-164zM1147 160v-160h-1034v160h1034z" />
<glyph unicode="&#x2265;" d="M113 963v163l1034 -348v-143l-1034 -359v164l809 267zM113 0v160h1034v-160h-1034z" />
<glyph unicode="&#x2302;" horiz-adv-x="1208" d="M1065 625v-625h-922v625l420 460h82zM604 860l-276 -307v-389h553v389z" />
<glyph unicode="&#x2310;" d="M113 727v-553h174v389h850v164h-1024z" />
<glyph unicode="&#x2320;" horiz-adv-x="645" d="M143 -614v1874q0 104 17.5 181.5t57 137.5t108 90.5t166.5 30.5q27 0 70.5 -8t73.5 -16l30 -7l-11 -143q-72 10 -123 10q-174 0 -174 -236v-1914h-215z" />
<glyph unicode="&#x2321;" horiz-adv-x="727" d="M481 1700v-1874q0 -104 -17.5 -181.5t-56.5 -137.5t-107.5 -90.5t-166.5 -30.5q-33 0 -76.5 7.5t-70.5 14.5l-27 8l10 144q72 -11 123 -11q174 0 174 236v1915h215z" />
<glyph unicode="&#x25ca;" horiz-adv-x="1044" d="M424 1577h184l396 -829l-390 -830h-184l-395 832zM535 94l280 625l-311 682l-279 -623z" />
<glyph unicode="&#x25fc;" horiz-adv-x="1085" d="M0 1085h1085v-1085h-1085v1085z" />
<glyph unicode="&#xf6d4;" horiz-adv-x="901" d="M602 1565l225 -11q0 -133 -106 -213.5t-262 -80.5q-155 0 -260.5 80.5t-106.5 213.5l225 11v-140q55 -43 144 -43q86 0 141 43v140z" />
<glyph horiz-adv-x="481" d="M102 1915l379 -297l-82 -113l-399 256z" />
<glyph horiz-adv-x="788" d="M72 1569l-72 61q3 8 9.5 21t28.5 46t46 58.5t62.5 46.5t78.5 21q60 0 124 -23.5t124 -47t111 -23.5q36 0 69.5 21.5t48.5 43.5l15 21l71 -62q-3 -7 -8.5 -19.5t-26 -44.5t-43 -56t-60 -44t-77.5 -20q-74 0 -186.5 45t-171.5 45q-36 0 -72 -22.5t-53 -44.5z" />
<glyph horiz-adv-x="655" d="M61 1331l400 318l102 -154l-430 -266z" />
<glyph horiz-adv-x="268" d="M121 1130l-121 44q76 242 68 413l200 10q0 -89 -38 -202t-109 -265z" />
<glyph horiz-adv-x="1064" d="M246 1300l-82 93l307 276l123 10l307 -286l-82 -93l-282 222z" />
<glyph horiz-adv-x="501" d="M102 1649l400 -318l-72 -102l-430 266z" />
<glyph horiz-adv-x="1634" d="M891 1505l-399 256l102 154l379 -297zM1378 1270v-1106l174 -41v-123h-583v123l194 41v813l-692 -741v-72l195 -41v-123h-584v123l174 41v1106l-174 41v112l584 11v-123l-195 -41v-819l692 747v72l-194 41v112l583 11v-123z" />
<glyph horiz-adv-x="1228" />
<glyph horiz-adv-x="1634" d="M971 1862l225 -11q0 -133 -106.5 -214t-262.5 -81q-155 0 -260 81t-106 214l225 11v-140q55 -43 143 -43q87 0 142 43v140zM1378 1270v-1106l174 -41v-123h-583v123l194 41v813l-692 -741v-72l195 -41v-123h-584v123l174 41v1106l-174 41v112l584 11v-123l-195 -41v-819 l692 747v72l-194 41v112l583 11v-123z" />
<glyph horiz-adv-x="1384" d="M1194 0h-1006q-92 0 -140 48t-48 140v1006q0 94 48 142t140 48h1006q190 0 190 -190v-1006q0 -92 -48 -140t-142 -48zM545 926l-115 -68q-18 -6 -22 -6q-13 0 -13 18v279h-176v-819h176v428q0 15 12 21.5t44 6.5q102 0 102 -133v-323h176v424q0 75 -52.5 123.5 t-131.5 48.5zM799 825h59q27 0 27 -22v-314q0 -74 52.5 -124t131.5 -50l150 88v60q-38 -10 -64 -10q-49 0 -71.5 33t-22.5 104v213q0 22 22 22h138v86h-138q-22 0 -22 25v65h-51l-211 -133v-43z" />
<glyph horiz-adv-x="821" d="M393 1204l-51 64l-29 239h164l-28 -239zM373 1190l-82 -12l-240 104l80 141l211 -155zM416 1190l33 78l210 155l80 -141l-239 -104zM393 1153l56 -66l28 -239h-164l29 242zM373 1167l-31 -77l-211 -156l-80 141l240 103zM500 1178l239 -103l-80 -141l-210 153l-33 80z " />
<glyph horiz-adv-x="481" d="M82 1505l-78 109l373 297l104 -150z" />
<glyph horiz-adv-x="716" d="M635 1884l82 -92l-297 -246l-123 -10l-297 256l82 92l272 -190z" />
<glyph horiz-adv-x="716" d="M82 1536l-82 92l297 246l123 10l297 -256l-82 -92l-273 190z" />
</font>
</defs>
</svg>
